<svg width="281" height="165" viewBox="0 0 281 165" fill="none" xmlns="http://www.w3.org/2000/svg">
<ellipse cx="11.9172" cy="152.491" rx="11.5088" ry="11.9172" transform="rotate(-90 11.9172 152.491)" fill="white" fill-opacity="0.75"/>
<ellipse cx="204.083" cy="152.491" rx="11.5088" ry="11.9172" transform="rotate(-90 204.083 152.491)" fill="white" fill-opacity="0.75"/>
<ellipse cx="204.083" cy="82" rx="11.5088" ry="11.9172" transform="rotate(-90 204.083 82)" fill="white" fill-opacity="0.75"/>
<ellipse cx="268.917" cy="152.509" rx="11.5088" ry="11.9172" transform="rotate(-90 268.917 152.509)" fill="white" fill-opacity="0.75"/>
<ellipse cx="140.028" cy="11.5088" rx="11.5088" ry="11.9172" transform="rotate(-90 140.028 11.5088)" fill="white" fill-opacity="0.75"/>
<ellipse cx="75.9724" cy="152.491" rx="11.5088" ry="11.9172" transform="rotate(-90 75.9724 152.491)" fill="white" fill-opacity="0.75"/>
<ellipse cx="75.9724" cy="82" rx="11.5088" ry="11.9172" transform="rotate(-90 75.9724 82)" fill="white" fill-opacity="0.75"/>
<ellipse cx="75.9724" cy="11.5088" rx="11.5088" ry="11.9172" transform="rotate(-90 75.9724 11.5088)" fill="white" fill-opacity="0.75"/>
<ellipse cx="140.028" cy="152.491" rx="11.5088" ry="11.9172" transform="rotate(-90 140.028 152.491)" fill="white" fill-opacity="0.75"/>
<ellipse cx="140.028" cy="82" rx="11.5088" ry="11.9172" transform="rotate(-90 140.028 82)" fill="white" fill-opacity="0.75"/>
<ellipse cx="11.9172" cy="11.5088" rx="11.5088" ry="11.9172" transform="rotate(-90 11.9172 11.5088)" fill="white" fill-opacity="0.75"/>
<ellipse cx="11.9172" cy="82" rx="11.5088" ry="11.9172" transform="rotate(-90 11.9172 82)" fill="white" fill-opacity="0.75"/>
</svg>
