<svg width="143" height="143" viewBox="0 0 143 143" fill="none" xmlns="http://www.w3.org/2000/svg">
<path d="M71.5 143C70.7457 143 69.9838 142.988 69.2359 142.965L69.2529 142.421C70.3268 142.455 71.4227 142.464 72.5017 142.449L72.5091 142.993C72.1733 142.998 71.8369 143 71.5 143ZM75.7805 142.874L75.7487 142.331C76.8242 142.268 77.9135 142.179 78.9863 142.066L79.0431 142.607C77.9621 142.72 76.8645 142.81 75.7805 142.874ZM65.9674 142.789C64.8829 142.706 63.7869 142.597 62.7098 142.465L62.7762 141.926C63.8451 142.056 64.9325 142.165 66.0088 142.247L65.9674 142.789ZM82.2898 142.191L82.2083 141.654C83.2769 141.492 84.3538 141.303 85.408 141.094L85.514 141.627C84.4515 141.838 83.3667 142.028 82.2898 142.191ZM59.471 141.992C58.3996 141.811 57.3181 141.602 56.2567 141.372L56.372 140.84C57.4254 141.069 58.4985 141.276 59.5618 141.456L59.471 141.992ZM88.7094 140.915L88.5788 140.388C89.6277 140.128 90.6825 139.841 91.714 139.536L91.8685 140.057C90.8291 140.365 89.7663 140.654 88.7094 140.915ZM53.0746 140.604C52.0237 140.324 50.9661 140.017 49.9312 139.689L50.095 139.171C51.1221 139.496 52.1716 139.801 53.2143 140.078L53.0746 140.604ZM94.9846 139.054L94.8061 138.54C95.824 138.186 96.8478 137.804 97.8495 137.403L98.0512 137.908C97.0421 138.312 96.0104 138.697 94.9846 139.054ZM46.8252 138.628C45.8046 138.253 44.7775 137.848 43.7729 137.425L43.9839 136.923C44.9809 137.343 46 137.745 47.0129 138.118L46.8252 138.628ZM101.055 136.625L100.83 136.13C101.807 135.686 102.79 135.212 103.75 134.721L103.998 135.205C103.03 135.699 102.04 136.177 101.055 136.625ZM106.872 133.651L106.603 133.179C107.541 132.644 108.477 132.082 109.384 131.507L109.675 131.967C108.76 132.545 107.817 133.112 106.872 133.651ZM112.398 130.156L112.086 129.71C112.969 129.093 113.85 128.447 114.705 127.791L115.036 128.222C114.175 128.884 113.287 129.534 112.398 130.156ZM29.5268 129.39C28.6492 128.752 27.7725 128.085 26.9209 127.405L27.2602 126.98C28.1053 127.655 28.9753 128.317 29.8461 128.95L29.5268 129.39ZM117.584 126.169L117.234 125.754C118.056 125.059 118.875 124.336 119.668 123.603L120.037 124.002C119.238 124.741 118.413 125.47 117.584 126.169ZM24.4089 125.303C23.5916 124.588 22.7796 123.843 21.9956 123.091L22.372 122.698C23.1502 123.445 23.9559 124.184 24.767 124.895L24.4089 125.303ZM122.389 121.725L122.001 121.344C122.76 120.575 123.51 119.78 124.231 118.98L124.635 119.343C123.909 120.15 123.153 120.951 122.389 121.725ZM19.6861 120.771C18.9362 119.982 18.1956 119.167 17.4849 118.348L17.8956 117.992C18.6009 118.805 19.3357 119.613 20.08 120.396L19.6861 120.771ZM126.771 116.861L126.351 116.516C127.036 115.682 127.711 114.822 128.357 113.958L128.792 114.284C128.142 115.154 127.462 116.021 126.771 116.861ZM15.3966 115.829C14.7232 114.978 14.0602 114.1 13.4258 113.218L13.867 112.9C14.4966 113.775 15.1546 114.647 15.823 115.492L15.3966 115.829ZM130.694 111.616L130.244 111.311C130.85 110.418 131.444 109.499 132.009 108.579L132.472 108.864C131.903 109.79 131.305 110.716 130.694 111.616ZM11.5766 110.521C10.9842 109.612 10.4043 108.678 9.85305 107.742L10.3214 107.466C10.8685 108.395 11.444 109.322 12.0319 110.223L11.5766 110.521ZM134.123 106.032L133.648 105.769C134.169 104.824 134.677 103.854 135.155 102.886L135.643 103.127C135.161 104.103 134.649 105.08 134.123 106.032ZM137.027 100.154L136.529 99.9357C136.962 98.9462 137.378 97.9328 137.766 96.924L138.273 97.1188C137.883 98.1357 137.463 99.1567 137.027 100.154ZM5.47178 98.9807C5.05496 97.9803 4.65579 96.9569 4.28543 95.9385L4.7965 95.7526C5.16394 96.7633 5.56005 97.7788 5.97355 98.7715L5.47178 98.9807ZM139.378 94.0285L138.862 93.8575C139.201 92.8351 139.522 91.7901 139.814 90.7513L140.337 90.8984C140.043 91.9452 139.72 92.9984 139.378 94.0285ZM3.23807 92.837C2.91457 91.8008 2.61058 90.7423 2.33461 89.6904L2.86054 89.5523C3.1344 90.5962 3.43613 91.6468 3.75711 92.675L3.23807 92.837ZM141.15 87.7273L140.621 87.6041C140.864 86.5563 141.087 85.4861 141.282 84.4238L141.817 84.5221C141.62 85.5928 141.396 86.6709 141.15 87.7273ZM1.57743 86.5055C1.3507 85.4436 1.14548 84.3617 0.967604 83.2894L1.50389 83.2002C1.68058 84.2645 1.88421 85.3382 2.10922 86.3919L1.57743 86.5055ZM142.335 81.2902L141.796 81.2164C141.943 80.1515 142.066 79.0657 142.163 77.9889L142.705 78.0377C142.607 79.123 142.482 80.2171 142.335 81.2902ZM0.505898 80.0488C0.377668 78.9725 0.272402 77.8763 0.192888 76.7907L0.735282 76.7509C0.814003 77.8285 0.918609 78.9162 1.04591 79.9846L0.505898 80.0488ZM142.926 74.7722L142.383 74.7477C142.432 73.6704 142.456 72.5776 142.456 71.5H143C143 72.5858 142.975 73.6868 142.926 74.7722ZM0.0281421 73.5212C0.00955752 72.8545 0.00013865 72.1743 0 71.5C0 71.0816 0.00358427 70.6639 0.0107524 70.2471L0.554479 70.2567C0.54731 70.6703 0.543726 71.0847 0.543726 71.5C0.543857 72.1693 0.553285 72.8444 0.571603 73.5063L0.0281421 73.5212ZM0.683507 67.0107L0.140843 66.9767C0.208676 65.8903 0.302394 64.793 0.419078 63.7152L0.959618 63.7738C0.843731 64.8435 0.75094 65.9324 0.683507 67.0107ZM142.105 63.6935C141.997 62.6216 141.847 62.0989 141.69 61.0317L142.227 60.9523C142.386 62.0276 142.522 62.8485 142.632 63.9286L142.105 63.6935ZM1.38294 60.5531L0.84559 60.47C1.01218 59.3944 1.20573 58.3102 1.42091 57.2473L1.95376 57.3551C1.7403 58.4099 1.54821 59.4858 1.38294 60.5531ZM141.141 57.8302C140.933 56.7696 140.7 55.7019 140.445 54.6569L140.973 54.5285C141.23 55.5814 141.465 56.6573 141.674 57.7259L141.141 57.8302ZM2.67085 54.1869L2.14345 54.0547C2.40748 53.0016 2.69992 51.9398 3.01267 50.8985L3.53329 51.0549C3.22307 52.0882 2.93289 53.1419 2.67085 54.1869ZM139.604 51.519C139.301 50.4837 138.97 49.4423 138.619 48.4233L139.133 48.2465C139.486 49.2733 139.82 50.3229 140.126 51.3661L139.604 51.519ZM4.54256 47.9575L4.02963 47.7773C4.39097 46.7494 4.78111 45.7167 5.18917 44.7077L5.69334 44.9116C5.28833 45.9127 4.90111 46.9377 4.54256 47.9575ZM137.493 45.3763C137.096 44.3757 136.671 43.3714 136.23 42.3914L136.726 42.1681C137.171 43.1557 137.599 44.1677 137.998 45.1758L137.493 45.3763ZM6.98296 41.9229L6.48888 41.6959C6.943 40.707 7.42633 39.7152 7.92545 38.7483L8.40865 38.9976C7.91324 39.9572 7.43363 40.9414 6.98296 41.9229ZM134.832 39.4665C134.345 38.5066 133.829 37.5447 133.299 36.6079L133.772 36.34C134.307 37.2841 134.826 38.2533 135.316 39.2206L134.832 39.4665ZM9.96721 36.1417L9.49597 35.8704C10.0384 34.9286 10.6104 33.9858 11.1962 33.0685L11.6544 33.3611C11.0731 34.2715 10.5054 35.2071 9.96721 36.1417ZM131.637 33.8213C131.063 32.9067 130.461 31.9955 129.849 31.113L130.296 30.8032C130.912 31.6925 131.519 32.6105 132.098 33.5322L131.637 33.8213ZM13.4669 30.6613L13.0225 30.348C13.6493 29.459 14.3047 28.573 14.9708 27.7144L15.4004 28.0476C14.7394 28.8998 14.0888 29.7791 13.4669 30.6613ZM127.939 28.4885C127.283 27.6303 126.601 26.7772 125.91 25.9528L126.327 25.6036C127.023 26.4343 127.711 27.2938 128.371 28.1585L127.939 28.4885ZM17.4506 25.5255L17.0367 25.1729C17.7401 24.3467 18.4733 23.5244 19.2157 22.7287L19.6132 23.0996C18.8764 23.8893 18.1489 24.7055 17.4506 25.5255ZM123.768 23.5115C123.038 22.7165 122.28 21.9285 121.516 21.1697L121.9 20.784C122.669 21.5487 123.432 22.3425 124.168 23.1435L123.768 23.5115ZM21.8833 20.7755L21.5031 20.3868C22.2806 19.6262 23.0851 18.8741 23.8942 18.1518L24.2563 18.5574C23.4534 19.2743 22.6549 20.0205 21.8833 20.7755ZM119.161 18.9323C118.36 18.2063 117.534 17.4903 116.704 16.8041L117.051 16.3852C117.887 17.0765 118.719 17.798 119.526 18.5296L119.161 18.9323ZM26.7274 16.4497L26.3841 16.0281C27.2251 15.3433 28.0941 14.6678 28.9674 14.0206L29.2913 14.4573C28.4246 15.0998 27.562 15.77 26.7274 16.4497ZM31.9423 12.5845L31.6389 12.1335C32.5389 11.5279 33.4654 10.9349 34.3929 10.3706L34.6754 10.8352C33.7551 11.3951 32.8356 11.9837 31.9423 12.5845ZM37.485 9.21307L37.224 8.73598C38.1762 8.21495 39.1525 7.70945 40.1258 7.23329L40.3648 7.7218C39.3989 8.19424 38.43 8.69589 37.485 9.21307ZM103.105 7.95331C102.137 7.47131 101.146 7.00564 100.159 6.5693L100.379 6.07204C101.374 6.51169 102.372 6.98095 103.347 7.46666L103.105 7.95331ZM43.3088 6.36448L43.0927 5.86561C44.0878 5.43432 45.1057 5.02069 46.118 4.63612L46.311 5.14454C45.3064 5.52606 44.2963 5.9365 43.3088 6.36448ZM97.1518 5.32202C96.145 4.93163 95.1146 4.55913 94.0891 4.21506L94.2622 3.69947C95.2954 4.04634 96.3338 4.42161 97.3482 4.8152L97.1518 5.32202ZM49.3737 4.06147L49.2043 3.54483C50.2376 3.20606 51.2919 2.88707 52.3377 2.59702L52.483 3.12084C51.4452 3.40876 50.399 3.72524 49.3737 4.06147ZM90.986 3.25305C89.949 2.95743 88.8913 2.68211 87.8423 2.4348L87.9671 1.90568C89.0243 2.15485 90.09 2.43228 91.1352 2.73003L90.986 3.25305ZM55.6325 2.32449L55.5114 1.79444C56.5708 1.55244 57.6498 1.33195 58.7186 1.13921L58.8152 1.67417C57.7545 1.86559 56.6837 2.08436 55.6325 2.32449ZM84.6641 1.76258C83.6053 1.56385 82.5269 1.38705 81.4586 1.23704L81.534 0.698624C82.6105 0.849823 83.6975 1.02797 84.7645 1.22815L84.6641 1.76258ZM62.0246 1.17093L61.9527 0.631988C63.029 0.488357 64.1236 0.367558 65.206 0.273309L65.2533 0.814911C64.1791 0.908628 63.0929 1.02835 62.0246 1.17093ZM78.2321 0.858983C77.1611 0.758094 76.071 0.680306 74.9917 0.628138L75.0183 0.0849427C76.1055 0.137643 77.2038 0.215962 78.283 0.317658L78.2321 0.858983ZM68.4954 0.606368L68.4726 0.0631849C69.4719 0.0215028 70.4903 0.000266426 71.5 0L71.7461 0.000396163L71.7445 0.544122L71.5 0.543726C70.498 0.543979 69.487 0.565082 68.4954 0.606368Z" fill="#3B3850"/>
<path d="M80 106.026C105.405 106.026 126 86.7684 126 63.013C126 39.2576 105.405 20 80 20C54.5949 20 34 39.2576 34 63.013C34 86.7684 54.5949 106.026 80 106.026Z" fill="#3F3D56"/>
<path opacity="0.1" d="M80.0003 100.004C101.849 100.004 119.56 83.4427 119.56 63.013C119.56 42.5834 101.849 26.0219 80.0003 26.0219C58.1519 26.0219 40.4403 42.5834 40.4403 63.013C40.4403 83.4427 58.1519 100.004 80.0003 100.004Z" fill="black"/>
<path d="M78.1046 84.8411V79.4571C75.194 79.404 72.183 78.4442 70.4267 77.1116L71.631 73.5401C73.7181 75.0027 76.2493 75.8055 78.8573 75.8321C82.4203 75.8321 84.8291 73.6466 84.8291 70.6082C84.8291 67.6762 82.8719 65.864 79.1584 64.2646C74.0397 62.1325 70.8783 59.6802 70.8783 55.0427C70.8783 50.6181 73.839 47.2598 78.4559 46.4603V41.0763H81.5672V46.2471C83.8872 46.2767 86.1502 46.9238 88.0911 48.1127L86.8363 51.6311C84.9749 50.4396 82.7691 49.8073 80.5134 49.8185C76.6494 49.8185 75.194 52.2705 75.194 54.4029C75.194 57.1748 77.0508 58.5608 81.4168 60.48C86.5854 62.7188 89.1951 65.4907 89.1951 70.235C89.1951 74.4461 86.435 78.3911 81.2661 79.2968V84.8411H78.1046Z" fill="#4D80E4"/>
<path d="M62.8603 114.131C62.8603 114.131 93.7678 115.729 86.5687 125.459C79.3697 135.188 60.4533 119.751 60.4533 119.751L62.8603 114.131Z" fill="#FFB8B8"/>
<path d="M12.937 86.1932C17.1282 82.9208 20.5809 82.2119 26.349 83.8447C32.117 85.4774 66.9929 112.329 66.9929 112.329L62.1453 123.173C62.1453 123.173 8.0003 106.964 8.00021 101.834C8.00011 96.7037 7.88848 90.1349 12.937 86.1932Z" fill="#575A89"/>
<line x1="36.0525" y1="132.583" x2="110.42" y2="11.1933" stroke="white" stroke-width="10"/>
</svg>
