<svg width="731" height="573" viewBox="0 0 731 573" fill="none" xmlns="http://www.w3.org/2000/svg">
<ellipse cx="721.134" cy="547.455" rx="9.21767" ry="9.54483" transform="rotate(-180 721.134 547.455)" fill="#4D80E4" fill-opacity="0.75"/>
<ellipse cx="721.134" cy="393.545" rx="9.21767" ry="9.54483" transform="rotate(-180 721.134 393.545)" fill="#4D80E4" fill-opacity="0.75"/>
<ellipse cx="664.676" cy="393.545" rx="9.21767" ry="9.54483" transform="rotate(-180 664.676 393.545)" fill="#4D80E4" fill-opacity="0.75"/>
<ellipse cx="608.218" cy="393.677" rx="9.21767" ry="9.54483" transform="rotate(-180 608.218 393.677)" fill="#4D80E4" fill-opacity="0.75"/>
<ellipse cx="608.218" cy="444.848" rx="9.21767" ry="9.54483" transform="rotate(-180 608.218 444.848)" fill="#4D80E4" fill-opacity="0.75"/>
<ellipse cx="721.134" cy="496.152" rx="9.21767" ry="9.54483" transform="rotate(-180 721.134 496.152)" fill="#4D80E4" fill-opacity="0.75"/>
<ellipse cx="664.676" cy="496.152" rx="9.21767" ry="9.54483" transform="rotate(-180 664.676 496.152)" fill="#4D80E4" fill-opacity="0.75"/>
<ellipse cx="608.218" cy="496.152" rx="9.21767" ry="9.54483" transform="rotate(-180 608.218 496.152)" fill="#4D80E4" fill-opacity="0.75"/>
<ellipse cx="721.134" cy="444.848" rx="9.21767" ry="9.54483" transform="rotate(-180 721.134 444.848)" fill="#4D80E4" fill-opacity="0.75"/>
<ellipse cx="664.676" cy="444.848" rx="9.21767" ry="9.54483" transform="rotate(-180 664.676 444.848)" fill="#4D80E4" fill-opacity="0.75"/>
<ellipse cx="608.218" cy="547.455" rx="9.21767" ry="9.54483" transform="rotate(-180 608.218 547.455)" fill="#4D80E4" fill-opacity="0.75"/>
<ellipse cx="664.676" cy="547.455" rx="9.21767" ry="9.54483" transform="rotate(-180 664.676 547.455)" fill="#4D80E4" fill-opacity="0.75"/>
<ellipse cx="9.54483" cy="122.134" rx="9.21767" ry="9.54483" transform="rotate(-90 9.54483 122.134)" fill="#4D80E4" fill-opacity="0.75"/>
<ellipse cx="163.455" cy="122.134" rx="9.21767" ry="9.54483" transform="rotate(-90 163.455 122.134)" fill="#4D80E4" fill-opacity="0.75"/>
<ellipse cx="163.455" cy="65.6759" rx="9.21767" ry="9.54483" transform="rotate(-90 163.455 65.6759)" fill="#4D80E4" fill-opacity="0.75"/>
<ellipse cx="163.323" cy="9.21763" rx="9.21767" ry="9.54483" transform="rotate(-90 163.323 9.21763)" fill="#4D80E4" fill-opacity="0.75"/>
<ellipse cx="112.152" cy="9.21763" rx="9.21767" ry="9.54483" transform="rotate(-90 112.152 9.21763)" fill="#4D80E4" fill-opacity="0.75"/>
<ellipse cx="60.8483" cy="122.134" rx="9.21767" ry="9.54483" transform="rotate(-90 60.8483 122.134)" fill="#4D80E4" fill-opacity="0.75"/>
<ellipse cx="60.8483" cy="65.6759" rx="9.21767" ry="9.54483" transform="rotate(-90 60.8483 65.6759)" fill="#4D80E4" fill-opacity="0.75"/>
<ellipse cx="60.8483" cy="9.21763" rx="9.21767" ry="9.54483" transform="rotate(-90 60.8483 9.21763)" fill="#4D80E4" fill-opacity="0.75"/>
<ellipse cx="112.152" cy="122.134" rx="9.21767" ry="9.54483" transform="rotate(-90 112.152 122.134)" fill="#4D80E4" fill-opacity="0.75"/>
<ellipse cx="112.152" cy="65.6759" rx="9.21767" ry="9.54483" transform="rotate(-90 112.152 65.6759)" fill="#4D80E4" fill-opacity="0.75"/>
<ellipse cx="9.54483" cy="9.21763" rx="9.21767" ry="9.54483" transform="rotate(-90 9.54483 9.21763)" fill="#4D80E4" fill-opacity="0.75"/>
<ellipse cx="9.54483" cy="65.6759" rx="9.21767" ry="9.54483" transform="rotate(-90 9.54483 65.6759)" fill="#4D80E4" fill-opacity="0.75"/>
<path opacity="0.1" d="M332.572 26.8013C306.719 14.2664 279.4 3.79569 251.511 5.112C210.506 7.0416 171.143 36.4567 151.866 79.6483C135.511 116.243 133.493 159.136 126.447 199.747C117.777 249.774 101.14 297.334 83.3767 343.831C73.8381 368.811 63.7715 394.329 62.2052 421.71C60.0346 459.726 75.2695 497.608 99.1629 522.894C123.056 548.181 154.787 561.524 186.636 564.433C203.583 565.981 221.294 564.545 236.347 555.137C252.274 545.182 263.883 527.195 279.875 517.382C294.693 508.288 312.028 507.016 328.665 508.198C350.387 509.741 371.83 515.179 392.361 524.353C415.615 534.764 437.239 549.849 460.41 560.409C483.582 570.97 509.535 576.863 533.247 568.053C555.539 559.774 573.138 539.67 589.006 519.312C614.953 486.084 638.735 450.218 660.117 412.07C674.437 386.484 687.765 359.492 694.095 329.673C706.203 272.66 689.543 208.34 652.591 169.404C621.975 137.147 580.887 123.146 540.668 114.65C503.991 106.902 461.584 106.423 427.823 86.2298C395.629 66.9488 366.332 43.1804 332.572 26.8013Z" fill="#1E5F74"/>
<path d="M187.102 121.84V70.8199H212.904V45.9812H86.611V170.846H194.571V158.638C194.571 156.362 195.025 154.109 195.906 152.006C196.786 149.903 198.078 147.993 199.705 146.384C201.333 144.775 203.265 143.498 205.392 142.627C207.518 141.756 209.797 141.308 212.099 141.308H212.904V121.84H187.102Z" fill="#4D80E4"/>
<path d="M230.359 77.9589H195.449V112.982H230.359V77.9589Z" fill="#4D80E4"/>
<rect x="450.234" y="446.919" width="116.116" height="66.3488" transform="rotate(21.4382 450.234 446.919)" fill="#4D80E4"/>
<g filter="url(#filter0_d)">
<rect x="177.283" y="132.426" width="392.481" height="331.052" fill="white"/>
<g clip-path="url(#clip0)">
<path d="M265.301 380.445C265.301 395.991 256.051 401.42 244.641 401.42C244.375 401.42 244.111 401.417 243.848 401.41C243.32 401.399 242.795 401.376 242.279 401.338C231.98 400.611 223.979 394.903 223.979 380.445C223.979 365.485 243.111 346.606 244.555 345.204L244.557 345.203C244.612 345.148 244.641 345.121 244.641 345.121C244.641 345.121 265.301 364.898 265.301 380.445Z" fill="#3F3D56"/>
<path d="M243.887 399.042L251.444 388.492L243.868 400.199L243.848 401.41C243.32 401.399 242.796 401.376 242.279 401.338L243.093 385.785L243.087 385.665L243.101 385.642L243.177 384.173L235.583 372.436L243.2 383.071L243.219 383.382L243.835 371.631L237.333 359.504L243.914 369.566L244.555 345.204L244.557 345.121V345.203L244.451 364.414L250.923 356.798L244.424 366.069L244.253 376.59L250.297 366.493L244.227 378.14L244.132 383.989L252.906 369.934L244.099 386.031L243.887 399.042Z" fill="#F2F2F2"/>
<g opacity="0.7">
<path opacity="0.7" d="M504.94 271.479V267.735H486.203V285.051C486.203 286.02 486.588 286.948 487.273 287.633C487.958 288.317 488.888 288.702 489.857 288.702H501.286C502.255 288.702 503.185 288.317 503.87 287.633C504.555 286.948 504.94 286.02 504.94 285.051V281.214C506.232 281.214 507.471 280.701 508.385 279.788C509.299 278.875 509.812 277.637 509.812 276.347C509.812 275.056 509.299 273.818 508.385 272.905C507.471 271.992 506.232 271.479 504.94 271.479ZM504.94 279.342V273.351C505.735 273.351 506.498 273.667 507.06 274.229C507.622 274.79 507.938 275.552 507.938 276.347C507.938 277.141 507.622 277.903 507.06 278.464C506.498 279.026 505.735 279.342 504.94 279.342Z" fill="url(#paint0_linear)"/>
</g>
<path d="M504.337 272.065C503.457 272.065 502.597 272.326 501.866 272.814C501.135 273.302 500.564 273.997 500.228 274.809C499.891 275.621 499.803 276.514 499.975 277.376C500.146 278.238 500.57 279.03 501.192 279.652C501.814 280.273 502.607 280.696 503.469 280.868C504.332 281.039 505.227 280.951 506.039 280.615C506.852 280.279 507.547 279.709 508.036 278.978C508.524 278.247 508.785 277.388 508.785 276.509C508.785 275.331 508.317 274.2 507.482 273.367C506.648 272.533 505.517 272.065 504.337 272.065ZM504.337 279.244C503.796 279.244 503.267 279.084 502.816 278.783C502.366 278.483 502.015 278.055 501.808 277.556C501.601 277.056 501.547 276.506 501.653 275.976C501.758 275.445 502.019 274.958 502.402 274.575C502.784 274.193 503.272 273.932 503.803 273.827C504.334 273.721 504.885 273.776 505.385 273.983C505.885 274.19 506.312 274.54 506.613 274.99C506.914 275.44 507.074 275.968 507.074 276.509C507.074 277.235 506.786 277.93 506.273 278.443C505.759 278.956 505.063 279.244 504.337 279.244Z" fill="#46B3E6"/>
<path opacity="0.1" d="M504.337 272.065C503.457 272.065 502.597 272.326 501.866 272.814C501.135 273.302 500.564 273.997 500.228 274.809C499.891 275.621 499.803 276.514 499.975 277.376C500.146 278.238 500.57 279.03 501.192 279.652C501.814 280.273 502.607 280.696 503.469 280.868C504.332 281.039 505.227 280.951 506.039 280.615C506.852 280.279 507.547 279.709 508.036 278.978C508.524 278.247 508.785 277.388 508.785 276.509C508.785 275.331 508.317 274.2 507.482 273.367C506.648 272.533 505.517 272.065 504.337 272.065ZM504.337 279.244C503.796 279.244 503.267 279.084 502.816 278.783C502.366 278.483 502.015 278.055 501.808 277.556C501.601 277.056 501.547 276.506 501.653 275.976C501.758 275.445 502.019 274.958 502.402 274.575C502.784 274.193 503.272 273.932 503.803 273.827C504.334 273.721 504.885 273.776 505.385 273.983C505.885 274.19 506.312 274.54 506.613 274.99C506.914 275.44 507.074 275.968 507.074 276.509C507.074 277.235 506.786 277.93 506.273 278.443C505.759 278.956 505.063 279.244 504.337 279.244Z" fill="black"/>
<path d="M487.229 268.647H504.337V284.44C504.337 285.328 503.984 286.18 503.355 286.809C502.726 287.437 501.873 287.79 500.984 287.79H490.583C489.694 287.79 488.841 287.437 488.212 286.809C487.583 286.18 487.229 285.328 487.229 284.44V268.647Z" fill="#46B3E6"/>
<path opacity="0.1" d="M501.258 268.647V284.457C501.258 285.341 500.906 286.189 500.281 286.814C499.655 287.439 498.807 287.79 497.922 287.79H499.633C500.517 287.79 501.366 287.439 501.992 286.814C502.617 286.189 502.969 285.341 502.969 284.457V268.647H501.258Z" fill="black"/>
<path d="M490.605 255.904C490.459 255.909 490.316 255.945 490.185 256.012C490.054 256.078 489.94 256.172 489.85 256.287C489.625 256.694 490.032 257.152 490.403 257.431C491.089 257.947 491.811 258.454 492.277 259.174C492.743 259.894 492.89 260.899 492.38 261.589C491.715 262.491 490.128 262.685 489.975 263.794C489.876 264.506 490.492 265.113 491.117 265.471C492.658 266.353 494.644 266.588 495.76 267.968C496.222 267.019 497.255 266.471 498.285 266.237C499.314 266.003 500.384 266.02 501.427 265.861C501.598 265.858 501.765 265.815 501.916 265.735C502.067 265.655 502.196 265.541 502.295 265.402C502.586 264.81 501.755 264.101 502.042 263.507C502.26 263.055 502.902 263.09 503.371 262.909C504.134 262.614 504.448 261.633 504.232 260.845C504.015 260.056 503.403 259.44 502.76 258.935C501.026 257.574 498.942 256.774 496.833 256.198C495.853 255.93 494.702 255.51 493.683 255.47C492.7 255.431 491.579 255.738 490.605 255.904Z" fill="#EEEEEE"/>
<path d="M370.53 291.827L334.759 403.168" stroke="#E0E0E0" stroke-width="8" stroke-miterlimit="10"/>
<g opacity="0.7">
<path opacity="0.7" d="M398.246 415.707C393.846 415.962 389.926 419.645 389.926 419.645L388.03 414.947L387.876 414.998C388.802 410.948 407.642 327.465 388.782 320.268C374.29 314.737 358.918 307.894 346.875 308.151V288.429H363.759V287.726H377.126C379.688 285.898 375.965 284.64 371.804 283.854C371.973 283.661 372.123 283.45 372.25 283.226L393.659 244.851C393.659 244.851 398.583 236.768 395.417 232.902C392.251 229.036 387.679 242.742 387.679 242.742L370.091 268.046C370.091 268.046 352.34 249.561 341.047 240.368C339.794 239.128 338.38 238.06 336.844 237.194C334.782 235.801 333.222 235.079 332.453 235.362C332.445 235.365 332.438 235.37 332.431 235.373C330.719 234.899 328.952 234.659 327.176 234.659H325.769V231.776C328.921 230.736 331.804 229.014 334.214 226.733C336.623 224.452 338.499 221.668 339.708 218.579C341.693 215.296 342.905 211.605 343.253 207.785C343.601 203.965 343.076 200.116 341.717 196.528C341.927 196.503 342.129 196.434 342.31 196.323C342.947 195.914 343.01 195.017 342.948 194.263C342.717 191.731 341.872 189.293 340.486 187.16C339.101 185.028 337.216 183.264 334.995 182.023C333.213 181.049 331.172 180.378 329.857 178.831C328.728 177.501 328.254 175.641 326.887 174.556C325.264 173.267 322.919 173.489 320.926 174.064C318.71 174.705 316.609 175.695 314.705 176.997C312.55 178.472 310.606 180.366 308.125 181.182C306.362 181.762 304.451 181.751 302.677 182.295C301.315 182.726 300.074 183.47 299.052 184.466C298.029 185.462 297.255 186.683 296.789 188.032C296.338 189.481 296.167 191.003 296.286 192.516C295.207 194.318 294.358 196.247 293.759 198.259C293.626 198.331 293.493 198.401 293.361 198.475L293.747 198.301C292.401 202.839 292.357 207.662 293.618 212.223C294.879 216.785 297.395 220.901 300.881 224.105C303.636 227.688 307.405 230.36 311.699 231.776V235.264C308.635 235.924 305.713 237.12 303.066 238.797L303.062 238.792C303.062 238.792 302.837 238.931 302.453 239.189C302.414 239.215 302.376 239.241 302.338 239.267C299.735 241.032 291.013 247.481 291.307 254.45C291.296 254.718 291.297 254.987 291.312 255.256C290.836 257.27 290.594 259.332 290.593 261.402V311.976C290.587 317.564 292.466 322.991 295.929 327.38C288.588 329.024 283.91 331.51 283.91 334.292C283.947 334.525 283.947 334.762 283.91 334.995C283.91 339.944 298.714 343.957 316.975 343.957C319.183 343.957 321.34 343.898 323.427 343.786L344.061 360.474L310.995 413.542C310.995 413.542 300.091 421.976 308.533 424.788C316.975 427.599 334.211 429.708 334.211 429.708C334.211 429.708 337.025 424.788 333.156 422.679C329.287 420.57 324.01 421.625 324.01 421.625L324.714 417.408C324.714 417.408 382.05 368.206 370.091 351.337C367.803 348.11 365.515 344.78 363.207 341.502L372.233 342.324L374.287 419.56L374.544 419.476C374.028 420.994 370.381 432.445 378.464 430.508C387.118 428.433 402.862 421.115 402.862 421.115C402.862 421.115 402.646 415.453 398.246 415.707ZM363.759 282.806L346.875 277.909V263.477L365.226 282.94C364.324 282.85 363.759 282.806 363.759 282.806Z" fill="url(#paint1_linear)"/>
</g>
<path d="M318.593 232.376C332.27 232.376 343.358 221.299 343.358 207.634C343.358 193.969 332.27 182.891 318.593 182.891C304.916 182.891 293.828 193.969 293.828 207.634C293.828 221.299 304.916 232.376 318.593 232.376Z" fill="black"/>
<path d="M346.797 264.335L365.697 284.38C366.095 284.802 366.587 285.124 367.133 285.321C367.679 285.517 368.263 285.582 368.839 285.511C369.415 285.439 369.966 285.233 370.448 284.909C370.929 284.585 371.327 284.153 371.61 283.646L392.544 246.122L386.696 244.06L369.498 268.803C369.498 268.803 337.212 235.182 332.695 236.844C328.178 238.506 346.797 264.335 346.797 264.335Z" fill="#46B3E6"/>
<path d="M310.682 333.751L282.821 405.917" stroke="#BDBDBD" stroke-width="5" stroke-miterlimit="10"/>
<path d="M324.44 333.751L352.301 405.917" stroke="#BDBDBD" stroke-width="5" stroke-miterlimit="10"/>
<path d="M317.561 343.03C335.417 343.03 349.893 339.107 349.893 334.267C349.893 329.427 335.417 325.504 317.561 325.504C299.705 325.504 285.229 329.427 285.229 334.267C285.229 339.107 299.705 343.03 317.561 343.03Z" fill="#B84733"/>
<path d="M317.561 342.343C335.417 342.343 349.893 338.419 349.893 333.58C349.893 328.74 335.417 324.817 317.561 324.817C299.705 324.817 285.229 328.74 285.229 333.58C285.229 338.419 299.705 342.343 317.561 342.343Z" fill="#F55F44"/>
<path d="M303.956 349.607L334.462 358.998" stroke="#BDBDBD" stroke-width="5" stroke-miterlimit="10"/>
<path d="M331.166 349.607L300.66 358.998" stroke="#BDBDBD" stroke-width="5" stroke-miterlimit="10"/>
<path d="M317.937 236.156H327.536C332.644 236.156 337.543 238.184 341.156 241.793C344.768 245.402 346.797 250.297 346.797 255.4V306.26H291.764V262.306C291.764 255.371 294.522 248.719 299.43 243.815C304.339 238.911 310.996 236.156 317.937 236.156Z" fill="#46B3E6"/>
<path d="M291.764 306.26H346.797V336.157H316.185C309.708 336.157 303.497 333.586 298.917 329.011C294.337 324.435 291.764 318.229 291.764 311.758V306.26Z" fill="#39447A"/>
<path opacity="0.05" d="M292.507 256.789L326.16 288.734H363.307V283.923L331.319 274.645L303.956 240.885C303.956 240.885 291.531 248.555 292.507 256.789Z" fill="black"/>
<path d="M292.507 256.101L326.16 288.047H363.307V283.236L331.319 273.957L303.956 240.198C303.956 240.198 291.531 247.867 292.507 256.101Z" fill="#46B3E6"/>
<path d="M363.307 283.236C363.307 283.236 381.193 284.61 376.378 288.047H363.307V283.236Z" fill="#FDA57D"/>
<path d="M386.696 244.06C386.696 244.06 391.168 230.658 394.263 234.438C397.359 238.218 392.544 246.122 392.544 246.122L386.696 244.06Z" fill="#FDA57D"/>
<path opacity="0.05" d="M291.764 306.26V307.864L346.797 307.978V306.26H291.764Z" fill="black"/>
<path d="M334.574 338.062L371.593 341.433L373.601 416.956L386.854 412.646C386.854 412.646 406.675 327.079 387.775 319.866C368.875 312.654 348.444 303.156 336.246 310.896C324.048 318.636 334.574 338.062 334.574 338.062Z" fill="#39447A"/>
<path opacity="0.1" d="M336.823 314.851C336.823 314.851 357.116 325.16 359.868 336.844L336.823 314.851Z" fill="black"/>
<path d="M315.154 335.813L344.046 359.181L311.714 411.072L325.128 414.852C325.128 414.852 381.193 366.741 369.498 350.246C357.804 333.752 346.109 314.507 331.663 314.164C317.217 313.82 315.154 335.813 315.154 335.813Z" fill="#39447A"/>
<path opacity="0.05" d="M360.556 259.868L367.779 272.239L369.498 268.803L360.556 259.868Z" fill="black"/>
<path d="M311.714 411.072C311.714 411.072 301.051 419.319 309.306 422.068C317.561 424.817 334.415 426.879 334.415 426.879C334.415 426.879 337.166 422.068 333.383 420.006C329.599 417.944 324.44 418.975 324.44 418.975L325.128 414.852L311.714 411.072Z" fill="#333333"/>
<path d="M373.909 416.712C373.909 416.712 369.225 429.69 377.687 427.661C386.148 425.632 401.543 418.477 401.543 418.477C401.543 418.477 401.332 412.94 397.029 413.189C392.727 413.438 388.894 417.04 388.894 417.04L387.04 412.446L373.909 416.712Z" fill="#333333"/>
<path d="M319.281 224.129H319.281C315.482 224.129 312.402 227.206 312.402 231.002V237.875C312.402 241.67 315.482 244.748 319.281 244.748H319.281C323.08 244.748 326.16 241.67 326.16 237.875V231.002C326.16 227.206 323.08 224.129 319.281 224.129Z" fill="#FDA57D"/>
<path opacity="0.05" d="M319.281 224.816C317.456 224.816 315.707 225.54 314.416 226.829C313.126 228.118 312.402 229.866 312.402 231.689V234.024C316.87 235.493 321.692 235.493 326.16 234.024V231.689C326.16 229.866 325.435 228.118 324.145 226.829C322.855 225.54 321.105 224.816 319.281 224.816Z" fill="black"/>
<path d="M319.281 234.438C331.438 234.438 341.294 224.591 341.294 212.445C341.294 200.298 331.438 190.452 319.281 190.452C307.123 190.452 297.268 200.298 297.268 212.445C297.268 224.591 307.123 234.438 319.281 234.438Z" fill="#FDA57D"/>
<path opacity="0.05" d="M297.268 211.447C297.268 211.447 302.771 212.864 305.866 206.615C308.962 200.366 311.37 196.957 324.096 200.65C336.823 204.342 339.383 204.793 339.994 201.301C340.412 198.915 335.887 193.119 332.979 189.688C331.561 188.014 329.246 187.015 326.772 187.015H312.402L303.803 190.992L297.268 196.673L295.892 204.342L297.268 211.447Z" fill="black"/>
<path d="M297.268 210.76C297.268 210.76 302.771 212.177 305.866 205.928C308.962 199.678 311.37 196.27 324.096 199.962C336.823 203.655 339.383 204.106 339.994 200.614C340.412 198.228 335.887 192.432 332.979 189.001C331.561 187.327 329.246 186.328 326.772 186.328H312.402L303.803 190.305L297.268 195.986L295.892 203.655L297.268 210.76Z" fill="black"/>
<path d="M299.503 215.194C300.738 215.194 301.739 213.194 301.739 210.727C301.739 208.259 300.738 206.259 299.503 206.259C298.269 206.259 297.268 208.259 297.268 210.727C297.268 213.194 298.269 215.194 299.503 215.194Z" fill="#FDA57D"/>
<path d="M297.905 199.232C297.395 196.355 296.894 193.334 297.823 190.564C298.278 189.245 299.035 188.05 300.035 187.076C301.034 186.102 302.248 185.376 303.58 184.954C305.314 184.421 307.183 184.433 308.907 183.866C311.333 183.068 313.234 181.215 315.341 179.774C317.203 178.5 319.257 177.532 321.425 176.905C323.372 176.343 325.666 176.126 327.253 177.387C328.589 178.448 329.053 180.266 330.157 181.566C331.442 183.079 333.438 183.735 335.181 184.687C337.353 185.901 339.196 187.626 340.551 189.711C341.906 191.796 342.732 194.18 342.958 196.656C343.018 197.394 342.956 198.27 342.333 198.671C341.946 198.867 341.51 198.947 341.079 198.9C332.281 198.774 323.472 198.648 314.711 197.841C311.987 197.59 309.258 197.273 306.525 197.377C302.294 197.541 298.163 198.706 294.471 200.775" fill="black"/>
<path d="M259.808 395.35H229.362C223.134 395.35 218.086 400.394 218.086 406.616V406.616C218.086 412.838 223.134 417.882 229.362 417.882H259.808C266.036 417.882 271.084 412.838 271.084 406.616C271.084 400.394 266.036 395.35 259.808 395.35Z" fill="#46B3E6"/>
<path d="M416.162 314.908C416.296 314.904 416.422 314.847 416.515 314.751C416.608 314.655 416.66 314.526 416.66 314.393C416.66 314.259 416.608 314.131 416.515 314.034C416.422 313.938 416.296 313.882 416.162 313.877C416.028 313.882 415.901 313.938 415.809 314.034C415.716 314.131 415.664 314.259 415.664 314.393C415.664 314.526 415.716 314.655 415.809 314.751C415.901 314.847 416.028 314.904 416.162 314.908Z" fill="url(#paint2_linear)"/>
<path d="M491.865 291.827L527.637 419.007" stroke="#E0E0E0" stroke-width="8" stroke-miterlimit="10"/>
<path d="M527.782 288.102H334.614V295.623H527.782V288.102Z" fill="#E0E0E0"/>
<path d="M411.633 286.328H384.461C383.226 286.328 382.225 287.329 382.225 288.562V288.562C382.225 289.796 383.226 290.796 384.461 290.796H411.633C412.868 290.796 413.869 289.796 413.869 288.562C413.869 287.329 412.868 286.328 411.633 286.328Z" fill="#535461"/>
<g opacity="0.7">
<path opacity="0.7" d="M470.429 236.521H411.193C405.832 236.521 401.486 240.863 401.486 246.218V281.154C401.486 286.51 405.832 290.852 411.193 290.852H470.429C475.79 290.852 480.135 286.51 480.135 281.154V246.218C480.135 240.863 475.79 236.521 470.429 236.521Z" fill="url(#paint3_linear)"/>
</g>
<path d="M468.163 237.523H412.119C407.021 237.523 402.889 241.652 402.889 246.745V281.63C402.889 286.723 407.021 290.852 412.119 290.852H468.163C473.26 290.852 477.393 286.723 477.393 281.63V246.745C477.393 241.652 473.26 237.523 468.163 237.523Z" fill="#3E3F49"/>
<path d="M469.195 237.523H413.151C408.053 237.523 403.921 241.652 403.921 246.745V281.63C403.921 286.723 408.053 290.852 413.151 290.852H469.195C474.292 290.852 478.425 286.723 478.425 281.63V246.745C478.425 241.652 474.292 237.523 469.195 237.523Z" fill="#535461"/>
<path d="M444.653 266.225C445.983 266.225 447.061 265.148 447.061 263.82C447.061 262.491 445.983 261.414 444.653 261.414C443.323 261.414 442.245 262.491 442.245 263.82C442.245 265.148 443.323 266.225 444.653 266.225Z" fill="#E0E0E0"/>
</g>
</g>
<ellipse rx="11.5646" ry="11.4334" transform="matrix(-1 0 0 1 461.512 66.3792)" fill="#4D80E4"/>
<rect x="-5" y="5" width="12.5362" height="12.8669" transform="matrix(-1 0 0 1 119.872 413.532)" stroke="#4D80E4" stroke-width="10"/>
<defs>
<filter id="filter0_d" x="145.283" y="100.426" width="472.481" height="411.052" filterUnits="userSpaceOnUse" color-interpolation-filters="sRGB">
<feFlood flood-opacity="0" result="BackgroundImageFix"/>
<feColorMatrix in="SourceAlpha" type="matrix" values="0 0 0 0 0 0 0 0 0 0 0 0 0 0 0 0 0 0 127 0"/>
<feOffset dx="8" dy="8"/>
<feGaussianBlur stdDeviation="20"/>
<feColorMatrix type="matrix" values="0 0 0 0 0 0 0 0 0 0 0 0 0 0 0 0 0 0 0.25 0"/>
<feBlend mode="normal" in2="BackgroundImageFix" result="effect1_dropShadow"/>
<feBlend mode="normal" in="SourceGraphic" in2="effect1_dropShadow" result="shape"/>
</filter>
<linearGradient id="paint0_linear" x1="498.007" y1="288.702" x2="498.007" y2="267.735" gradientUnits="userSpaceOnUse">
<stop stop-color="#808080" stop-opacity="0.25"/>
<stop offset="0.53514" stop-color="#808080" stop-opacity="0.12"/>
<stop offset="1" stop-color="#808080" stop-opacity="0.1"/>
</linearGradient>
<linearGradient id="paint1_linear" x1="61436.7" y1="212068" x2="61436.7" y2="19687.1" gradientUnits="userSpaceOnUse">
<stop stop-color="#808080" stop-opacity="0.25"/>
<stop offset="0.53514" stop-color="#808080" stop-opacity="0.12"/>
<stop offset="1" stop-color="#808080" stop-opacity="0.1"/>
</linearGradient>
<linearGradient id="paint2_linear" x1="1138.98" y1="816.017" x2="1138.98" y2="812.925" gradientUnits="userSpaceOnUse">
<stop stop-color="#808080" stop-opacity="0.25"/>
<stop offset="0.53514" stop-color="#808080" stop-opacity="0.12"/>
<stop offset="1" stop-color="#808080" stop-opacity="0.1"/>
</linearGradient>
<linearGradient id="paint3_linear" x1="51329.7" y1="18773" x2="51329.7" y2="10183.2" gradientUnits="userSpaceOnUse">
<stop stop-color="#808080" stop-opacity="0.25"/>
<stop offset="0.53514" stop-color="#808080" stop-opacity="0.12"/>
<stop offset="1" stop-color="#808080" stop-opacity="0.1"/>
</linearGradient>
<clipPath id="clip0">
<rect width="310.876" height="257.12" fill="white" transform="translate(218.086 173.608)"/>
</clipPath>
</defs>
</svg>
