<svg width="582" height="590" viewBox="0 0 582 590" fill="none" xmlns="http://www.w3.org/2000/svg">
<path d="M86.4723 229.673L122.561 172.92L41.7388 121.526L0 187.164L66.8504 229.673H86.4723Z" fill="white"/>
<path d="M137.614 247.377H48.22V229.382H137.614V247.377ZM49.3809 246.216H136.453V230.543H49.3809V246.216Z" fill="#3F3D56"/>
<path d="M126.701 244.209C129.907 244.209 132.506 241.61 132.506 238.404C132.506 235.198 129.907 232.6 126.701 232.6C123.496 232.6 120.897 235.198 120.897 238.404C120.897 241.61 123.496 244.209 126.701 244.209Z" fill="#46B3E6"/>
<path d="M110.331 244.185C113.537 244.185 116.136 241.586 116.136 238.38C116.136 235.174 113.537 232.575 110.331 232.575C107.125 232.575 104.526 235.174 104.526 238.38C104.526 241.586 107.125 244.185 110.331 244.185Z" fill="#46B3E6"/>
<path d="M94.0777 244.185C97.2836 244.185 99.8825 241.586 99.8825 238.38C99.8825 235.174 97.2836 232.575 94.0777 232.575C90.8718 232.575 88.2729 235.174 88.2729 238.38C88.2729 241.586 90.8718 244.185 94.0777 244.185Z" fill="#46B3E6"/>
<path d="M77.8243 244.185C81.0302 244.185 83.6291 241.586 83.6291 238.38C83.6291 235.174 81.0302 232.575 77.8243 232.575C74.6184 232.575 72.0195 235.174 72.0195 238.38C72.0195 241.586 74.6184 244.185 77.8243 244.185Z" fill="#46B3E6"/>
<path d="M61.5709 244.185C64.7768 244.185 67.3757 241.586 67.3757 238.38C67.3757 235.174 64.7768 232.575 61.5709 232.575C58.365 232.575 55.7661 235.174 55.7661 238.38C55.7661 241.586 58.365 244.185 61.5709 244.185Z" fill="#46B3E6"/>
<path d="M335.198 65.5942V21.4778H357.257V0H249.287V107.969H341.584V97.4129C341.584 95.4451 341.971 93.4965 342.724 91.6785C343.477 89.8604 344.581 88.2085 345.973 86.8171C347.364 85.4256 349.016 84.3218 350.834 83.5688C352.652 82.8157 354.601 82.4281 356.568 82.4281H357.257V65.5942H335.198Z" fill="white"/>
<path d="M581.059 588.489H37.0246V590H581.059V588.489Z" fill="#3B3850"/>
<path d="M372.038 28.4114H341.853V58.5964H372.038V28.4114Z" fill="white"/>
<path d="M184.651 127.513C183.082 127.513 181.548 127.048 180.243 126.176C178.938 125.304 177.921 124.065 177.321 122.616C176.72 121.166 176.563 119.571 176.869 118.032C177.175 116.493 177.931 115.079 179.041 113.969C180.15 112.86 181.564 112.104 183.103 111.798C184.642 111.492 186.237 111.649 187.687 112.25C189.137 112.85 190.376 113.867 191.248 115.172C192.119 116.476 192.585 118.01 192.585 119.579C192.582 121.683 191.746 123.7 190.258 125.187C188.771 126.674 186.754 127.511 184.651 127.513ZM184.651 112.968C183.343 112.968 182.065 113.356 180.978 114.082C179.89 114.809 179.043 115.841 178.543 117.049C178.042 118.257 177.911 119.587 178.166 120.869C178.421 122.152 179.051 123.33 179.976 124.255C180.9 125.179 182.078 125.809 183.361 126.064C184.643 126.319 185.973 126.188 187.181 125.688C188.389 125.187 189.422 124.34 190.148 123.253C190.875 122.165 191.262 120.887 191.262 119.579C191.26 117.827 190.563 116.146 189.324 114.907C188.084 113.667 186.404 112.97 184.651 112.968Z" fill="white"/>
<path d="M374.359 268.962H359.267V253.87H374.359V268.962ZM360.428 267.801H373.198V255.031H360.428V267.801Z" fill="white"/>
<path d="M123.239 91.1617H108.147V76.0692H123.239V91.1617ZM109.308 90.0008H122.078V77.2302H109.308V90.0008Z" fill="white"/>
<path d="M191.168 231.846L195.808 234.365L211.599 242.94L237.091 256.779L251.948 229.006C253.347 226.397 254.222 223.535 254.522 220.585C254.822 217.634 254.541 214.653 253.697 211.812C252.852 208.97 251.459 206.325 249.599 204.027C247.738 201.728 245.446 199.822 242.853 198.418C237.313 195.403 230.966 194.238 224.726 195.091C218.487 195.944 212.677 198.771 208.134 203.164L208.126 203.172C205.891 205.335 204.005 207.836 202.536 210.586L191.168 231.846Z" fill="#2F2E41"/>
<path d="M260.683 512.989L257.661 546.901L246.327 548.442L238.771 509.906L260.683 512.989Z" fill="#FFB8B8"/>
<path d="M243.155 548.621C243.155 548.621 257.927 540.865 261.037 547.069C261.037 547.069 258.704 565.682 268.034 568.009C277.364 570.335 281.251 586.621 268.034 588.172C254.817 589.723 246.264 585.07 241.6 585.07C236.935 585.07 241.6 568.784 241.6 568.784L243.155 548.621Z" fill="#2F2E41"/>
<path d="M166.988 512.989L170.116 546.901L181.84 548.442L189.657 509.906L166.988 512.989Z" fill="#FFB8B8"/>
<path d="M184.517 548.621C184.517 548.621 169.745 540.865 166.635 547.069C166.635 547.069 168.967 565.682 159.638 568.009C150.308 570.335 146.421 586.621 159.638 588.172C172.855 589.723 181.407 585.07 186.072 585.07C190.737 585.07 186.072 568.784 186.072 568.784L184.517 548.621Z" fill="#2F2E41"/>
<path d="M230.837 237.889C241.896 237.889 250.86 228.924 250.86 217.865C250.86 206.807 241.896 197.842 230.837 197.842C219.778 197.842 210.813 206.807 210.813 217.865C210.813 228.924 219.778 237.889 230.837 237.889Z" fill="#FFB8B8"/>
<path d="M166.233 257.383L182.578 283.198L202.036 281.634L233.947 283.981C233.947 283.981 236.96 277.926 239.419 272.035C240.766 269.094 241.801 266.018 242.509 262.859C243.287 257.383 232.391 251.907 232.391 251.907C232.391 251.907 231.963 251.829 231.247 251.657C230.297 251.43 228.834 251.055 227.23 250.507C223.611 249.271 219.26 247.175 218.381 244.085C216.824 238.609 228.499 230.786 228.499 230.786L214.489 217.487C214.489 217.487 202.044 234.862 186.929 238.82C186.052 239.053 185.164 239.236 184.267 239.368C184.22 239.375 184.181 239.383 184.134 239.391C167.789 241.738 166.233 257.383 166.233 257.383Z" fill="#FFB8B8"/>
<path d="M174.344 250.734L165.787 257.727C165.787 257.727 158.787 291.136 161.12 300.46C163.454 309.783 160.342 318.33 160.342 319.884C160.342 321.438 153.341 379.71 153.341 379.71C153.341 379.71 139.34 410.789 154.119 407.681C168.899 404.573 163.454 373.495 163.454 373.495L181.345 319.107V273.266L174.344 250.734Z" fill="#FFB8B8"/>
<path d="M235.869 256.779L242.155 261.449L245.298 326.837L268.87 382.883C268.87 382.883 286.156 410.128 275.155 410.907C264.155 411.685 257.084 382.883 257.084 382.883L235.869 329.172L232.726 277.018L235.869 256.779Z" fill="#FFB8B8"/>
<path d="M196.956 261.313C196.956 261.313 212.567 272.198 237.544 268.31C237.544 268.31 244.569 282.306 240.666 290.082C236.763 297.857 245.349 316.518 246.91 318.851C248.471 321.184 266.424 369.391 272.668 421.487C278.912 473.582 296.084 509.35 281.254 514.015C266.424 518.68 235.983 524.123 232.861 519.458C229.738 514.792 225.055 398.938 225.055 398.938L216.469 443.258C216.469 443.258 228.177 518.68 219.592 520.235C211.006 521.79 157.149 517.125 158.71 507.794C160.271 498.464 175.882 449.479 175.882 449.479C175.882 449.479 175.101 351.508 190.712 332.847C190.712 332.847 196.956 322.739 188.37 309.52C179.785 296.302 180.565 275.308 180.565 275.308C180.565 275.308 186.809 275.308 196.956 261.313Z" fill="#2F2E41"/>
<path d="M184.367 239.933L197.188 268.113L200.235 266.591L186.972 239.4L184.367 239.933Z" fill="#2F2E41"/>
<path d="M227.437 250.734L237.187 272.647L239.526 272.434L238.731 268.704L231.42 251.893C230.478 251.664 229.027 251.286 227.437 250.734Z" fill="#2F2E41"/>
<path d="M196.281 234.146C197.027 236.56 198.463 238.699 200.41 240.295C202.358 241.891 204.73 242.873 207.229 243.118C209.728 243.362 212.244 242.86 214.46 241.672C216.677 240.484 218.496 238.664 219.69 236.44C209.885 223.534 218.295 215.427 234.223 209.294C235.423 207.052 235.933 204.502 235.689 201.967C235.444 199.433 234.457 197.029 232.851 195.061C228.461 194.496 224 194.925 219.796 196.319C215.592 197.712 211.75 200.034 208.551 203.114L208.544 203.122L197.227 224.252C196.421 225.754 195.922 227.404 195.76 229.103C195.597 230.802 195.775 232.517 196.281 234.146Z" fill="#2F2E41"/>
<path d="M218.747 225.044C220.208 225.044 221.392 222.845 221.392 220.132C221.392 217.42 220.208 215.221 218.747 215.221C217.287 215.221 216.103 217.42 216.103 220.132C216.103 222.845 217.287 225.044 218.747 225.044Z" fill="#FFB8B8"/>
<path d="M226.681 212.381L250.308 222.777L254.638 213.496C253.892 210.104 252.33 206.931 250.08 204.238L233.818 197.086L226.681 212.381Z" fill="#2F2E41"/>
<path d="M314.847 432.354C318.053 432.354 320.651 429.756 320.651 426.55C320.651 423.344 318.053 420.745 314.847 420.745C311.641 420.745 309.042 423.344 309.042 426.55C309.042 429.756 311.641 432.354 314.847 432.354Z" fill="#46B3E6"/>
<path d="M39.2914 432.079C44.7164 432.079 49.1142 427.681 49.1142 422.256C49.1142 416.831 44.7164 412.433 39.2914 412.433C33.8663 412.433 29.4685 416.831 29.4685 422.256C29.4685 427.681 33.8663 432.079 39.2914 432.079Z" fill="#FF6584"/>
<path d="M89.1612 475.148H86.1388V588.489H89.1612V475.148Z" fill="#3F3D56"/>
<path d="M88.4056 490.26C97.1691 490.26 104.273 483.156 104.273 474.393C104.273 465.629 97.1691 458.525 88.4056 458.525C79.6421 458.525 72.5379 465.629 72.5379 474.393C72.5379 483.156 79.6421 490.26 88.4056 490.26Z" fill="#3F3D56"/>
<path d="M87.6501 545.419C87.6501 545.419 85.3305 494.66 37.7802 500.56L87.6501 545.419Z" fill="#3F3D56"/>
<path d="M513.318 215.377H324.36C322.68 215.377 321.068 214.681 319.88 213.442C318.692 212.203 318.025 210.523 318.025 208.771C386.522 200.471 453.731 200.471 519.654 208.771C519.654 210.523 518.986 212.203 517.798 213.442C516.61 214.681 514.998 215.377 513.318 215.377Z" fill="#2F2E41"/>
<path d="M519.654 208.961L318.025 208.588L341.393 169.216L341.504 169.029V82.2563C341.504 81.2031 341.712 80.1602 342.114 79.1871C342.516 78.214 343.106 77.3298 343.85 76.5851C344.594 75.8403 345.477 75.2496 346.449 74.8466C347.42 74.4436 348.462 74.2362 349.514 74.2363H487.047C488.098 74.2362 489.14 74.4436 490.112 74.8466C491.083 75.2496 491.966 75.8403 492.71 76.5851C493.454 77.3298 494.044 78.214 494.446 79.1871C494.849 80.1602 495.056 81.2031 495.056 82.2563V169.626L519.654 208.961Z" fill="#3F3D56"/>
<path d="M349.938 79.7352C349.253 79.736 348.595 80.0144 348.111 80.5093C347.626 81.0043 347.353 81.6753 347.352 82.3752V162.329C347.353 163.029 347.626 163.7 348.111 164.195C348.596 164.69 349.253 164.969 349.938 164.969H487.74C488.425 164.969 489.083 164.69 489.568 164.195C490.052 163.7 490.325 163.029 490.326 162.329V82.3752C490.325 81.6753 490.052 81.0043 489.568 80.5094C489.083 80.0145 488.425 79.736 487.74 79.7352H349.938Z" fill="white"/>
<path d="M349.273 175.051C349.058 175.051 348.849 175.111 348.668 175.223C348.488 175.336 348.345 175.496 348.255 175.684L341.04 190.921C340.961 191.087 340.927 191.269 340.94 191.451C340.953 191.633 341.013 191.809 341.114 191.963C341.215 192.117 341.355 192.243 341.52 192.331C341.684 192.418 341.869 192.464 342.057 192.464H493.788C493.979 192.464 494.167 192.417 494.334 192.327C494.501 192.236 494.641 192.106 494.741 191.948C494.842 191.79 494.899 191.61 494.907 191.425C494.916 191.24 494.876 191.055 494.79 190.889L486.947 175.653C486.855 175.471 486.712 175.319 486.535 175.213C486.358 175.106 486.154 175.05 485.946 175.051H349.273Z" fill="#2F2E41"/>
<path d="M403.439 196.13C403.193 196.131 402.954 196.206 402.758 196.343C402.563 196.481 402.422 196.674 402.358 196.893L400.548 203.08C400.503 203.232 400.497 203.393 400.531 203.548C400.564 203.703 400.636 203.849 400.74 203.975C400.845 204.101 400.979 204.202 401.134 204.272C401.288 204.342 401.458 204.379 401.63 204.379H436.049C436.228 204.379 436.404 204.34 436.562 204.264C436.721 204.189 436.858 204.08 436.962 203.946C437.065 203.812 437.132 203.657 437.158 203.494C437.183 203.332 437.166 203.166 437.107 203.011L434.781 196.824C434.704 196.622 434.561 196.446 434.372 196.322C434.182 196.197 433.955 196.13 433.722 196.13H403.439Z" fill="#2F2E41"/>
<path d="M494.908 167.719V169.552H340.937L341.053 169.323V167.719H494.908Z" fill="#2F2E41"/>
<path d="M490.784 106.314C505.21 106.314 516.904 94.6193 516.904 80.1935C516.904 65.7677 505.21 54.0733 490.784 54.0733C476.358 54.0733 464.664 65.7677 464.664 80.1935C464.664 94.6193 476.358 106.314 490.784 106.314Z" fill="#46B3E6"/>
<path d="M502.574 91.6497H480.828C480.43 91.6493 480.049 91.4875 479.768 91.1998C479.487 90.9121 479.328 90.522 479.328 90.1151V76.6874C479.328 76.2805 479.487 75.8904 479.768 75.6027C480.049 75.315 480.43 75.1532 480.828 75.1528H502.574C502.971 75.1532 503.353 75.315 503.634 75.6027C503.915 75.8904 504.073 76.2805 504.073 76.6874V90.1151C504.073 90.522 503.915 90.9121 503.634 91.1998C503.353 91.4875 502.971 91.6493 502.574 91.6497ZM480.828 76.6874V90.1151H502.575L502.574 76.6874L480.828 76.6874Z" fill="white"/>
<path d="M497.658 76.9858H484.827V70.8758C484.827 66.4503 487.525 63.2383 491.242 63.2383C494.96 63.2383 497.658 66.4503 497.658 70.8758L497.658 76.9858ZM486.253 75.4583H496.232V70.8758C496.232 67.2784 494.18 64.7658 491.242 64.7658C488.304 64.7658 486.253 67.2784 486.253 70.8758L486.253 75.4583Z" fill="white"/>
<path d="M490.784 85.2342C491.544 85.2342 492.159 84.4136 492.159 83.4012C492.159 82.3889 491.544 81.5683 490.784 81.5683C490.025 81.5683 489.41 82.3889 489.41 83.4012C489.41 84.4136 490.025 85.2342 490.784 85.2342Z" fill="white"/>
<path d="M472.765 137.475H365.83C365.305 137.474 364.801 137.261 364.43 136.881C364.059 136.502 363.85 135.987 363.849 135.451V108.338C363.85 107.801 364.059 107.287 364.43 106.907C364.801 106.528 365.305 106.314 365.83 106.314H472.765C473.29 106.314 473.794 106.528 474.165 106.907C474.536 107.287 474.745 107.801 474.746 108.338V135.451C474.745 135.987 474.536 136.502 474.165 136.881C473.794 137.261 473.29 137.474 472.765 137.475ZM365.83 107.123C365.515 107.124 365.213 107.252 364.99 107.479C364.767 107.707 364.642 108.016 364.641 108.338V135.451C364.642 135.773 364.767 136.081 364.99 136.309C365.213 136.537 365.515 136.665 365.83 136.665H472.765C473.08 136.665 473.382 136.537 473.605 136.309C473.828 136.081 473.953 135.773 473.953 135.451V108.338C473.953 108.016 473.828 107.707 473.605 107.479C473.382 107.252 473.08 107.124 472.765 107.123L365.83 107.123Z" fill="#E6E6E6"/>
<path d="M382.179 129.226C386.735 129.226 390.428 125.533 390.428 120.978C390.428 116.422 386.735 112.729 382.179 112.729C377.624 112.729 373.931 116.422 373.931 120.978C373.931 125.533 377.624 129.226 382.179 129.226Z" fill="#E6E6E6"/>
<path d="M400.938 116.395C400.761 116.395 400.586 116.419 400.423 116.464C400.26 116.51 400.112 116.578 399.987 116.663C399.862 116.748 399.763 116.849 399.695 116.961C399.628 117.072 399.593 117.191 399.593 117.312C399.593 117.432 399.628 117.551 399.695 117.663C399.763 117.774 399.862 117.875 399.987 117.96C400.112 118.045 400.26 118.113 400.423 118.159C400.586 118.205 400.761 118.228 400.938 118.228H464.238C464.594 118.228 464.935 118.132 465.187 117.96C465.439 117.788 465.581 117.555 465.581 117.312C465.581 117.069 465.439 116.835 465.187 116.664C464.935 116.492 464.594 116.395 464.238 116.395H400.938Z" fill="#E6E6E6"/>
<path d="M400.95 123.727C400.59 123.727 400.245 123.872 399.99 124.13C399.736 124.388 399.593 124.737 399.593 125.102C399.593 125.466 399.736 125.816 399.99 126.074C400.245 126.332 400.59 126.477 400.95 126.477H428.48C428.84 126.477 429.185 126.332 429.44 126.074C429.694 125.816 429.837 125.466 429.837 125.102C429.837 124.737 429.694 124.388 429.44 124.13C429.185 123.872 428.84 123.727 428.48 123.727H400.95Z" fill="#E6E6E6"/>
<path d="M506.338 530.122C504.873 526.61 504.712 522.689 505.884 519.069C507.057 515.448 509.485 512.366 512.731 510.38C513.812 509.723 512.824 508.02 511.738 508.68C508.015 510.904 505.236 514.415 503.927 518.549C502.619 522.684 502.872 527.155 504.638 531.115C505.135 532.277 506.831 531.275 506.338 530.122H506.338Z" fill="#3F3D56"/>
<path d="M506.901 532.769C504.246 528.066 504.871 522.436 505.826 517.35C506.823 512.04 508.13 506.648 506.999 501.247C506.486 498.625 505.272 496.191 503.486 494.204C502.626 493.27 501.237 494.665 502.094 495.596C505.433 499.223 505.821 504.484 505.279 509.157C504.64 514.668 502.83 520.038 503.054 525.638C503.113 528.479 503.849 531.264 505.201 533.763C505.338 533.979 505.553 534.134 505.801 534.194C506.049 534.255 506.311 534.217 506.531 534.088C506.752 533.959 506.914 533.749 506.983 533.503C507.052 533.257 507.022 532.994 506.901 532.77L506.901 532.769Z" fill="#3F3D56"/>
<path d="M521.151 547.791H487.685C486.902 547.79 486.151 547.478 485.598 546.925C485.044 546.371 484.733 545.621 484.732 544.838V535.008C484.735 532.482 485.74 530.06 487.526 528.274C489.312 526.488 491.734 525.483 494.26 525.48H499.168C499.429 525.48 499.679 525.376 499.864 525.192C500.048 525.007 500.152 524.757 500.153 524.496V519.902C500.153 519.468 500.326 519.051 500.634 518.743C500.941 518.436 501.358 518.263 501.793 518.262H507.043C507.477 518.263 507.894 518.436 508.202 518.743C508.51 519.051 508.683 519.468 508.683 519.902V524.496C508.683 524.757 508.787 525.007 508.972 525.192C509.156 525.376 509.406 525.48 509.667 525.48H514.576C517.102 525.483 519.524 526.488 521.31 528.274C523.096 530.06 524.101 532.482 524.104 535.008V544.838C524.103 545.621 523.791 546.371 523.238 546.925C522.684 547.478 521.934 547.79 521.151 547.791Z" fill="#CCCCCC"/>
<path d="M504.932 488.759C505.637 492.499 504.764 495.802 502.984 496.138C501.203 496.473 499.188 493.714 498.484 489.974C497.779 486.235 499.946 480.017 499.946 480.017C499.946 480.017 504.228 485.02 504.932 488.759Z" fill="#46B3E6"/>
<path d="M518.445 506.157C516.214 509.239 513.215 510.876 511.748 509.814C510.28 508.751 510.899 505.391 513.13 502.309C515.361 499.226 521.367 496.525 521.367 496.525C521.367 496.525 520.677 503.074 518.445 506.157Z" fill="#46B3E6"/>
<path d="M444.656 293.893C443.191 290.381 443.03 286.461 444.202 282.84C445.375 279.22 447.803 276.138 451.05 274.152C452.131 273.494 451.142 271.791 450.056 272.452C446.333 274.675 443.554 278.186 442.245 282.321C440.937 286.456 441.19 290.926 442.956 294.887C443.453 296.048 445.149 295.046 444.656 293.893H444.656Z" fill="#3F3D56"/>
<path d="M445.219 296.541C442.564 291.837 443.189 286.208 444.144 281.121C445.141 275.811 446.448 270.42 445.317 265.019C444.804 262.397 443.59 259.963 441.804 257.976C440.944 257.042 439.555 258.436 440.412 259.368C443.752 262.994 444.139 268.256 443.597 272.928C442.958 278.439 441.148 283.809 441.373 289.41C441.431 292.25 442.167 295.036 443.519 297.535C443.656 297.751 443.871 297.905 444.119 297.966C444.367 298.026 444.629 297.988 444.849 297.859C445.07 297.73 445.232 297.521 445.301 297.275C445.37 297.029 445.34 296.766 445.219 296.541L445.219 296.541Z" fill="#3F3D56"/>
<path d="M459.469 311.562H426.003C425.22 311.561 424.47 311.25 423.916 310.696C423.362 310.143 423.051 309.392 423.05 308.609V298.779C423.053 296.253 424.058 293.831 425.844 292.045C427.63 290.259 430.052 289.254 432.578 289.252H437.486C437.747 289.251 437.997 289.148 438.182 288.963C438.367 288.778 438.47 288.528 438.471 288.267V283.674C438.471 283.239 438.644 282.822 438.952 282.515C439.259 282.207 439.676 282.034 440.111 282.034H445.361C445.796 282.034 446.213 282.207 446.52 282.515C446.828 282.822 447.001 283.239 447.001 283.674V288.267C447.001 288.528 447.105 288.778 447.29 288.963C447.474 289.148 447.724 289.251 447.985 289.252H452.894C455.42 289.254 457.842 290.259 459.628 292.045C461.414 293.831 462.419 296.253 462.422 298.779V308.609C462.421 309.392 462.109 310.143 461.556 310.696C461.002 311.25 460.252 311.561 459.469 311.562Z" fill="#CCCCCC"/>
<path d="M443.25 252.531C443.955 256.27 443.082 259.574 441.302 259.909C439.521 260.245 437.506 257.485 436.802 253.746C436.097 250.007 438.264 243.788 438.264 243.788C438.264 243.788 442.545 248.792 443.25 252.531Z" fill="#4D80E4"/>
<path d="M456.764 269.928C454.532 273.01 451.534 274.648 450.066 273.585C448.598 272.523 449.217 269.163 451.448 266.08C453.68 262.998 459.685 260.297 459.685 260.297C459.685 260.297 458.995 266.846 456.764 269.928Z" fill="#4D80E4"/>
<path d="M378.101 412.943H351.197V422.786H378.101V412.943Z" fill="#46B3E6"/>
<path d="M378.101 445.097H351.197V454.94H378.101V445.097Z" fill="#46B3E6"/>
<path d="M552.648 310.219H330.855V311.531H552.648V310.219Z" fill="#3B3850"/>
<path d="M552.648 388.982H330.855V390.295H552.648V388.982Z" fill="#3B3850"/>
<path d="M552.648 467.746H330.855V469.058H552.648V467.746Z" fill="#3B3850"/>
<path d="M552.648 546.509H330.855V547.822H552.648V546.509Z" fill="#3B3850"/>
<path d="M376.133 469.376H353.822C352.952 469.375 352.118 469.029 351.503 468.414C350.888 467.799 350.542 466.965 350.541 466.095V402.444C350.542 401.575 350.888 400.741 351.503 400.126C352.118 399.51 352.952 399.164 353.822 399.163H376.133C377.002 399.164 377.836 399.51 378.451 400.126C379.067 400.741 379.413 401.575 379.414 402.444V466.095C379.413 466.965 379.067 467.799 378.451 468.414C377.836 469.029 377.002 469.375 376.133 469.376ZM353.822 400.476C353.3 400.476 352.8 400.684 352.431 401.053C352.062 401.422 351.854 401.922 351.854 402.444V466.095C351.854 466.617 352.062 467.117 352.431 467.486C352.8 467.855 353.3 468.063 353.822 468.063H376.133C376.654 468.063 377.155 467.855 377.524 467.486C377.893 467.117 378.101 466.617 378.101 466.095V402.444C378.101 401.922 377.893 401.422 377.524 401.053C377.155 400.684 376.654 400.476 376.133 400.476H353.822Z" fill="white"/>
<path d="M419.441 412.943H392.537V422.786H419.441V412.943Z" fill="#46B3E6"/>
<path d="M419.441 445.097H392.537V454.94H419.441V445.097Z" fill="#46B3E6"/>
<path d="M417.472 469.376H395.162C394.292 469.375 393.458 469.029 392.843 468.414C392.228 467.799 391.882 466.965 391.881 466.095V402.444C391.882 401.575 392.228 400.741 392.843 400.126C393.458 399.51 394.292 399.164 395.162 399.163H417.472C418.342 399.164 419.176 399.51 419.791 400.126C420.406 400.741 420.752 401.575 420.753 402.444V466.095C420.752 466.965 420.406 467.799 419.791 468.414C419.176 469.029 418.342 469.375 417.472 469.376ZM395.162 400.476C394.64 400.476 394.14 400.684 393.771 401.053C393.402 401.422 393.194 401.922 393.193 402.444V466.095C393.194 466.617 393.402 467.117 393.771 467.486C394.14 467.855 394.64 468.063 395.162 468.063H417.472C417.994 468.063 418.495 467.855 418.864 467.486C419.233 467.117 419.44 466.617 419.441 466.095V402.444C419.44 401.922 419.233 401.422 418.864 401.053C418.495 400.684 417.994 400.476 417.472 400.476H395.162Z" fill="white"/>
<path d="M485.06 333.544H458.156V343.387H485.06V333.544Z" fill="#46B3E6"/>
<path d="M485.06 365.698H458.156V375.541H485.06V365.698Z" fill="#46B3E6"/>
<path d="M483.092 389.977H460.781C459.911 389.976 459.077 389.63 458.462 389.015C457.847 388.4 457.501 387.566 457.5 386.696V323.045C457.501 322.176 457.847 321.342 458.462 320.727C459.077 320.111 459.911 319.765 460.781 319.764H483.092C483.962 319.765 484.795 320.111 485.411 320.727C486.026 321.342 486.372 322.176 486.373 323.045V386.696C486.372 387.566 486.026 388.4 485.411 389.015C484.795 389.63 483.962 389.976 483.092 389.977ZM460.781 321.077C460.259 321.077 459.759 321.285 459.39 321.654C459.021 322.023 458.813 322.523 458.813 323.045V386.696C458.813 387.218 459.021 387.718 459.39 388.087C459.759 388.456 460.259 388.664 460.781 388.664H483.092C483.614 388.664 484.114 388.456 484.483 388.087C484.852 387.718 485.06 387.218 485.06 386.696V323.045C485.06 322.523 484.852 322.023 484.483 321.654C484.114 321.285 483.614 321.077 483.092 321.077H460.781Z" fill="white"/>
<path d="M526.4 333.544H499.496V343.387H526.4V333.544Z" fill="#46B3E6"/>
<path d="M526.4 365.698H499.496V375.541H526.4V365.698Z" fill="#46B3E6"/>
<path d="M524.432 389.977H502.121C501.251 389.976 500.417 389.63 499.802 389.015C499.187 388.4 498.841 387.566 498.84 386.696V323.045C498.841 322.176 499.187 321.342 499.802 320.727C500.417 320.111 501.251 319.765 502.121 319.764H524.432C525.301 319.765 526.135 320.111 526.75 320.727C527.366 321.342 527.712 322.176 527.713 323.045V386.696C527.712 387.566 527.366 388.4 526.75 389.015C526.135 389.63 525.301 389.976 524.432 389.977ZM502.121 321.077C501.599 321.077 501.099 321.285 500.73 321.654C500.361 322.023 500.153 322.523 500.153 323.045V386.696C500.153 387.218 500.361 387.718 500.73 388.087C501.099 388.456 501.599 388.664 502.121 388.664H524.432C524.954 388.664 525.454 388.456 525.823 388.087C526.192 387.718 526.4 387.218 526.4 386.696V323.045C526.4 322.523 526.192 322.023 525.823 321.654C525.454 321.285 524.954 321.077 524.432 321.077H502.121Z" fill="white"/>
<path d="M452.441 407.065L427.256 416.529L430.719 425.743L455.903 416.279L452.441 407.065Z" fill="#46B3E6"/>
<path d="M463.751 437.164L438.566 446.627L442.029 455.841L467.213 446.378L463.751 437.164Z" fill="#46B3E6"/>
<path d="M448.408 468.643C447.741 468.641 447.09 468.437 446.542 468.057C445.993 467.677 445.574 467.138 445.339 466.514L422.949 406.931C422.644 406.117 422.675 405.214 423.034 404.422C423.394 403.63 424.052 403.013 424.866 402.706L445.751 394.858C446.154 394.707 446.584 394.636 447.014 394.65C447.445 394.665 447.869 394.764 448.261 394.942C448.653 395.12 449.007 395.373 449.301 395.688C449.595 396.003 449.825 396.372 449.976 396.776L472.366 456.358C472.671 457.173 472.64 458.075 472.281 458.867C471.921 459.659 471.263 460.277 470.449 460.584H470.449L449.564 468.431C449.195 468.571 448.803 468.642 448.408 468.643ZM446.906 395.96C446.669 395.96 446.434 396.003 446.213 396.087L425.328 403.935C424.84 404.119 424.444 404.489 424.229 404.964C424.013 405.44 423.995 405.981 424.178 406.47L446.567 466.053C446.658 466.295 446.796 466.516 446.972 466.705C447.149 466.894 447.361 467.046 447.596 467.153C447.832 467.26 448.086 467.319 448.344 467.328C448.603 467.336 448.86 467.294 449.102 467.203L469.987 459.355C470.475 459.171 470.871 458.801 471.086 458.325C471.302 457.85 471.32 457.309 471.137 456.82L448.748 397.237C448.607 396.863 448.355 396.54 448.026 396.312C447.697 396.083 447.307 395.961 446.906 395.96Z" fill="white"/>
<path d="M361.887 328.979L336.702 338.442L340.164 347.656L365.349 338.192L361.887 328.979Z" fill="#46B3E6"/>
<path d="M373.197 359.077L348.012 368.541L351.474 377.754L376.659 368.291L373.197 359.077Z" fill="#46B3E6"/>
<path d="M357.854 390.556C357.186 390.555 356.535 390.35 355.987 389.97C355.439 389.59 355.019 389.052 354.784 388.427L332.395 328.845C332.09 328.03 332.12 327.128 332.48 326.336C332.839 325.544 333.498 324.926 334.312 324.619L355.197 316.772C355.6 316.62 356.029 316.549 356.46 316.564C356.891 316.578 357.314 316.677 357.706 316.855C358.099 317.033 358.452 317.287 358.747 317.601C359.041 317.916 359.27 318.286 359.422 318.689L381.811 378.272C382.116 379.086 382.086 379.989 381.726 380.781C381.367 381.573 380.708 382.19 379.894 382.497H379.894L359.009 390.345C358.64 390.484 358.249 390.556 357.854 390.556ZM356.352 317.873C356.115 317.874 355.88 317.917 355.658 318L334.774 325.848C334.285 326.032 333.89 326.403 333.674 326.878C333.459 327.353 333.44 327.895 333.623 328.383L356.013 387.966C356.104 388.208 356.241 388.43 356.418 388.618C356.594 388.807 356.807 388.959 357.042 389.066C357.277 389.173 357.532 389.232 357.79 389.241C358.048 389.249 358.306 389.207 358.548 389.116L379.432 381.268C379.921 381.084 380.316 380.714 380.532 380.239C380.747 379.763 380.766 379.222 380.583 378.733L358.193 319.151C358.052 318.776 357.801 318.453 357.472 318.225C357.143 317.997 356.752 317.874 356.352 317.873Z" fill="white"/>
<path d="M126.479 435.576L158.548 397.73L139.089 374.118C138.803 373.772 138.444 373.493 138.038 373.302C137.632 373.111 137.189 373.013 136.74 373.014C136.291 373.016 135.849 373.117 135.444 373.31C135.039 373.503 134.682 373.784 134.398 374.132L104.953 410.269L126.479 435.576Z" fill="white"/>
<path d="M157.254 398.011C156.781 397.16 156.195 396.378 155.512 395.685L136.938 376.854C136.21 376.113 135.229 375.672 134.191 375.621C132.069 375.521 128.588 375.735 127.618 378.064L152.695 398.581L157.254 398.011Z" fill="#46B3E6"/>
<path d="M125.365 443.585C126.795 443.542 128.185 443.102 129.379 442.313L129.467 442.222L158.838 397.302L153.965 396.831L127.845 376.457C127.515 376.2 127.135 376.014 126.73 375.91C126.325 375.807 125.903 375.788 125.49 375.855C125.077 375.923 124.683 376.075 124.332 376.302C123.981 376.53 123.681 376.827 123.45 377.176L94.898 420.391C94.4599 421.058 94.3018 421.871 94.4578 422.654C94.6139 423.437 95.0716 424.127 95.7321 424.575L123.361 443.206C123.998 443.459 124.679 443.588 125.365 443.585Z" fill="white"/>
<path d="M135.752 412.857C136.029 412.857 136.301 412.79 136.545 412.66C136.789 412.531 136.998 412.343 137.152 412.114L140.526 407.102C140.775 406.731 140.867 406.277 140.781 405.838C140.696 405.4 140.44 405.013 140.07 404.763L122.759 393.11C122.389 392.861 121.934 392.77 121.496 392.855C121.058 392.941 120.671 393.197 120.421 393.567L117.047 398.578C116.798 398.949 116.707 399.404 116.792 399.842C116.878 400.28 117.134 400.667 117.504 400.917L134.814 412.57C135.091 412.757 135.418 412.857 135.752 412.857Z" fill="#3F3D56"/>
</svg>
