<svg width="78" height="34" viewBox="0 0 78 34" fill="none" xmlns="http://www.w3.org/2000/svg">
<path d="M8.91327 21.556C7.35327 21.556 5.94927 21.2208 4.70127 20.5506C3.46745 19.8657 2.49599 18.9186 1.7869 17.7091C1.07781 16.4997 0.723267 15.13 0.723267 13.6C0.723267 12.07 1.07781 10.7003 1.7869 9.49084C2.49599 8.28141 3.46745 7.34155 4.70127 6.67127C5.94927 5.98641 7.35327 5.64398 8.91327 5.64398C10.2747 5.64398 11.5014 5.8917 12.5934 6.38713C13.6854 6.88255 14.5931 7.59655 15.3164 8.52913L12.636 11.0208C11.6716 9.82598 10.5016 9.22855 9.12599 9.22855C8.31763 9.22855 7.59436 9.4107 6.95618 9.77498C6.33218 10.1393 5.8429 10.6566 5.48836 11.3268C5.14799 11.9826 4.97781 12.7403 4.97781 13.6C4.97781 14.4597 5.14799 15.2247 5.48836 15.895C5.8429 16.5507 6.33218 17.0607 6.95618 17.425C7.59436 17.7893 8.31763 17.9714 9.12599 17.9714C10.5016 17.9714 11.6716 17.374 12.636 16.1791L15.3164 18.6708C14.5931 19.6034 13.6854 20.3174 12.5934 20.8128C11.5014 21.3083 10.2747 21.556 8.91327 21.556ZM36.8936 9.2067C38.3259 9.2067 39.4747 9.64384 40.3398 10.5181C41.219 11.3924 41.6587 12.7111 41.6587 14.4743V21.25H37.6169V15.1518C37.6169 13.5344 36.9858 12.7257 35.7236 12.7257C35.0287 12.7257 34.4685 12.9588 34.043 13.4251C33.6318 13.8914 33.4261 14.5908 33.4261 15.5234V21.25H29.3843V9.40341H33.2347V10.693C33.6885 10.2121 34.2274 9.84784 34.8514 9.60013C35.4754 9.33784 36.1561 9.2067 36.8936 9.2067ZM44.1963 5.03198H48.2381V21.25H44.1963V5.03198ZM55.7787 9.2067C57.6933 9.2067 59.1541 9.65841 60.161 10.5618C61.1679 11.4507 61.6714 12.8204 61.6714 14.671V21.25H57.906V19.72C57.3246 20.8711 56.19 21.4467 54.5024 21.4467C53.6089 21.4467 52.836 21.2864 52.1837 20.9658C51.5313 20.6453 51.0349 20.2154 50.6946 19.6763C50.3684 19.1226 50.2053 18.496 50.2053 17.7966C50.2053 16.6746 50.6237 15.8076 51.4604 15.1956C52.2971 14.569 53.5877 14.2557 55.332 14.2557H57.6295C57.5586 13.0026 56.7431 12.376 55.1831 12.376C54.63 12.376 54.0698 12.4707 53.5026 12.6601C52.9353 12.835 52.4531 13.0827 52.056 13.4033L50.6946 10.5837C51.3327 10.1466 52.1057 9.81141 53.0133 9.57827C53.9351 9.33055 54.8569 9.2067 55.7787 9.2067ZM55.6298 18.8238C56.0978 18.8238 56.5091 18.7073 56.8637 18.4741C57.2182 18.241 57.4735 17.8986 57.6295 17.4468V16.4196H55.8851C54.708 16.4196 54.1195 16.8203 54.1195 17.6217C54.1195 17.986 54.2542 18.2774 54.5237 18.496C54.7931 18.7146 55.1618 18.8238 55.6298 18.8238ZM71.4764 9.2067C72.5258 9.2067 73.476 9.45441 74.3269 9.94984C75.192 10.4453 75.8727 11.1593 76.3691 12.0918C76.8796 13.0098 77.1349 14.0808 77.1349 15.3048C77.1349 16.5288 76.8796 17.6071 76.3691 18.5397C75.8727 19.4723 75.192 20.1936 74.3269 20.7036C73.476 21.199 72.5258 21.4467 71.4764 21.4467C69.9589 21.4467 68.8244 20.9877 68.0727 20.0697V21.25H64.2224V5.03198H68.2642V10.4307C69.0442 9.6147 70.1149 9.2067 71.4764 9.2067ZM70.6255 18.1463C71.3345 18.1463 71.916 17.8986 72.3698 17.4031C72.8236 16.8931 73.0505 16.1937 73.0505 15.3048C73.0505 14.4306 72.8236 13.7457 72.3698 13.2503C71.916 12.7548 71.3345 12.5071 70.6255 12.5071C69.9164 12.5071 69.3349 12.7548 68.8811 13.2503C68.4273 13.7457 68.2004 14.4306 68.2004 15.3048C68.2004 16.1937 68.4273 16.8931 68.8811 17.4031C69.3349 17.8986 69.9164 18.1463 70.6255 18.1463Z" fill="#4D80E4"/>
<path d="M22.1591 20.6429C24.9331 20.6429 27.1818 18.3324 27.1818 15.4822C27.1818 12.632 24.9331 10.3215 22.1591 10.3215C19.3851 10.3215 17.1364 12.632 17.1364 15.4822C17.1364 18.3324 19.3851 20.6429 22.1591 20.6429Z" stroke="#4D80E4" stroke-width="2"/>
<path d="M21.4351 13.8499L19.9348 15.3913L21.4351 16.9327" stroke="#4D80E4"/>
<path d="M23.0951 16.9327L24.5953 15.3913L23.0951 13.8499" stroke="#4D80E4"/>
</svg>
