<svg width="665" height="432" viewBox="0 0 665 432" fill="none" xmlns="http://www.w3.org/2000/svg">
<path d="M664.862 117.091H398.057V287.965H664.862V117.091Z" fill="#E6E6E6"/>
<path d="M658.106 138.522H406.559V277.855H658.106V138.522Z" fill="white"/>
<path d="M664.747 116.939H397.942V128.274H664.747V116.939Z" fill="#4D80E4"/>
<path d="M406.366 124.835C407.527 124.835 408.467 123.895 408.467 122.734C408.467 121.574 407.527 120.633 406.366 120.633C405.206 120.633 404.265 121.574 404.265 122.734C404.265 123.895 405.206 124.835 406.366 124.835Z" fill="white"/>
<path d="M414.34 124.835C415.501 124.835 416.441 123.895 416.441 122.734C416.441 121.574 415.501 120.633 414.34 120.633C413.18 120.633 412.239 121.574 412.239 122.734C412.239 123.895 413.18 124.835 414.34 124.835Z" fill="white"/>
<path d="M422.314 124.835C423.475 124.835 424.415 123.895 424.415 122.734C424.415 121.574 423.475 120.633 422.314 120.633C421.154 120.633 420.213 121.574 420.213 122.734C420.213 123.895 421.154 124.835 422.314 124.835Z" fill="white"/>
<path d="M450.567 158.051L433.928 174.482L450.567 190.913L454.311 187.169L441.729 174.586L454.416 161.899L450.567 158.051Z" fill="#4D80E4"/>
<path d="M464.201 158.051L480.84 174.482L464.201 190.913L460.457 187.169L473.04 174.586L460.352 161.899L464.201 158.051Z" fill="#4D80E4"/>
<path d="M518.021 162.174C516.66 162.174 515.557 162.957 515.557 163.922C515.557 164.888 516.66 165.67 518.021 165.67H634.181C635.542 165.67 636.645 164.888 636.645 163.922C636.645 162.957 635.542 162.174 634.181 162.174H518.021Z" fill="#E6E6E6"/>
<path d="M633.026 257.942H437.616C435.619 257.942 434 256.789 433.998 255.367V220.878C434 219.457 435.619 218.304 437.616 218.304H633.026C635.023 218.304 636.642 219.457 636.645 220.878V255.367C636.643 256.788 635.023 257.94 633.026 257.942ZM437.616 219.333C436.417 219.333 435.446 220.025 435.445 220.877V255.366C435.445 256.219 436.417 256.91 437.616 256.911H633.026C634.225 256.911 635.196 256.219 635.197 255.366V220.878C635.197 220.026 634.225 219.334 633.026 219.334L437.616 219.333Z" fill="#E6E6E6"/>
<path d="M457.738 246.852C462.567 246.852 466.481 242.938 466.481 238.109C466.481 233.281 462.567 229.367 457.738 229.367C452.91 229.367 448.996 233.281 448.996 238.109C448.996 242.938 452.91 246.852 457.738 246.852Z" fill="#E6E6E6"/>
<path d="M482.396 231.117C481.933 231.116 481.488 231.3 481.16 231.627C480.832 231.954 480.647 232.399 480.646 232.862C480.646 233.326 480.829 233.771 481.157 234.099C481.484 234.427 481.928 234.612 482.392 234.613H564.804C565.268 234.613 565.712 234.428 566.04 234.101C566.368 233.773 566.552 233.328 566.552 232.865C566.552 232.401 566.368 231.956 566.04 231.629C565.712 231.301 565.268 231.117 564.804 231.117H482.396Z" fill="#4D80E4"/>
<path d="M482.396 241.605C482.167 241.604 481.94 241.649 481.727 241.737C481.515 241.824 481.322 241.953 481.16 242.115C480.832 242.442 480.647 242.887 480.646 243.35C480.646 243.814 480.829 244.259 481.157 244.587C481.484 244.915 481.928 245.1 482.392 245.101H517.856C518.32 245.101 518.765 244.918 519.093 244.59C519.421 244.263 519.606 243.818 519.606 243.355C519.607 242.891 519.423 242.446 519.096 242.118C518.769 241.79 518.324 241.605 517.861 241.605H482.396Z" fill="#4D80E4"/>
<path d="M517.172 172.647C516.733 172.683 516.323 172.882 516.024 173.206C515.726 173.53 515.56 173.954 515.56 174.395C515.56 174.836 515.726 175.26 516.024 175.584C516.323 175.908 516.733 176.108 517.172 176.143H593.301C593.74 176.108 594.15 175.908 594.449 175.584C594.748 175.26 594.913 174.836 594.913 174.395C594.913 173.954 594.748 173.53 594.449 173.206C594.15 172.882 593.74 172.683 593.301 172.647H517.172Z" fill="#E6E6E6"/>
<path d="M517.673 183.118C516.504 183.118 515.557 183.901 515.557 184.866C515.557 185.832 516.504 186.614 517.673 186.614H617.464C618.633 186.614 619.581 185.832 619.581 184.866C619.581 183.901 618.633 183.118 617.464 183.118H517.673Z" fill="#E6E6E6"/>
<path d="M276.609 250.641C285.38 250.641 292.49 243.531 292.49 234.76C292.49 225.989 285.38 218.879 276.609 218.879C267.838 218.879 260.728 225.989 260.728 234.76C260.728 243.531 267.838 250.641 276.609 250.641Z" fill="#2F2E41"/>
<path d="M281.034 219.316C283.782 219.316 286.483 220.03 288.873 221.386C291.263 222.743 293.261 224.697 294.669 227.057C296.078 229.417 296.85 232.102 296.911 234.85C296.971 237.598 296.318 240.314 295.014 242.734C296.391 241.011 297.393 239.02 297.958 236.889C298.523 234.757 298.638 232.531 298.295 230.353C297.953 228.174 297.16 226.091 295.967 224.236C294.775 222.381 293.209 220.794 291.37 219.578C289.53 218.361 287.458 217.541 285.284 217.17C283.11 216.799 280.883 216.885 278.744 217.422C276.605 217.959 274.602 218.936 272.861 220.29C271.121 221.644 269.681 223.346 268.635 225.288C270.12 223.424 272.005 221.919 274.152 220.885C276.299 219.851 278.651 219.315 281.034 219.316Z" fill="#2F2E41"/>
<path d="M246.933 234.726C272.698 234.726 293.584 213.84 293.584 188.075C293.584 162.311 272.698 141.425 246.933 141.425C221.169 141.425 200.283 162.311 200.283 188.075C200.283 213.84 221.169 234.726 246.933 234.726Z" fill="#2F2E41"/>
<path d="M210.321 159.131C218.359 150.091 229.595 144.527 241.658 143.615C253.72 142.702 265.665 146.512 274.972 154.24C274.591 153.877 274.213 153.511 273.817 153.159C264.57 144.942 252.437 140.735 240.088 141.462C227.739 142.189 216.184 147.791 207.965 157.037C199.746 166.282 195.536 178.414 196.26 190.763C196.984 203.112 202.584 214.668 211.828 222.889C212.224 223.242 212.631 223.574 213.036 223.91C204.271 215.573 199.089 204.156 198.582 192.069C198.076 179.983 202.285 168.173 210.321 159.131Z" fill="#2F2E41"/>
<path d="M246.538 234.33C263.132 234.33 276.584 220.878 276.584 204.285C276.584 187.691 263.132 174.239 246.538 174.239C229.944 174.239 216.492 187.691 216.492 204.285C216.492 220.878 229.944 234.33 246.538 234.33Z" fill="#FFB8B8"/>
<path d="M225.189 213.773C225.189 213.773 229.143 250.144 222.817 254.097C216.492 258.051 259.189 263.586 259.189 263.586C259.189 263.586 252.863 224.052 268.677 213.773H225.189Z" fill="#FFB8B8"/>
<path d="M263.142 247.773C263.142 247.773 274.916 242.275 257.96 244.234C241.003 246.192 226.374 238.68 226.374 238.68C226.374 238.68 221.236 233.541 220.446 239.076C219.655 244.611 222.818 254.889 205.423 256.471C188.028 258.052 172.214 253.308 165.889 265.168C159.563 277.029 162.726 328.423 162.726 328.423C162.726 328.423 174.586 371.12 184.074 377.445C193.562 383.771 276.584 375.073 276.584 375.073L300.305 332.376V282.563C300.305 282.563 297.142 265.168 275.003 269.912C275.003 269.912 260.77 266.75 261.561 259.634C262.352 252.517 263.142 247.773 263.142 247.773Z" fill="#D0CDE1"/>
<path d="M187.212 407.661C187.701 405.532 188.028 404.328 188.028 404.328L187.775 402.595L185.17 384.906L184.075 377.445C193.561 373.491 195.934 355.305 195.934 355.305L196.292 355.091L197.911 354.122V354.118L203.723 350.632L203.841 350.562L206.188 352.124L210.958 355.305C227.643 367.575 244.634 367.357 255.12 365.424C261.529 364.241 265.513 362.421 265.513 362.421L277.015 358.586L277.373 358.468L277.726 358.521L284.472 359.542L284.594 359.563L285.153 359.646L283.591 370.446L281.326 386.141C287.308 389.309 292.627 395.26 297.279 402.595C298.309 404.219 299.306 405.907 300.272 407.661C301.529 409.93 302.729 412.291 303.872 414.708C304.012 414.996 304.147 415.289 304.282 415.581C304.723 416.528 305.159 417.483 305.582 418.443H185.117C185.275 417.479 185.432 416.558 185.584 415.672C185.592 415.642 185.598 415.612 185.602 415.581C185.659 415.284 185.711 414.996 185.759 414.708C186.291 411.828 186.806 409.424 187.212 407.661Z" fill="#2F2E41"/>
<path d="M182.493 255.68C182.493 255.68 191.19 271.494 188.027 291.261C184.865 311.028 197.516 360.05 197.516 360.05L207.004 357.678C207.004 357.678 200.678 316.563 202.26 307.074C203.841 297.586 203.841 260.424 195.934 255.68C188.027 250.936 182.493 255.68 182.493 255.68Z" fill="#2F2E41"/>
<path d="M274.447 272.114L277.77 359.655L284.096 363.609C284.096 363.609 293.188 267.541 288.444 267.541H278.791C278.201 267.541 277.617 267.661 277.075 267.893C276.533 268.126 276.044 268.467 275.637 268.895C275.231 269.322 274.916 269.828 274.711 270.382C274.506 270.935 274.416 271.525 274.447 272.114Z" fill="#2F2E41"/>
<path d="M201.864 358.075C204.048 358.075 205.818 356.305 205.818 354.121C205.818 351.938 204.048 350.168 201.864 350.168C199.681 350.168 197.911 351.938 197.911 354.121C197.911 356.305 199.681 358.075 201.864 358.075Z" fill="#4D80E4"/>
<path d="M280.933 362.026C283.116 362.026 284.886 360.256 284.886 358.073C284.886 355.889 283.116 354.119 280.933 354.119C278.75 354.119 276.98 355.889 276.98 358.073C276.98 360.256 278.75 362.026 280.933 362.026Z" fill="#4D80E4"/>
<path d="M220.841 166.727V196.773H227.799L236.654 187.285L235.468 196.773H266.226L264.328 187.285L268.123 196.773H273.026V166.727H220.841Z" fill="#2F2E41"/>
<path d="M216.096 202.308C217.406 202.308 218.468 200.361 218.468 197.96C218.468 195.558 217.406 193.611 216.096 193.611C214.786 193.611 213.724 195.558 213.724 197.96C213.724 200.361 214.786 202.308 216.096 202.308Z" fill="#FFB8B8"/>
<path d="M276.979 202.308C278.289 202.308 279.351 200.361 279.351 197.96C279.351 195.558 278.289 193.611 276.979 193.611C275.669 193.611 274.607 195.558 274.607 197.96C274.607 200.361 275.669 202.308 276.979 202.308Z" fill="#FFB8B8"/>
<path d="M293.188 357.678C293.188 357.678 257.212 350.957 254.84 362.817C252.468 374.677 294.77 369.538 294.77 369.538L293.188 357.678Z" fill="#FFB8B8"/>
<path d="M292.397 276.238C292.397 276.238 378.582 345.027 362.768 361.631C346.955 378.236 286.863 373.492 286.863 373.492L290.816 353.725L325.606 349.771L308.211 332.376L292.397 333.958V276.238Z" fill="#D0CDE1"/>
<path d="M165.098 390.886L176.168 399.583C176.168 399.583 184.074 424.094 195.935 416.978C207.795 409.862 184.865 384.56 184.865 384.56L171.423 379.816L165.098 390.886Z" fill="#FFB8B8"/>
<path d="M176.167 263.586L165.128 266.908C165.128 266.908 88.4015 323.678 85.2388 339.492C82.0761 355.305 100.262 364.003 100.262 364.003L169.051 396.421L176.167 377.444L143.749 360.84C143.749 360.84 146.121 356.096 136.633 355.305C127.145 354.515 125.564 344.236 125.564 344.236C125.564 344.236 144.54 314.981 154.819 321.306C165.098 327.631 168.26 332.376 168.26 332.376L176.167 263.586Z" fill="#D0CDE1"/>
<path d="M333.626 410.37V413.018C333.628 413.745 333.493 414.466 333.229 415.143C333.112 415.445 332.97 415.737 332.806 416.016C332.286 416.889 331.548 417.612 330.664 418.113C329.781 418.615 328.782 418.879 327.766 418.878H132.918C131.902 418.879 130.903 418.615 130.02 418.113C129.136 417.612 128.398 416.889 127.878 416.016C127.714 415.737 127.572 415.445 127.455 415.143C127.191 414.466 127.057 413.745 127.058 413.018V410.37C127.058 409.6 127.209 408.838 127.504 408.127C127.798 407.416 128.23 406.77 128.774 406.226C129.318 405.681 129.964 405.25 130.675 404.955C131.386 404.661 132.149 404.509 132.918 404.51H144.15V403.275C144.15 403.243 144.156 403.211 144.168 403.181C144.18 403.152 144.198 403.125 144.221 403.102C144.244 403.079 144.271 403.061 144.3 403.049C144.33 403.037 144.362 403.03 144.394 403.03H150.254C150.286 403.03 150.318 403.037 150.348 403.049C150.377 403.061 150.404 403.079 150.427 403.102C150.45 403.125 150.468 403.152 150.48 403.181C150.492 403.211 150.498 403.243 150.498 403.275V404.51H154.159V403.275C154.159 403.243 154.165 403.211 154.178 403.181C154.19 403.152 154.208 403.125 154.231 403.102C154.253 403.079 154.28 403.061 154.31 403.049C154.34 403.037 154.371 403.03 154.404 403.03H160.264C160.296 403.03 160.328 403.037 160.357 403.049C160.387 403.061 160.414 403.079 160.437 403.102C160.459 403.125 160.477 403.152 160.489 403.181C160.502 403.211 160.508 403.243 160.508 403.275V404.51H164.173V403.275C164.173 403.243 164.179 403.211 164.192 403.181C164.204 403.152 164.222 403.125 164.245 403.102C164.267 403.079 164.294 403.061 164.324 403.049C164.354 403.037 164.385 403.03 164.418 403.03H170.278C170.31 403.03 170.342 403.037 170.371 403.049C170.401 403.061 170.428 403.079 170.451 403.102C170.473 403.125 170.491 403.152 170.503 403.181C170.516 403.211 170.522 403.243 170.522 403.275V404.51H174.183V403.275C174.183 403.243 174.189 403.211 174.201 403.181C174.214 403.152 174.232 403.125 174.254 403.102C174.277 403.079 174.304 403.061 174.334 403.049C174.363 403.037 174.395 403.03 174.427 403.03H180.287C180.319 403.03 180.351 403.037 180.381 403.049C180.411 403.061 180.437 403.079 180.46 403.102C180.483 403.125 180.501 403.152 180.513 403.181C180.525 403.211 180.532 403.243 180.532 403.275V404.51H184.193V403.275C184.192 403.243 184.199 403.211 184.211 403.181C184.223 403.152 184.241 403.125 184.264 403.102C184.287 403.079 184.314 403.061 184.343 403.049C184.373 403.037 184.405 403.03 184.437 403.03H190.297C190.329 403.03 190.361 403.037 190.391 403.049C190.42 403.061 190.447 403.079 190.47 403.102C190.493 403.125 190.511 403.152 190.523 403.181C190.535 403.211 190.541 403.243 190.541 403.275V404.51H194.207V403.275C194.206 403.243 194.213 403.211 194.225 403.181C194.237 403.152 194.255 403.125 194.278 403.102C194.301 403.079 194.328 403.061 194.357 403.049C194.387 403.037 194.419 403.03 194.451 403.03H200.311C200.343 403.03 200.375 403.037 200.405 403.049C200.434 403.061 200.461 403.079 200.484 403.102C200.507 403.125 200.525 403.152 200.537 403.181C200.549 403.211 200.555 403.243 200.555 403.275V404.51H204.216V403.275C204.216 403.243 204.222 403.211 204.235 403.181C204.247 403.152 204.265 403.125 204.288 403.102C204.31 403.079 204.337 403.061 204.367 403.049C204.397 403.037 204.428 403.03 204.461 403.03H250.364C250.396 403.03 250.427 403.037 250.457 403.049C250.487 403.061 250.514 403.079 250.536 403.102C250.559 403.125 250.577 403.152 250.589 403.181C250.602 403.211 250.608 403.243 250.608 403.275V404.51H254.273V403.275C254.273 403.243 254.279 403.211 254.292 403.181C254.304 403.152 254.322 403.125 254.345 403.102C254.367 403.079 254.394 403.061 254.424 403.049C254.454 403.037 254.485 403.03 254.518 403.03H260.378C260.442 403.031 260.504 403.057 260.55 403.103C260.595 403.148 260.621 403.21 260.622 403.275V404.51H264.283V403.275C264.283 403.243 264.289 403.211 264.301 403.181C264.314 403.152 264.332 403.125 264.354 403.102C264.377 403.079 264.404 403.061 264.434 403.049C264.463 403.037 264.495 403.03 264.527 403.03H270.387C270.419 403.03 270.451 403.037 270.481 403.049C270.51 403.061 270.537 403.079 270.56 403.102C270.583 403.125 270.601 403.152 270.613 403.181C270.625 403.211 270.632 403.243 270.632 403.275V404.51H274.292V403.275C274.292 403.243 274.299 403.211 274.311 403.181C274.323 403.152 274.341 403.125 274.364 403.102C274.387 403.079 274.414 403.061 274.443 403.049C274.473 403.037 274.505 403.03 274.537 403.03H280.397C280.429 403.03 280.461 403.037 280.49 403.049C280.52 403.061 280.547 403.079 280.57 403.102C280.592 403.125 280.61 403.152 280.623 403.181C280.635 403.211 280.641 403.243 280.641 403.275V404.51H284.306V403.275C284.306 403.243 284.313 403.211 284.325 403.181C284.337 403.152 284.355 403.125 284.378 403.102C284.401 403.079 284.428 403.061 284.457 403.049C284.487 403.037 284.519 403.03 284.551 403.03H290.411C290.475 403.031 290.536 403.057 290.581 403.103C290.626 403.149 290.651 403.211 290.651 403.275V404.51H294.316V403.275C294.316 403.243 294.322 403.211 294.335 403.181C294.347 403.152 294.365 403.125 294.388 403.102C294.41 403.079 294.437 403.061 294.467 403.049C294.497 403.037 294.528 403.03 294.56 403.03H300.421C300.453 403.03 300.484 403.037 300.514 403.049C300.544 403.061 300.571 403.079 300.593 403.102C300.616 403.125 300.634 403.152 300.646 403.181C300.659 403.211 300.665 403.243 300.665 403.275V404.51H304.326V403.275C304.326 403.243 304.332 403.211 304.344 403.181C304.357 403.152 304.375 403.125 304.397 403.102C304.42 403.079 304.447 403.061 304.477 403.049C304.506 403.037 304.538 403.03 304.57 403.03H310.43C310.462 403.03 310.494 403.037 310.524 403.049C310.553 403.061 310.58 403.079 310.603 403.102C310.626 403.125 310.644 403.152 310.656 403.181C310.668 403.211 310.675 403.243 310.675 403.275V404.51H327.766C328.536 404.509 329.298 404.661 330.009 404.955C330.72 405.25 331.366 405.681 331.91 406.226C332.454 406.77 332.886 407.416 333.18 408.127C333.475 408.838 333.626 409.6 333.626 410.37Z" fill="#3F3D56"/>
<path d="M390.284 415.142H70.4466V416.015H390.284V415.142Z" fill="#3F3D56"/>
<path d="M317.936 298.828H245.31V297.331H212.379V298.828H139.454C138.151 298.828 136.902 299.345 135.98 300.267C135.059 301.188 134.541 302.438 134.541 303.74V403.187C134.541 404.49 135.059 405.74 135.98 406.661C136.902 407.582 138.151 408.1 139.454 408.1H317.936C319.239 408.1 320.489 407.582 321.41 406.661C322.331 405.74 322.849 404.49 322.849 403.187V303.74C322.849 303.095 322.722 302.456 322.475 301.86C322.228 301.264 321.866 300.723 321.41 300.267C320.954 299.811 320.412 299.449 319.816 299.202C319.22 298.955 318.581 298.828 317.936 298.828Z" fill="#3F3D56"/>
<path d="M228.838 344.454C234.862 344.454 239.746 339.57 239.746 333.545C239.746 327.521 234.862 322.637 228.838 322.637C222.813 322.637 217.929 327.521 217.929 333.545C217.929 339.57 222.813 344.454 228.838 344.454Z" stroke="#D0CDE1" stroke-width="2" stroke-miterlimit="10"/>
<path d="M225.347 348.381C231.371 348.381 236.255 343.497 236.255 337.473C236.255 331.448 231.371 326.564 225.347 326.564C219.322 326.564 214.438 331.448 214.438 337.473C214.438 343.497 219.322 348.381 225.347 348.381Z" fill="#D0CDE1"/>
<path d="M93.8217 430.908H11.3533V431.895H93.8217V430.908Z" fill="#3F3D56"/>
<path d="M575.974 420.391H493.506V421.378H575.974V420.391Z" fill="#3F3D56"/>
<path d="M453.802 430.908H371.334V431.895H453.802V430.908Z" fill="#3F3D56"/>
<path d="M59.4029 399.128C50.7149 413.312 53.704 430.955 53.704 430.955C53.704 430.955 70.7791 425.602 79.467 411.418C88.155 397.234 85.1659 379.591 85.1659 379.591C85.1659 379.591 68.0908 384.945 59.4029 399.128Z" fill="#3F3D56"/>
<path d="M541.556 388.61C532.868 402.794 535.857 420.437 535.857 420.437C535.857 420.437 552.932 415.084 561.62 400.9C570.308 386.716 567.319 369.073 567.319 369.073C567.319 369.073 550.244 374.426 541.556 388.61Z" fill="#3F3D56"/>
<path d="M53.3497 431.072L52.8557 430.993C52.6771 430.965 34.8968 428.019 24.2483 415.279C13.5997 402.538 13.856 384.517 13.8595 384.336L13.8701 383.836L14.364 383.914C14.5427 383.943 32.3229 386.889 42.9715 399.63C53.62 412.37 53.3638 430.391 53.3603 430.572L53.3497 431.072Z" fill="#4D80E4"/>
<path d="M535.502 420.555L535.008 420.476C534.829 420.448 517.049 417.502 506.401 404.762C495.752 392.021 496.008 374 496.012 373.819L496.022 373.319L496.516 373.398C496.695 373.426 514.475 376.372 525.124 389.113C535.772 401.853 535.516 419.874 535.513 420.055L535.502 420.555Z" fill="#4D80E4"/>
<path d="M54.0508 431.521L53.5736 431.372C53.401 431.317 36.2418 425.806 27.5687 411.646C18.8956 397.487 21.7817 379.696 21.8115 379.518L21.895 379.025L22.3723 379.175C22.5448 379.229 39.704 384.741 48.3771 398.9C57.0502 413.06 54.1642 430.85 54.1344 431.028L54.0508 431.521ZM22.599 380.174C22.204 383.159 20.6295 398.646 28.3127 411.19C35.9964 423.734 50.5081 429.368 53.3469 430.373C53.7419 427.387 55.3164 411.9 47.6331 399.356C39.9494 386.812 25.4377 381.179 22.5989 380.174H22.599Z" fill="#3F3D56"/>
<path d="M536.204 421.003L535.726 420.853C535.554 420.799 518.395 415.287 509.721 401.128C501.048 386.968 503.934 369.178 503.964 369L504.048 368.507L504.525 368.656C504.698 368.71 521.857 374.222 530.53 388.382C539.203 402.541 536.317 420.331 536.287 420.51L536.204 421.003ZM504.752 369.655C504.357 372.641 502.782 388.128 510.465 400.672C518.149 413.215 532.661 418.849 535.5 419.854C535.895 416.868 537.469 401.381 529.786 388.838C522.102 376.294 507.59 370.66 504.752 369.655H504.752Z" fill="#3F3D56"/>
<path d="M54.246 384.996C59.5476 384.996 63.8455 380.698 63.8455 375.396C63.8455 370.095 59.5476 365.797 54.246 365.797C48.9443 365.797 44.6465 370.095 44.6465 375.396C44.6465 380.698 48.9443 384.996 54.246 384.996Z" fill="#3F3D56"/>
<path d="M536.398 374.478C541.7 374.478 545.998 370.18 545.998 364.878C545.998 359.576 541.7 355.279 536.398 355.279C531.096 355.279 526.799 359.576 526.799 364.878C526.799 370.18 531.096 374.478 536.398 374.478Z" fill="#3F3D56"/>
<path d="M174.444 254.061L119.375 198.557H93.377V197.684H119.739L119.868 197.814L175.065 253.447L174.444 254.061Z" fill="#3F3D56"/>
<path d="M303.786 252.315L358.855 196.811H384.853V195.939H358.49L358.362 196.068L303.165 251.702L303.786 252.315Z" fill="#3F3D56"/>
<path d="M63.7056 171.194H0V183.794H63.7056V171.194Z" fill="#D0CDE1"/>
<path d="M63.7056 190.528H0V203.129H63.7056V190.528Z" fill="#D0CDE1"/>
<path d="M63.7056 209.864H0V222.464H63.7056V209.864Z" fill="#D0CDE1"/>
<path opacity="0.15" d="M26.3544 171.194H0V183.794H26.3544V171.194Z" fill="black"/>
<path opacity="0.15" d="M8.53201 190.528H0V203.129H8.53201V190.528Z" fill="black"/>
<path opacity="0.15" d="M42.4704 209.864H0V222.464H42.4704V209.864Z" fill="black"/>
<path d="M82.4685 184.594C86.3243 184.594 89.45 181.468 89.45 177.613C89.45 173.757 86.3243 170.631 82.4685 170.631C78.6128 170.631 75.4871 173.757 75.4871 177.613C75.4871 181.468 78.6128 184.594 82.4685 184.594Z" fill="#4D80E4"/>
<path d="M82.4685 205.538C86.3243 205.538 89.45 202.412 89.45 198.556C89.45 194.701 86.3243 191.575 82.4685 191.575C78.6128 191.575 75.4871 194.701 75.4871 198.556C75.4871 202.412 78.6128 205.538 82.4685 205.538Z" fill="#4D80E4"/>
<path d="M82.4685 224.302C86.3243 224.302 89.45 221.176 89.45 217.32C89.45 213.464 86.3243 210.339 82.4685 210.339C78.6128 210.339 75.4871 213.464 75.4871 217.32C75.4871 221.176 78.6128 224.302 82.4685 224.302Z" fill="#4D80E4"/>
<path d="M78.9772 183.285C77.5101 183.285 76.076 182.85 74.8561 182.035C73.6363 181.219 72.6855 180.061 72.1241 178.706C71.5627 177.35 71.4158 175.859 71.702 174.42C71.9882 172.981 72.6947 171.659 73.7321 170.622C74.7695 169.584 76.0912 168.878 77.5301 168.592C78.969 168.305 80.4605 168.452 81.8159 169.014C83.1713 169.575 84.3298 170.526 85.1449 171.746C85.96 172.966 86.395 174.4 86.395 175.867C86.3928 177.834 85.6106 179.719 84.22 181.11C82.8294 182.5 80.9439 183.282 78.9772 183.285ZM78.9772 169.322C77.6827 169.322 76.4173 169.706 75.341 170.425C74.2646 171.144 73.4257 172.166 72.9304 173.362C72.435 174.558 72.3054 175.874 72.5579 177.144C72.8104 178.413 73.4338 179.58 74.3492 180.495C75.2645 181.41 76.4307 182.034 77.7004 182.286C78.97 182.539 80.286 182.409 81.482 181.914C82.6779 181.418 83.7001 180.579 84.4193 179.503C85.1385 178.427 85.5224 177.161 85.5224 175.867C85.5204 174.132 84.8302 172.468 83.6032 171.241C82.3762 170.014 80.7125 169.324 78.9772 169.322Z" fill="#3F3D56"/>
<path d="M78.9772 204.229C77.5101 204.229 76.076 203.794 74.8561 202.979C73.6363 202.164 72.6855 201.005 72.1241 199.65C71.5627 198.294 71.4158 196.803 71.702 195.364C71.9882 193.925 72.6947 192.603 73.7321 191.566C74.7695 190.528 76.0912 189.822 77.5301 189.536C78.969 189.25 80.4605 189.396 81.8159 189.958C83.1713 190.519 84.3298 191.47 85.1449 192.69C85.96 193.91 86.395 195.344 86.395 196.811C86.3928 198.778 85.6106 200.663 84.22 202.054C82.8294 203.444 80.9439 204.227 78.9772 204.229ZM78.9772 190.266C77.6827 190.266 76.4173 190.65 75.341 191.369C74.2646 192.088 73.4257 193.11 72.9304 194.306C72.435 195.502 72.3054 196.818 72.5579 198.088C72.8104 199.357 73.4338 200.524 74.3492 201.439C75.2645 202.354 76.4307 202.978 77.7004 203.23C78.97 203.483 80.286 203.353 81.482 202.858C82.6779 202.362 83.7001 201.524 84.4193 200.447C85.1385 199.371 85.5224 198.105 85.5224 196.811C85.5204 195.076 84.8302 193.412 83.6032 192.185C82.3762 190.958 80.7125 190.268 78.9772 190.266Z" fill="#3F3D56"/>
<path d="M78.9772 222.991C77.5101 222.991 76.076 222.556 74.8561 221.741C73.6363 220.926 72.6855 219.767 72.1241 218.412C71.5627 217.056 71.4158 215.565 71.702 214.126C71.9882 212.687 72.6947 211.365 73.7321 210.328C74.7695 209.29 76.0912 208.584 77.5301 208.298C78.969 208.011 80.4605 208.158 81.8159 208.72C83.1713 209.281 84.3298 210.232 85.1449 211.452C85.96 212.672 86.395 214.106 86.395 215.573C86.3928 217.54 85.6106 219.425 84.22 220.816C82.8294 222.206 80.9439 222.989 78.9772 222.991ZM78.9772 209.028C77.6827 209.028 76.4173 209.412 75.341 210.131C74.2646 210.85 73.4257 211.872 72.9304 213.068C72.435 214.264 72.3054 215.58 72.5579 216.85C72.8104 218.119 73.4338 219.286 74.3492 220.201C75.2645 221.116 76.4307 221.74 77.7004 221.992C78.97 222.245 80.286 222.115 81.482 221.62C82.6779 221.124 83.7001 220.286 84.4193 219.209C85.1385 218.133 85.5224 216.867 85.5224 215.573C85.5204 213.838 84.8302 212.174 83.6032 210.947C82.3762 209.72 80.7125 209.03 78.9772 209.028Z" fill="#3F3D56"/>
<path d="M431.541 401.457H430.668V394.912C430.668 394.565 430.806 394.232 431.052 393.986C431.297 393.741 431.63 393.603 431.977 393.603H434.159C434.274 393.602 434.385 393.556 434.467 393.475C434.549 393.393 434.595 393.282 434.595 393.166V388.803C434.595 388.687 434.549 388.576 434.467 388.494C434.385 388.413 434.274 388.367 434.159 388.366H431.977C431.63 388.366 431.297 388.228 431.052 387.983C430.806 387.737 430.668 387.404 430.668 387.057V384.876C430.668 384.76 430.622 384.649 430.54 384.567C430.458 384.485 430.347 384.439 430.232 384.439H426.304C425.957 384.439 425.625 384.301 425.379 384.056C425.134 383.81 424.996 383.477 424.995 383.13V382.694C424.995 382.578 424.949 382.467 424.868 382.386C424.786 382.304 424.675 382.258 424.559 382.258H408.851C408.735 382.258 408.624 382.304 408.542 382.386C408.461 382.467 408.415 382.578 408.415 382.694V383.13C408.414 383.477 408.276 383.81 408.031 384.056C407.785 384.301 407.453 384.439 407.106 384.439H403.178C403.063 384.439 402.952 384.485 402.87 384.567C402.788 384.649 402.742 384.76 402.742 384.876V387.057C402.742 387.404 402.604 387.737 402.358 387.983C402.113 388.228 401.78 388.366 401.433 388.366H399.251C399.136 388.367 399.025 388.413 398.943 388.494C398.861 388.576 398.815 388.687 398.815 388.803V393.166C398.815 393.282 398.861 393.393 398.943 393.475C399.025 393.556 399.136 393.602 399.251 393.603H401.869C402.216 393.603 402.549 393.741 402.795 393.986C403.04 394.232 403.178 394.565 403.178 394.912V401.457H402.306V394.912C402.306 394.796 402.26 394.685 402.178 394.603C402.096 394.521 401.985 394.475 401.869 394.475H399.251C398.904 394.475 398.572 394.337 398.326 394.091C398.081 393.846 397.943 393.513 397.942 393.166V388.803C397.943 388.456 398.081 388.123 398.326 387.878C398.572 387.632 398.904 387.494 399.251 387.494H401.433C401.549 387.494 401.66 387.448 401.742 387.366C401.823 387.284 401.869 387.173 401.869 387.057V384.876C401.87 384.529 402.008 384.196 402.253 383.951C402.499 383.705 402.831 383.567 403.178 383.567H407.106C407.221 383.567 407.332 383.521 407.414 383.439C407.496 383.357 407.542 383.246 407.542 383.13V382.694C407.542 382.347 407.68 382.014 407.926 381.769C408.171 381.523 408.504 381.385 408.851 381.385H424.559C424.906 381.385 425.239 381.523 425.484 381.769C425.73 382.014 425.868 382.347 425.868 382.694V383.13C425.868 383.246 425.914 383.357 425.996 383.439C426.078 383.521 426.189 383.567 426.304 383.567H430.232C430.579 383.567 430.911 383.705 431.157 383.951C431.402 384.196 431.54 384.529 431.541 384.876V387.057C431.541 387.173 431.587 387.284 431.668 387.366C431.75 387.448 431.861 387.494 431.977 387.494H434.159C434.506 387.494 434.838 387.632 435.084 387.878C435.329 388.123 435.467 388.456 435.468 388.803V393.166C435.467 393.513 435.329 393.846 435.084 394.091C434.838 394.337 434.506 394.475 434.159 394.475H431.977C431.861 394.475 431.75 394.521 431.668 394.603C431.587 394.685 431.541 394.796 431.541 394.912V401.457Z" fill="#3F3D56"/>
<path d="M430.231 432H403.615C403.267 432 402.935 431.862 402.689 431.616C402.444 431.371 402.306 431.038 402.305 430.691V411.928H403.178V430.691C403.178 430.807 403.224 430.918 403.306 430.999C403.388 431.081 403.499 431.127 403.615 431.127H430.231C430.347 431.127 430.458 431.081 430.54 430.999C430.622 430.918 430.668 430.807 430.668 430.691V411.928H431.54V430.691C431.54 431.038 431.402 431.371 431.156 431.616C430.911 431.862 430.578 432 430.231 432Z" fill="#3F3D56"/>
<path d="M435.904 404.508H403.178C402.696 404.508 402.305 404.899 402.305 405.38V414.107C402.305 414.589 402.696 414.98 403.178 414.98H435.904C436.386 414.98 436.776 414.589 436.776 414.107V405.38C436.776 404.899 436.386 404.508 435.904 404.508Z" fill="#4D80E4"/>
<path d="M433.068 412.364H400.342C399.995 412.363 399.663 412.225 399.417 411.98C399.172 411.735 399.034 411.402 399.033 411.055V402.328C399.034 401.981 399.172 401.648 399.417 401.403C399.663 401.157 399.995 401.019 400.342 401.019H433.068C433.415 401.019 433.748 401.157 433.993 401.403C434.238 401.648 434.377 401.981 434.377 402.328V411.055C434.377 411.402 434.238 411.735 433.993 411.98C433.748 412.225 433.415 412.363 433.068 412.364ZM400.342 401.892C400.227 401.892 400.116 401.938 400.034 402.019C399.952 402.101 399.906 402.212 399.906 402.328V411.055C399.906 411.17 399.952 411.281 400.034 411.363C400.116 411.445 400.227 411.491 400.342 411.491H433.068C433.184 411.491 433.295 411.445 433.376 411.363C433.458 411.281 433.504 411.17 433.504 411.055V402.328C433.504 402.212 433.458 402.101 433.376 402.019C433.295 401.938 433.184 401.892 433.068 401.892H400.342Z" fill="#3F3D56"/>
<path d="M415.832 378.33C414.672 370.516 414.366 362.599 414.918 354.719L415.832 341.677C410.796 351.698 411.934 364.887 415.832 378.33V378.33Z" fill="#D0CDE1"/>
<path d="M419.759 380.511C419.201 375.849 419.054 371.146 419.32 366.457L419.759 358.694C417.336 364.659 417.884 372.51 419.759 380.511Z" fill="#D0CDE1"/>
<path d="M198.099 0H15.2719V116.939H198.099V0Z" fill="#E6E6E6"/>
<path d="M192.863 14.8357H20.5082V110.394H192.863V14.8357Z" fill="white"/>
<path d="M198.099 0H15.2719V7.85413H198.099V0Z" fill="#4D80E4"/>
<path d="M21.1624 5.23584C22.0058 5.23584 22.6896 4.64977 22.6896 3.92682C22.6896 3.20387 22.0058 2.6178 21.1624 2.6178C20.3189 2.6178 19.6352 3.20387 19.6352 3.92682C19.6352 4.64977 20.3189 5.23584 21.1624 5.23584Z" fill="white"/>
<path d="M26.6172 5.23584C27.3401 5.23584 27.9262 4.64977 27.9262 3.92682C27.9262 3.20387 27.3401 2.6178 26.6172 2.6178C25.8942 2.6178 25.3081 3.20387 25.3081 3.92682C25.3081 4.64977 25.8942 5.23584 26.6172 5.23584Z" fill="white"/>
<path d="M32.0706 5.23584C32.9141 5.23584 33.5978 4.64977 33.5978 3.92682C33.5978 3.20387 32.9141 2.6178 32.0706 2.6178C31.2272 2.6178 30.5434 3.20387 30.5434 3.92682C30.5434 4.64977 31.2272 5.23584 32.0706 5.23584Z" fill="white"/>
<path d="M143.998 23.5619H88.1357C88.0165 23.5479 87.907 23.496 87.8277 23.4157C87.7484 23.3354 87.7047 23.2323 87.7047 23.1255C87.7047 23.0188 87.7484 22.9157 87.8277 22.8354C87.907 22.7551 88.0165 22.7032 88.1357 22.6892H143.998C144.117 22.7032 144.227 22.7551 144.306 22.8354C144.385 22.9157 144.429 23.0188 144.429 23.1255C144.429 23.2323 144.385 23.3354 144.306 23.4157C144.227 23.496 144.117 23.5479 143.998 23.5619Z" fill="#CCCCCC"/>
<path d="M105.165 29.2347H69.8072C69.6885 29.2208 69.5795 29.1688 69.5006 29.0886C69.4217 29.0083 69.3781 28.9052 69.3781 28.7984C69.3781 28.6916 69.4217 28.5885 69.5006 28.5082C69.5795 28.428 69.6885 28.376 69.8072 28.3621H105.165C105.284 28.376 105.393 28.428 105.472 28.5082C105.551 28.5885 105.594 28.6916 105.594 28.7984C105.594 28.9052 105.551 29.0083 105.472 29.0886C105.393 29.1688 105.284 29.2208 105.165 29.2347Z" fill="#CCCCCC"/>
<path d="M143.999 29.2347H108.641C108.522 29.2208 108.413 29.1688 108.334 29.0886C108.256 29.0083 108.212 28.9052 108.212 28.7984C108.212 28.6916 108.256 28.5885 108.334 28.5082C108.413 28.428 108.522 28.376 108.641 28.3621H143.999C144.118 28.376 144.227 28.428 144.306 28.5082C144.385 28.5885 144.428 28.6916 144.428 28.7984C144.428 28.9052 144.385 29.0083 144.306 29.0886C144.227 29.1688 144.118 29.2208 143.999 29.2347H143.999Z" fill="#CCCCCC"/>
<path d="M105.165 34.4713H69.8072C69.6885 34.4574 69.5796 34.4054 69.5006 34.3251C69.4217 34.2449 69.3781 34.1417 69.3781 34.035C69.3781 33.9282 69.4217 33.8251 69.5006 33.7448C69.5796 33.6645 69.6885 33.6126 69.8072 33.5986H105.165C105.284 33.6126 105.393 33.6645 105.472 33.7448C105.551 33.8251 105.594 33.9282 105.594 34.035C105.594 34.1417 105.551 34.2449 105.472 34.3251C105.393 34.4054 105.284 34.4574 105.165 34.4713Z" fill="#CCCCCC"/>
<path d="M105.596 40.1432H69.8124C69.6923 40.1223 69.582 40.0444 69.5021 39.924C69.4222 39.8036 69.3781 39.6489 69.3781 39.4887C69.3781 39.3286 69.4222 39.1739 69.5021 39.0535C69.582 38.9331 69.6923 38.8552 69.8124 38.8342H105.596C105.717 38.8552 105.827 38.9331 105.907 39.0535C105.987 39.1739 106.031 39.3286 106.031 39.4887C106.031 39.6489 105.987 39.8036 105.907 39.924C105.827 40.0444 105.717 40.1223 105.596 40.1432Z" fill="#CCCCCC"/>
<path d="M121.732 34.4713H111.273C111.151 34.4574 111.038 34.4054 110.957 34.3251C110.875 34.2449 110.83 34.1417 110.83 34.035C110.83 33.9282 110.875 33.8251 110.957 33.7448C111.038 33.6645 111.151 33.6126 111.273 33.5986H121.732C121.854 33.6126 121.967 33.6645 122.049 33.7448C122.13 33.8251 122.175 33.9282 122.175 34.035C122.175 34.1417 122.13 34.2449 122.049 34.3251C121.967 34.4054 121.854 34.4574 121.732 34.4713Z" fill="#CCCCCC"/>
<path d="M121.732 39.7069H111.273C111.151 39.693 111.038 39.641 110.957 39.5607C110.875 39.4805 110.83 39.3773 110.83 39.2706C110.83 39.1638 110.875 39.0607 110.957 38.9804C111.038 38.9001 111.151 38.8482 111.273 38.8342H121.732C121.854 38.8482 121.967 38.9001 122.049 38.9804C122.13 39.0607 122.175 39.1638 122.175 39.2706C122.175 39.3773 122.13 39.4805 122.049 39.5607C121.967 39.641 121.854 39.693 121.732 39.7069Z" fill="#CCCCCC"/>
<path d="M138.766 39.7069H128.71C128.592 39.693 128.484 39.641 128.406 39.5607C128.327 39.4805 128.284 39.3773 128.284 39.2706C128.284 39.1638 128.327 39.0607 128.406 38.9804C128.484 38.9001 128.592 38.8482 128.71 38.8342H138.766C138.884 38.8482 138.993 38.9001 139.071 38.9804C139.149 39.0607 139.193 39.1638 139.193 39.2706C139.193 39.3773 139.149 39.4805 139.071 39.5607C138.993 39.641 138.884 39.693 138.766 39.7069Z" fill="#CCCCCC"/>
<path d="M79.4242 23.5619H69.3679C69.2501 23.5479 69.1418 23.496 69.0634 23.4157C68.985 23.3354 68.9418 23.2323 68.9418 23.1255C68.9418 23.0188 68.985 22.9157 69.0634 22.8354C69.1418 22.7551 69.2501 22.7032 69.3679 22.6892H79.4242C79.5421 22.7032 79.6503 22.7551 79.7287 22.8354C79.8071 22.9157 79.8503 23.0188 79.8503 23.1255C79.8503 23.2323 79.8071 23.3354 79.7287 23.4157C79.6503 23.496 79.5421 23.5479 79.4242 23.5619Z" fill="#CCCCCC"/>
<path d="M105.16 85.9601H69.3761C69.2559 85.9461 69.1457 85.8942 69.0658 85.8139C68.9859 85.7336 68.9418 85.6305 68.9418 85.5237C68.9418 85.417 68.9859 85.3139 69.0658 85.2336C69.1457 85.1533 69.2559 85.1014 69.3761 85.0874H105.16C105.28 85.1014 105.391 85.1533 105.47 85.2336C105.55 85.3139 105.594 85.417 105.594 85.5237C105.594 85.6305 105.55 85.7336 105.47 85.8139C105.391 85.8942 105.28 85.9461 105.16 85.9601H105.16Z" fill="#CCCCCC"/>
<path d="M105.16 96.8679H69.3761C69.2559 96.854 69.1457 96.802 69.0658 96.7217C68.9859 96.6415 68.9418 96.5383 68.9418 96.4316C68.9418 96.3248 68.9859 96.2217 69.0658 96.1414C69.1457 96.0611 69.2559 96.0092 69.3761 95.9952H105.16C105.28 96.0092 105.391 96.0611 105.47 96.1414C105.55 96.2217 105.594 96.3248 105.594 96.4316C105.594 96.5383 105.55 96.6415 105.47 96.7217C105.391 96.802 105.28 96.854 105.16 96.8679H105.16Z" fill="#CCCCCC"/>
<path d="M105.16 102.103H69.3761C69.256 102.089 69.1457 102.037 69.0658 101.957C68.9859 101.877 68.9418 101.774 68.9418 101.667C68.9418 101.56 68.9859 101.457 69.0658 101.377C69.1457 101.297 69.256 101.245 69.3761 101.231H105.16C105.28 101.245 105.391 101.297 105.47 101.377C105.55 101.457 105.594 101.56 105.594 101.667C105.594 101.774 105.55 101.877 105.47 101.957C105.391 102.037 105.28 102.089 105.16 102.103H105.16Z" fill="#CCCCCC"/>
<path d="M120.423 96.8679H109.965C109.842 96.854 109.729 96.802 109.648 96.7217C109.566 96.6415 109.521 96.5383 109.521 96.4316C109.521 96.3248 109.566 96.2217 109.648 96.1414C109.729 96.0611 109.842 96.0092 109.965 95.9952H120.423C120.546 96.0092 120.658 96.0611 120.74 96.1414C120.821 96.2217 120.866 96.3248 120.866 96.4316C120.866 96.5383 120.821 96.6415 120.74 96.7217C120.658 96.802 120.546 96.854 120.423 96.8679Z" fill="#CCCCCC"/>
<path d="M120.423 102.103H109.965C109.842 102.089 109.729 102.037 109.648 101.957C109.566 101.877 109.521 101.774 109.521 101.667C109.521 101.56 109.566 101.457 109.648 101.377C109.729 101.297 109.842 101.245 109.965 101.231H120.423C120.546 101.245 120.658 101.297 120.74 101.377C120.821 101.457 120.866 101.56 120.866 101.667C120.866 101.774 120.821 101.877 120.74 101.957C120.658 102.037 120.546 102.089 120.423 102.103Z" fill="#CCCCCC"/>
<path d="M137.457 96.8679H127.401C127.283 96.854 127.175 96.802 127.096 96.7217C127.018 96.6415 126.975 96.5383 126.975 96.4316C126.975 96.3248 127.018 96.2217 127.096 96.1414C127.175 96.0611 127.283 96.0092 127.401 95.9952H137.457C137.575 96.0092 137.683 96.0611 137.762 96.1414C137.84 96.2217 137.883 96.3248 137.883 96.4316C137.883 96.5383 137.84 96.6415 137.762 96.7217C137.683 96.802 137.575 96.854 137.457 96.8679Z" fill="#CCCCCC"/>
<path d="M143.998 91.1957H88.1357C88.0165 91.1817 87.907 91.1298 87.8277 91.0495C87.7484 90.9692 87.7047 90.8661 87.7047 90.7593C87.7047 90.6526 87.7484 90.5495 87.8277 90.4692C87.907 90.3889 88.0165 90.3369 88.1357 90.323H143.998C144.117 90.3369 144.227 90.3889 144.306 90.4692C144.385 90.5495 144.429 90.6526 144.429 90.7593C144.429 90.8661 144.385 90.9692 144.306 91.0495C144.227 91.1298 144.117 91.1817 143.998 91.1957Z" fill="#CCCCCC"/>
<path d="M79.4242 91.1957H69.3679C69.25 91.1817 69.1418 91.1298 69.0634 91.0495C68.985 90.9692 68.9418 90.8661 68.9418 90.7593C68.9418 90.6526 68.985 90.5495 69.0634 90.4692C69.1418 90.3889 69.25 90.3369 69.3679 90.323H79.4242C79.5421 90.3369 79.6503 90.3889 79.7287 90.4692C79.8071 90.5495 79.8503 90.6526 79.8503 90.7593C79.8503 90.8661 79.8071 90.9692 79.7287 91.0495C79.6503 91.1298 79.5421 91.1817 79.4242 91.1957Z" fill="#CCCCCC"/>
<path d="M96.726 48.8701L82.9047 62.3968L96.726 75.9232L99.8358 72.8413L89.3834 62.4822L99.922 52.0378L96.726 48.8701Z" fill="#E6E6E6"/>
<path d="M117.081 48.8701L130.902 62.3968L117.081 75.9232L113.971 72.8413L124.424 62.4822L113.885 52.0378L117.081 48.8701Z" fill="#E6E6E6"/>
<path d="M96.726 48.8701L82.9047 62.3968L96.726 75.9232L99.8358 72.8413L89.3834 62.4822L99.922 52.0378L96.726 48.8701Z" fill="#4D80E4"/>
<path d="M117.081 48.8701L130.902 62.3968L117.081 75.9232L113.971 72.8413L124.424 62.4822L113.885 52.0378L117.081 48.8701Z" fill="#4D80E4"/>
<path d="M372.898 72.011C379.19 80.4372 392.251 81.3241 392.251 81.3241C392.251 81.3241 395.11 68.5494 388.818 60.1232C382.527 51.697 369.466 50.8102 369.466 50.8102C369.466 50.8102 366.606 63.5848 372.898 72.011Z" fill="#E6E6E6"/>
<path d="M404.95 75.1791C400.798 80.7393 392.18 81.3245 392.18 81.3245C392.18 81.3245 390.293 72.8949 394.445 67.3348C398.597 61.7746 407.215 61.1893 407.215 61.1893C407.215 61.1893 409.102 69.619 404.95 75.1791Z" fill="#E6E6E6"/>
</svg>
