<svg width="705" height="574" viewBox="0 0 705 574" fill="none" xmlns="http://www.w3.org/2000/svg">
<path d="M302.263 197.858H104.447V204.541H302.263V197.858Z" fill="#E6E6E6"/>
<path d="M170.914 147.737H121.065V199.53H170.914V147.737Z" fill="#E6E6E6"/>
<path d="M160.628 157.761H130.56V189.505H160.628V157.761Z" fill="#CCCCCC"/>
<path d="M246.084 147.737H233.424V199.53H246.084V147.737Z" fill="#E6E6E6"/>
<path d="M246.084 156.092H233.424V161.939H246.084V156.092Z" fill="#CCCCCC"/>
<path d="M246.084 181.989H233.424V187.836H246.084V181.989Z" fill="#CCCCCC"/>
<path d="M226.3 147.737H213.64V199.53H226.3V147.737Z" fill="#E6E6E6"/>
<path d="M226.3 156.092H213.64V161.939H226.3V156.092Z" fill="#CCCCCC"/>
<path d="M226.3 181.989H213.64V187.836H226.3V181.989Z" fill="#CCCCCC"/>
<path d="M256.728 147.28L245.382 153.139L267.617 199.98L278.962 194.121L256.728 147.28Z" fill="#E6E6E6"/>
<path d="M260.238 154.678L248.892 160.537L251.466 165.96L262.812 160.102L260.238 154.678Z" fill="#CCCCCC"/>
<path d="M271.47 178.344L260.124 184.202L262.698 189.626L274.044 183.767L271.47 178.344Z" fill="#CCCCCC"/>
<path d="M139.262 168.623L145.592 179.9L151.922 191.177H139.262H126.602L132.932 179.9L139.262 168.623Z" fill="#E6E6E6"/>
<path d="M150.338 170.292L156.668 181.988L162.999 193.683H150.338H137.678L144.008 181.988L150.338 170.292Z" fill="#E6E6E6"/>
<path d="M155.088 166.952C157.273 166.952 159.044 165.269 159.044 163.192C159.044 161.116 157.273 159.433 155.088 159.433C152.903 159.433 151.131 161.116 151.131 163.192C151.131 165.269 152.903 166.952 155.088 166.952Z" fill="#E6E6E6"/>
<path d="M104.447 121.006L302.263 121.006V115.159L104.447 115.159V121.006Z" fill="white"/>
<path d="M235.798 116.829H285.647V64.2008H235.798V116.829Z" fill="white"/>
<path d="M246.084 105.97H276.152V75.0611H246.084V105.97Z" fill="#CCCCCC"/>
<path d="M160.626 116.829H173.286V64.2008H160.626V116.829Z" fill="white"/>
<path d="M160.626 105.135H173.286V99.2871H160.626V105.135Z" fill="#CCCCCC"/>
<path d="M180.408 116.829H193.068V64.2008H180.408V116.829Z" fill="white"/>
<path d="M180.408 105.135H193.068V99.2871H180.408V105.135Z" fill="#CCCCCC"/>
<path d="M127.748 111.043L139.094 116.902L161.328 70.0604L149.983 64.2017L127.748 111.043Z" fill="white"/>
<path d="M132.663 100.688L144.009 106.546L146.583 101.123L135.238 95.2639L132.663 100.688Z" fill="#CCCCCC"/>
<path d="M267.449 85.0872L261.119 96.7823L254.789 108.477H267.449H280.109L273.779 96.7823L267.449 85.0872Z" fill="white"/>
<path d="M256.368 87.5921L250.038 99.2871L243.708 110.982H256.368H269.029L262.699 99.2871L256.368 87.5921Z" fill="white"/>
<path d="M104.447 287.243H302.263V281.396H104.447V287.243Z" fill="#E6E6E6"/>
<path d="M235.798 283.067H285.647V230.439H235.798V283.067Z" fill="#E6E6E6"/>
<path d="M246.084 272.207H276.152V241.299H246.084V272.207Z" fill="#CCCCCC"/>
<path d="M160.626 283.067H173.286V230.439H160.626V283.067Z" fill="#E6E6E6"/>
<path d="M160.626 244.642H173.286V238.794H160.626V244.642Z" fill="#CCCCCC"/>
<path d="M160.626 271.373H173.286V265.525H160.626V271.373Z" fill="#CCCCCC"/>
<path d="M180.408 283.067H193.068V230.439H180.408V283.067Z" fill="#E6E6E6"/>
<path d="M180.408 244.642H193.068V238.794H180.408V244.642Z" fill="#CCCCCC"/>
<path d="M180.408 271.373H193.068V265.525H180.408V271.373Z" fill="#CCCCCC"/>
<path d="M127.748 277.199L139.094 283.057L161.328 236.216L149.983 230.357L127.748 277.199Z" fill="#E6E6E6"/>
<path d="M143.897 243.18L155.243 249.038L157.817 243.615L146.472 237.756L143.897 243.18Z" fill="#CCCCCC"/>
<path d="M132.663 266.844L144.009 272.703L146.583 267.279L135.238 261.421L132.663 266.844Z" fill="#CCCCCC"/>
<path d="M267.449 251.323L261.119 263.018L254.789 274.713H267.449H280.109L273.779 263.018L267.449 251.323Z" fill="#E6E6E6"/>
<path d="M256.368 253.83L250.038 265.107L243.708 276.385H256.368H269.029L262.699 265.107L256.368 253.83Z" fill="#E6E6E6"/>
<path d="M251.623 250.487C253.808 250.487 255.579 248.804 255.579 246.728C255.579 244.652 253.808 242.969 251.623 242.969C249.438 242.969 247.667 244.652 247.667 246.728C247.667 248.804 249.438 250.487 251.623 250.487Z" fill="#E6E6E6"/>
<g clip-path="url(#clip0)">
<path opacity="0.1" d="M539.261 289.041H394.936V299.059H539.261V289.041Z" fill="#46B3E6"/>
<path opacity="0.1" d="M539.261 332.3H394.936V342.318H539.261V332.3Z" fill="#46B3E6"/>
<path opacity="0.1" d="M539.261 377.381H394.936V387.399H539.261V377.381Z" fill="#46B3E6"/>
<path opacity="0.1" d="M416.721 263.086H407.644V289.041H416.721V263.086Z" fill="#46B3E6"/>
<path opacity="0.1" d="M416.721 267.183H407.644V269.005H416.721V267.183Z" fill="#46B3E6"/>
<path opacity="0.1" d="M416.721 281.299H407.644V283.121H416.721V281.299Z" fill="#46B3E6"/>
<path opacity="0.1" d="M430.337 263.086H421.26V289.041H430.337V263.086Z" fill="#46B3E6"/>
<path opacity="0.1" d="M430.337 267.183H421.26V269.005H430.337V267.183Z" fill="#46B3E6"/>
<path opacity="0.1" d="M430.337 281.299H421.26V283.121H430.337V281.299Z" fill="#46B3E6"/>
<path opacity="0.1" d="M443.953 263.086H434.876V289.041H443.953V263.086Z" fill="#46B3E6"/>
<path opacity="0.1" d="M443.953 267.183H434.876V269.005H443.953V267.183Z" fill="#46B3E6"/>
<path opacity="0.1" d="M443.953 281.299H434.876V283.121H443.953V281.299Z" fill="#46B3E6"/>
<path opacity="0.1" d="M457.568 263.086H448.491V289.041H457.568V263.086Z" fill="#46B3E6"/>
<path opacity="0.1" d="M457.568 267.183H448.491V269.005H457.568V267.183Z" fill="#46B3E6"/>
<path opacity="0.1" d="M457.568 281.299H448.491V283.121H457.568V281.299Z" fill="#46B3E6"/>
<path opacity="0.1" d="M471.182 263.086H462.105V289.041H471.182V263.086Z" fill="#46B3E6"/>
<path opacity="0.1" d="M471.182 267.183H462.105V269.005H471.182V267.183Z" fill="#46B3E6"/>
<path opacity="0.1" d="M471.182 281.299H462.105V283.121H471.182V281.299Z" fill="#46B3E6"/>
<path opacity="0.1" d="M484.798 263.086H475.721V289.041H484.798V263.086Z" fill="#46B3E6"/>
<path opacity="0.1" d="M484.798 267.183H475.721V269.005H484.798V267.183Z" fill="#46B3E6"/>
<path opacity="0.1" d="M484.798 281.299H475.721V283.121H484.798V281.299Z" fill="#46B3E6"/>
<path opacity="0.1" d="M498.414 263.086H489.337V289.041H498.414V263.086Z" fill="#46B3E6"/>
<path opacity="0.1" d="M498.414 267.183H489.337V269.005H498.414V267.183Z" fill="#46B3E6"/>
<path opacity="0.1" d="M498.414 281.299H489.337V283.121H498.414V281.299Z" fill="#46B3E6"/>
<path opacity="0.1" d="M493.041 350.742L484.927 354.824L496.522 378.026L504.636 373.944L493.041 350.742Z" fill="#46B3E6"/>
<path opacity="0.1" d="M494.874 354.409L486.76 358.491L487.573 360.119L495.688 356.037L494.874 354.409Z" fill="#46B3E6"/>
<path opacity="0.1" d="M501.177 367.028L493.062 371.111L493.876 372.739L501.99 368.657L501.177 367.028Z" fill="#46B3E6"/>
<path opacity="0.1" d="M416.721 325.014H407.644V326.836H416.721V325.014Z" fill="#46B3E6"/>
<path opacity="0.1" d="M430.337 310.898H421.26V312.72H430.337V310.898Z" fill="#46B3E6"/>
<path opacity="0.1" d="M430.337 325.014H421.26V326.836H430.337V325.014Z" fill="#46B3E6"/>
<path opacity="0.1" d="M443.953 310.898H434.876V312.72H443.953V310.898Z" fill="#46B3E6"/>
<path opacity="0.1" d="M443.953 325.014H434.876V326.836H443.953V325.014Z" fill="#46B3E6"/>
<path opacity="0.1" d="M500.683 310.898H491.606V312.72H500.683V310.898Z" fill="#46B3E6"/>
<path opacity="0.1" d="M500.683 325.014H491.606V326.836H500.683V325.014Z" fill="#46B3E6"/>
<path opacity="0.1" d="M514.299 310.898H505.222V312.72H514.299V310.898Z" fill="#46B3E6"/>
<path opacity="0.1" d="M514.299 325.014H505.222V326.836H514.299V325.014Z" fill="#46B3E6"/>
<path opacity="0.1" d="M527.914 310.898H518.837V312.72H527.914V310.898Z" fill="#46B3E6"/>
<path opacity="0.1" d="M527.914 325.014H518.837V326.836H527.914V325.014Z" fill="#46B3E6"/>
<path opacity="0.1" d="M416.721 351.425H407.644V377.381H416.721V351.425Z" fill="#46B3E6"/>
<path opacity="0.1" d="M416.721 355.523H407.644V357.345H416.721V355.523Z" fill="#46B3E6"/>
<path opacity="0.1" d="M416.721 369.639H407.644V371.461H416.721V369.639Z" fill="#46B3E6"/>
<path opacity="0.1" d="M430.337 351.425H421.26V377.381H430.337V351.425Z" fill="#46B3E6"/>
<path opacity="0.1" d="M430.337 355.523H421.26V357.345H430.337V355.523Z" fill="#46B3E6"/>
<path opacity="0.1" d="M430.337 369.639H421.26V371.461H430.337V369.639Z" fill="#46B3E6"/>
<path opacity="0.1" d="M443.953 351.425H434.876V377.381H443.953V351.425Z" fill="#46B3E6"/>
<path opacity="0.1" d="M443.953 355.523H434.876V357.345H443.953V355.523Z" fill="#46B3E6"/>
<path opacity="0.1" d="M443.953 369.639H434.876V371.461H443.953V369.639Z" fill="#46B3E6"/>
<path opacity="0.1" d="M457.568 351.425H448.491V377.381H457.568V351.425Z" fill="#46B3E6"/>
<path opacity="0.1" d="M457.568 355.523H448.491V357.345H457.568V355.523Z" fill="#46B3E6"/>
<path opacity="0.1" d="M457.568 369.639H448.491V371.461H457.568V369.639Z" fill="#46B3E6"/>
<path opacity="0.1" d="M471.182 351.425H462.105V377.381H471.182V351.425Z" fill="#46B3E6"/>
<path opacity="0.1" d="M471.182 355.523H462.105V357.345H471.182V355.523Z" fill="#46B3E6"/>
<path opacity="0.1" d="M471.182 369.639H462.105V371.461H471.182V369.639Z" fill="#46B3E6"/>
<path opacity="0.1" d="M484.798 351.425H475.721V377.381H484.798V351.425Z" fill="#46B3E6"/>
<path opacity="0.1" d="M484.798 355.523H475.721V357.345H484.798V355.523Z" fill="#46B3E6"/>
<path opacity="0.1" d="M484.798 369.639H475.721V371.461H484.798V369.639Z" fill="#46B3E6"/>
<path opacity="0.1" d="M512.03 265.398V289.041H502.953V263.664C505.991 264.201 509.017 264.779 512.03 265.398Z" fill="#46B3E6"/>
<path opacity="0.1" d="M512.03 267.183H502.953V269.005H512.03V267.183Z" fill="#46B3E6"/>
<path opacity="0.1" d="M512.03 281.299H502.953V283.121H512.03V281.299Z" fill="#46B3E6"/>
<path opacity="0.1" d="M525.646 268.559V289.05H516.569V266.373C517.749 266.633 518.924 266.906 520.1 267.184C521.958 267.621 523.806 268.079 525.646 268.559Z" fill="#46B3E6"/>
<path opacity="0.1" d="M525.646 268.559V269.014H516.569V267.193H520.1C521.958 267.624 523.806 268.079 525.646 268.559Z" fill="#46B3E6"/>
<path opacity="0.1" d="M525.646 281.299H516.569V283.121H525.646V281.299Z" fill="#46B3E6"/>
<g opacity="0.1">
<path opacity="0.1" d="M462.282 323.321C462.282 323.321 459.532 322.383 458.198 324.819C457.849 325.478 457.671 326.216 457.682 326.962C457.692 327.709 457.89 328.441 458.257 329.09C459.128 330.666 460.921 332.733 464.316 332.533C467.198 332.378 468.155 330.174 468.4 328.12C468.494 327.352 468.392 326.573 468.102 325.855C467.812 325.138 467.345 324.507 466.744 324.021C466.144 323.535 465.43 323.211 464.67 323.079C463.91 322.947 463.129 323.011 462.4 323.266L462.282 323.321Z" fill="#46B3E6"/>
<path opacity="0.1" d="M458.856 329.313C458.489 328.664 458.291 327.932 458.281 327.185C458.27 326.439 458.448 325.701 458.797 325.042C460.122 322.61 462.881 323.544 462.881 323.544L463.022 323.494C464.072 323.112 465.226 323.138 466.258 323.567C465.688 323.226 465.05 323.017 464.39 322.954C463.73 322.891 463.065 322.976 462.441 323.202L462.301 323.252C462.301 323.252 459.55 322.314 458.216 324.75C457.867 325.41 457.689 326.147 457.7 326.894C457.71 327.64 457.908 328.372 458.275 329.022C458.957 330.326 460.052 331.366 461.388 331.977C460.317 331.338 459.441 330.417 458.856 329.313Z" fill="#46B3E6"/>
<path opacity="0.2" d="M460.862 324.491C460.862 324.491 461.883 325.297 464.362 324.491H460.862Z" fill="#46B3E6"/>
<path opacity="0.1" d="M460.639 318.639C460.639 318.639 462.386 323.393 462.241 324.636L463.625 324.491C463.625 324.491 461.293 320.324 461.878 318.639H460.639Z" fill="#46B3E6"/>
<path opacity="0.2" d="M460.639 318.639C460.639 318.639 462.386 323.393 462.241 324.636L463.625 324.491C463.625 324.491 461.293 320.324 461.878 318.639H460.639Z" fill="#46B3E6"/>
<path opacity="0.1" d="M467.783 319.04C467.783 319.04 465.028 317.628 463.798 318.794C462.569 319.96 462.378 322.943 462.378 322.943C462.378 322.943 466.866 323.553 467.783 319.04Z" fill="#46B3E6"/>
<path opacity="0.1" d="M467.783 319.04C467.783 319.04 465.028 317.628 463.798 318.794C462.569 319.96 462.378 322.943 462.378 322.943C462.378 322.943 466.866 323.553 467.783 319.04Z" fill="#46B3E6"/>
<path opacity="0.1" d="M462.373 322.943C462.373 322.943 463.095 319.482 467.779 319.036L462.373 322.943Z" fill="#46B3E6"/>
</g>
<g opacity="0.1">
<path opacity="0.1" d="M520.376 368.401C520.376 368.401 517.626 367.463 516.292 369.899C515.943 370.558 515.765 371.296 515.776 372.042C515.786 372.789 515.984 373.521 516.351 374.17C517.222 375.746 519.015 377.813 522.41 377.613C525.292 377.458 526.249 375.254 526.494 373.2C526.588 372.432 526.486 371.653 526.196 370.935C525.906 370.218 525.439 369.587 524.839 369.101C524.238 368.615 523.524 368.291 522.764 368.159C522.004 368.027 521.223 368.091 520.494 368.346L520.376 368.401Z" fill="#46B3E6"/>
<path opacity="0.1" d="M516.95 374.394C516.583 373.744 516.385 373.012 516.375 372.266C516.364 371.519 516.542 370.782 516.891 370.122C518.216 367.691 520.975 368.624 520.975 368.624L521.116 368.574C522.166 368.193 523.32 368.219 524.352 368.647C523.782 368.307 523.144 368.098 522.484 368.035C521.824 367.972 521.159 368.056 520.535 368.283L520.394 368.333C520.394 368.333 517.644 367.395 516.31 369.831C515.961 370.491 515.783 371.228 515.794 371.974C515.804 372.721 516.002 373.453 516.369 374.102C517.051 375.407 518.146 376.447 519.482 377.058C518.411 376.419 517.535 375.497 516.95 374.394Z" fill="#46B3E6"/>
<path opacity="0.2" d="M518.956 369.571C518.956 369.571 519.977 370.377 522.455 369.571H518.956Z" fill="#46B3E6"/>
<path opacity="0.1" d="M518.733 363.72C518.733 363.72 520.48 368.474 520.335 369.717L521.719 369.571C521.719 369.571 519.386 365.405 519.972 363.72H518.733Z" fill="#46B3E6"/>
<path opacity="0.2" d="M518.733 363.72C518.733 363.72 520.48 368.474 520.335 369.717L521.719 369.571C521.719 369.571 519.386 365.405 519.972 363.72H518.733Z" fill="#46B3E6"/>
<path opacity="0.1" d="M525.877 364.121C525.877 364.121 523.122 362.709 521.892 363.875C520.663 365.04 520.472 368.023 520.472 368.023C520.472 368.023 524.961 368.633 525.877 364.121Z" fill="#46B3E6"/>
<path opacity="0.1" d="M525.877 364.121C525.877 364.121 523.122 362.709 521.892 363.875C520.663 365.04 520.472 368.023 520.472 368.023C520.472 368.023 524.961 368.633 525.877 364.121Z" fill="#46B3E6"/>
<path opacity="0.1" d="M520.467 368.023C520.467 368.023 521.189 364.562 525.873 364.116L520.467 368.023Z" fill="#46B3E6"/>
</g>
<path opacity="0.1" d="M612.218 507.536C625.753 507.536 636.726 503.622 636.726 498.793C636.726 493.964 625.753 490.05 612.218 490.05C598.682 490.05 587.71 493.964 587.71 498.793C587.71 503.622 598.682 507.536 612.218 507.536Z" fill="black"/>
<path d="M612.236 498.866C612.236 498.866 626.219 451.24 609.613 416.182C602.646 401.469 600.331 384.953 603.549 368.989C605.09 361.416 607.318 354 610.207 346.835" stroke="#535461" stroke-width="2" stroke-miterlimit="10"/>
<path d="M599.876 324.677C599.876 330.515 610.41 347.445 610.41 347.445C610.41 347.445 620.944 330.52 620.944 324.677C620.944 321.874 619.834 319.186 617.859 317.204C615.883 315.222 613.204 314.109 610.41 314.109C607.617 314.109 604.937 315.222 602.962 317.204C600.986 319.186 599.876 321.874 599.876 324.677Z" fill="#46B3E6"/>
<path d="M582.463 357.007C585.64 361.907 603.635 370.372 603.635 370.372C603.635 370.372 603.308 350.418 600.145 345.519C599.393 344.353 598.419 343.347 597.28 342.558C596.141 341.769 594.858 341.214 593.504 340.922C592.151 340.631 590.753 340.611 589.392 340.861C588.03 341.112 586.731 341.629 585.569 342.384C584.407 343.138 583.404 344.115 582.618 345.258C581.832 346.401 581.278 347.688 580.988 349.046C580.698 350.404 580.677 351.806 580.927 353.172C581.177 354.538 581.693 355.841 582.445 357.007H582.463Z" fill="#46B3E6"/>
<path d="M583.212 412.261C588.409 414.888 608.215 413.071 608.215 413.071C608.215 413.071 597.894 396.014 592.697 393.386C591.462 392.761 590.116 392.387 588.737 392.284C587.357 392.181 585.971 392.351 584.657 392.786C583.343 393.22 582.128 393.91 581.08 394.816C580.031 395.722 579.171 396.826 578.549 398.065C577.926 399.304 577.552 400.655 577.45 402.039C577.347 403.423 577.517 404.814 577.95 406.132C578.383 407.45 579.071 408.67 579.973 409.721C580.876 410.773 581.977 411.636 583.212 412.261Z" fill="#46B3E6"/>
<path d="M593.196 453.936C597.876 457.406 617.704 458.977 617.704 458.977C617.704 458.977 610.406 440.412 605.727 436.942C604.615 436.116 603.352 435.519 602.009 435.183C600.667 434.847 599.272 434.78 597.904 434.985C596.536 435.191 595.221 435.664 594.035 436.379C592.85 437.094 591.816 438.037 590.993 439.152C590.17 440.268 589.574 441.536 589.24 442.883C588.905 444.229 588.838 445.629 589.043 447.002C589.248 448.375 589.72 449.694 590.432 450.883C591.145 452.073 592.084 453.11 593.196 453.936Z" fill="#46B3E6"/>
<path d="M625.756 371.502C621.585 375.568 602.156 379.78 602.156 379.78C602.156 379.78 606.917 360.405 611.088 356.338C612.078 355.364 613.251 354.595 614.539 354.076C615.827 353.557 617.204 353.299 618.592 353.316C619.979 353.333 621.35 353.625 622.625 354.175C623.899 354.725 625.053 355.522 626.02 356.521C626.987 357.52 627.747 358.7 628.258 359.995C628.769 361.289 629.019 362.672 628.996 364.065C628.972 365.457 628.674 366.83 628.12 368.107C627.566 369.383 626.765 370.537 625.765 371.502H625.756Z" fill="#46B3E6"/>
<path d="M636.767 420.389C631.57 423.017 611.764 421.2 611.764 421.2C611.764 421.2 622.085 404.142 627.281 401.514C628.517 400.89 629.862 400.515 631.242 400.412C632.622 400.309 634.008 400.479 635.322 400.914C636.636 401.348 637.851 402.038 638.899 402.944C639.947 403.85 640.807 404.954 641.43 406.193C642.053 407.433 642.427 408.783 642.529 410.167C642.632 411.551 642.462 412.942 642.029 414.26C641.596 415.578 640.908 416.798 640.005 417.85C639.103 418.901 638.002 419.764 636.767 420.389Z" fill="#46B3E6"/>
<path d="M641.005 469.381C636.326 472.851 616.497 474.422 616.497 474.422C616.497 474.422 623.795 455.857 628.474 452.387C629.585 451.543 630.852 450.929 632.201 450.58C633.55 450.23 634.955 450.153 636.334 450.352C637.713 450.552 639.039 451.023 640.235 451.74C641.431 452.457 642.474 453.405 643.302 454.529C644.131 455.653 644.729 456.931 645.062 458.288C645.395 459.646 645.456 461.056 645.242 462.437C645.028 463.819 644.543 465.144 643.815 466.336C643.087 467.528 642.13 468.563 641.001 469.381H641.005Z" fill="#46B3E6"/>
<path opacity="0.1" d="M551.22 482.4C564.756 482.4 575.728 478.486 575.728 473.657C575.728 468.828 564.756 464.914 551.22 464.914C537.685 464.914 526.712 468.828 526.712 473.657C526.712 478.486 537.685 482.4 551.22 482.4Z" fill="black"/>
<path d="M550.226 474.9C550.226 474.9 556.775 452.588 548.996 436.163C545.689 429.295 544.692 421.536 546.155 414.051C546.878 410.503 547.923 407.029 549.278 403.673" stroke="#535461" stroke-width="2" stroke-miterlimit="10"/>
<path d="M544.435 393.291C544.435 396.023 549.368 403.955 549.368 403.955C549.368 403.955 554.302 396.023 554.302 393.291C554.302 391.977 553.782 390.718 552.856 389.789C551.93 388.86 550.675 388.339 549.366 388.339C548.057 388.339 546.802 388.86 545.876 389.789C544.95 390.718 544.43 391.977 544.43 393.291H544.435Z" fill="#46B3E6"/>
<path d="M536.279 408.436C537.758 410.712 546.2 414.697 546.2 414.697C546.2 414.697 546.045 405.348 544.566 403.053C544.214 402.507 543.758 402.036 543.224 401.667C542.69 401.298 542.089 401.038 541.456 400.902C540.822 400.766 540.167 400.756 539.53 400.874C538.892 400.991 538.284 401.234 537.74 401.587C537.196 401.94 536.726 402.398 536.358 402.933C535.991 403.469 535.731 404.072 535.596 404.708C535.46 405.344 535.45 406 535.568 406.64C535.685 407.279 535.926 407.89 536.279 408.436Z" fill="#46B3E6"/>
<path d="M536.633 434.323C539.066 435.553 548.347 434.706 548.347 434.706C548.347 434.706 543.513 426.714 541.085 425.48C540.507 425.187 539.876 425.012 539.23 424.964C538.583 424.915 537.934 424.995 537.318 425.199C536.075 425.61 535.046 426.5 534.457 427.673C533.868 428.845 533.767 430.205 534.177 431.452C534.586 432.699 535.473 433.732 536.642 434.323H536.633Z" fill="#46B3E6"/>
<path d="M541.298 453.849C543.491 455.475 552.781 456.212 552.781 456.212C552.781 456.212 549.359 447.515 547.171 445.889C546.65 445.503 546.058 445.223 545.429 445.066C544.8 444.909 544.146 444.877 543.505 444.974C542.864 445.07 542.249 445.292 541.693 445.628C541.138 445.963 540.654 446.404 540.268 446.927C539.883 447.45 539.604 448.044 539.447 448.675C539.291 449.306 539.26 449.962 539.356 450.605C539.452 451.249 539.673 451.866 540.007 452.424C540.342 452.981 540.782 453.467 541.303 453.853L541.298 453.849Z" fill="#46B3E6"/>
<path d="M556.562 415.23C554.606 417.133 545.497 419.11 545.497 419.11C545.497 419.11 547.73 410.03 549.682 408.126C550.62 407.211 551.883 406.708 553.192 406.728C554.5 406.747 555.748 407.287 556.66 408.229C557.571 409.171 558.073 410.438 558.054 411.751C558.035 413.064 557.496 414.315 556.557 415.23H556.562Z" fill="#46B3E6"/>
<path d="M561.731 438.135C559.298 439.364 550.017 438.517 550.017 438.517C550.017 438.517 554.85 430.526 557.278 429.292C558.447 428.7 559.802 428.599 561.045 429.011C562.288 429.422 563.318 430.312 563.907 431.484C564.496 432.657 564.597 434.016 564.187 435.264C563.777 436.511 562.89 437.544 561.722 438.135H561.731Z" fill="#46B3E6"/>
<path d="M563.696 461.071C561.504 462.696 552.214 463.434 552.214 463.434C552.214 463.434 555.636 454.737 557.823 453.111C558.344 452.724 558.936 452.444 559.565 452.287C560.193 452.129 560.847 452.097 561.488 452.193C562.129 452.289 562.745 452.511 563.301 452.846C563.856 453.181 564.341 453.622 564.726 454.145C565.112 454.667 565.391 455.261 565.548 455.892C565.705 456.523 565.736 457.179 565.641 457.822C565.545 458.465 565.324 459.083 564.99 459.64C564.657 460.198 564.217 460.684 563.696 461.071Z" fill="#46B3E6"/>
<path d="M677.26 519.288L536.729 444.496H507.261L514.885 380.818C515.052 379.425 514.94 378.011 514.556 376.661C514.172 375.311 513.523 374.052 512.648 372.957C511.773 371.861 510.688 370.952 509.459 370.283C508.229 369.613 506.878 369.196 505.486 369.056L504.696 369.088H504.619L397.415 370.723C394.671 370.528 391.947 371.321 389.733 372.959C387.519 374.598 385.959 376.974 385.333 379.662L380.341 416.254L379.619 415.148L379.27 414.615C381.907 412.894 376.706 402.662 372.299 395.035L371.899 394.343C374.695 393.172 377.799 392.066 377.799 392.066L370.924 387.758C370.924 387.758 364.597 378.569 357.862 371.115C362.4 342.6 352.815 309.641 352.701 309.186L352.447 309.254C353.778 307.092 354.479 304.6 354.471 302.059C354.472 300.124 354.063 298.211 353.271 296.446C352.48 294.681 351.323 293.105 349.879 291.823C349.611 289.382 349.225 286.869 348.671 284.223C348.571 283.768 348.467 283.262 348.354 282.78C347.836 280.503 347.314 278.226 346.629 275.995C346.154 274.404 345.564 272.85 344.863 271.345C341.283 263.755 333.917 258.327 325.847 256.414C321.694 255.431 317.437 256.956 313.561 256.228C311.61 255.868 309.862 253.987 307.961 253.227C305.551 252.261 302.941 251.811 300.391 251.405C297.214 250.873 293.914 250.344 290.751 251.036C285.532 252.175 281.551 256.419 278.624 260.9C275.697 265.38 273.423 270.344 269.806 274.287C267.387 276.928 264.409 279.05 262.253 281.91C259.077 286.117 257.974 291.472 256.952 296.673C255.691 303.07 254.429 309.559 254.456 316.057C254.456 317.564 254.479 319.076 254.611 320.588C254.942 324.468 255.822 328.293 256.031 332.177C256.031 332.596 256.063 333.015 256.072 333.434C256.027 340.542 253.934 347.55 251.856 354.38C251.193 356.552 250.521 358.743 249.736 360.883C245.561 361.238 241.567 362.076 238.522 363.724C227.393 369.698 218.829 383.022 218.829 383.022L202.549 398.049C202.549 398.049 208.976 401.059 211.976 406.218C212.083 406.4 212.206 406.572 212.343 406.733L212.107 407.279L202.549 429.428C202.549 429.428 208.549 433.727 217.526 432.866C218.985 432.683 220.466 432.791 221.883 433.185C221.883 433.458 221.856 433.736 221.847 434.027C221.298 446.7 221.007 474.468 227.543 493.224L212.775 510.527L183.274 519.293L181.99 542.061H678.117L677.26 519.288ZM251.779 434.387C253.044 434.645 254.278 435.039 255.459 435.562V451.39C254.679 445.798 253.594 440.07 252.083 435.307C251.987 434.997 251.901 434.692 251.779 434.387ZM336.962 464.846C336.962 464.791 336.962 464.736 336.962 464.682C336.98 464.129 337.054 463.58 337.184 463.043C337.369 462.21 337.779 461.444 338.369 460.829C339.463 459.732 340.593 458.553 341.723 457.273C342.419 459.075 343.423 460.741 344.691 462.196C346.143 463.821 349.388 465.283 353.945 466.603C348.318 465.727 342.649 465.141 336.962 464.846ZM374.001 462.66L359.169 467.063C352.157 465.488 347.169 463.685 345.322 461.599C344.03 460.104 343.026 458.381 342.363 456.517C347.655 450.361 352.801 442.078 353.981 430.767C354.013 430.471 354.036 430.166 354.063 429.856C355.672 428.938 357.192 427.871 358.602 426.668L358.869 427.297C362.857 436.395 368.498 444.668 375.503 451.695L374.001 462.66ZM352.016 309.919C353.183 314.14 361.093 344.025 357.127 370.304C354.658 367.636 352.166 365.25 349.933 363.679C349.404 363.311 348.851 362.981 348.276 362.691C347.782 357.873 347.555 352.878 347.518 347.928C347.564 341.799 347.927 335.72 348.426 329.937C348.966 323.807 349.602 317.961 349.997 312.209C350.753 311.524 351.43 310.755 352.016 309.919Z" fill="url(#paint0_linear)"/>
<path d="M344.777 317.278H340.905V290.412H344.777C347.733 290.412 350.568 291.59 352.659 293.687C354.749 295.785 355.923 298.629 355.923 301.595V306.067C355.927 307.538 355.641 308.995 355.083 310.355C354.524 311.715 353.704 312.951 352.668 313.993C351.633 315.034 350.403 315.86 349.049 316.424C347.694 316.988 346.243 317.278 344.777 317.278Z" fill="#DFE6F5"/>
<path d="M340.356 317.278H341.455C342.966 317.278 344.191 316.049 344.191 314.532V293.18C344.191 291.664 342.966 290.435 341.455 290.435H340.356C338.845 290.435 337.62 291.664 337.62 293.18V314.532C337.62 316.049 338.845 317.278 340.356 317.278Z" fill="#535461"/>
<g opacity="0.1">
<path opacity="0.1" d="M344.777 317.278H340.905V290.412H344.777C347.733 290.412 350.568 291.59 352.659 293.687C354.749 295.785 355.923 298.629 355.923 301.595V306.067C355.927 307.538 355.641 308.995 355.083 310.355C354.524 311.715 353.704 312.951 352.668 313.993C351.633 315.034 350.403 315.86 349.049 316.424C347.694 316.988 346.243 317.278 344.777 317.278Z" fill="black"/>
<path opacity="0.1" d="M340.357 317.278H341.455C342.967 317.278 344.192 316.049 344.192 314.532V293.18C344.192 291.664 342.967 290.434 341.455 290.434H340.357C338.846 290.434 337.62 291.664 337.62 293.18V314.532C337.62 316.049 338.846 317.278 340.357 317.278Z" fill="black"/>
</g>
<path d="M346.62 304.632H278.955V375.054H346.62V304.632Z" fill="#865A61"/>
<path opacity="0.1" d="M346.62 294.933H278.955V365.355H346.62V294.933Z" fill="black"/>
<path d="M344.309 363.037L340.224 392.817L338.3 406.815L337.592 411.956L331.66 423.559L320.768 444.851L299.754 447.383L262.793 395.085C262.793 395.085 243.441 357.978 272.864 361.347C289.361 363.242 293.287 348.424 293.582 335.041C293.656 328.303 293.048 321.575 291.767 314.96L321.185 329.299C320.501 332.496 319.987 335.433 319.642 338.11C318.208 349.066 319.397 355.897 321.884 360.036C328.506 371.06 344.309 363.037 344.309 363.037Z" fill="#FDC2CC"/>
<path opacity="0.1" d="M321.194 329.304C320.51 332.5 319.996 335.437 319.651 338.115C316.598 338.987 313.44 339.428 310.266 339.426C304.421 339.436 298.674 337.929 293.582 335.05C293.656 328.312 293.048 321.584 291.767 314.969L321.194 329.304Z" fill="black"/>
<path d="M310.267 338.579C329.068 338.579 344.31 323.287 344.31 304.423C344.31 285.558 329.068 270.266 310.267 270.266C291.465 270.266 276.223 285.558 276.223 304.423C276.223 323.287 291.465 338.579 310.267 338.579Z" fill="#FDC2CC"/>
<path d="M355.66 498.82L215.701 509.795L238.394 483.229C262.743 468.302 262.534 447.784 259.298 435.056C258.294 430.978 256.776 427.044 254.782 423.349L303.158 423.577H303.567L307.542 432.643L307.724 433.053L310.683 439.797L320.768 421.664L324.276 415.991L326.237 412.803C326.237 412.803 355.238 406.055 355.655 423.345C355.705 425.33 355.628 427.316 355.424 429.292C353.98 443.207 346.392 452.46 340.106 458.767C332.963 465.93 355.66 498.82 355.66 498.82Z" fill="#46B3E6"/>
<path d="M338.944 461.772C337.918 465.87 340.505 472.915 343.936 479.832C327.484 481.607 309.444 480.683 309.444 480.683L290.931 485.747L238.82 500.928C236.551 497.982 234.735 494.28 233.233 490.109L238.398 484.062C254.65 474.099 259.96 461.645 260.736 450.68C261.045 445.703 260.561 440.709 259.302 435.885C258.299 431.809 256.783 427.879 254.791 424.187L303.167 424.414H303.575L307.551 433.481L307.733 433.89L310.692 440.634L320.776 422.502L324.276 416.828L326.236 413.641C326.236 413.641 355.237 406.883 355.659 424.187C355.71 426.172 355.632 428.158 355.428 430.134C353.985 444.049 346.396 453.302 340.11 459.609C339.531 460.209 339.128 460.957 338.944 461.772Z" fill="#46B3E6"/>
<path d="M448.123 483.639C447.283 493.757 422.907 480.264 422.907 480.264C422.907 480.264 415.341 477.732 389.703 461.289C376.687 452.943 366.422 440.919 360.203 426.732C359.222 424.539 358.401 422.278 357.747 419.966L375.411 406.883L380.562 414.784L397.686 441.035L422.902 457.883C422.902 457.883 448.962 473.52 448.123 483.639Z" fill="#FDC2CC"/>
<path d="M672.553 516.953H187.962L236.474 502.55L357.752 466.54L435.089 443.576H534.7L672.553 516.953Z" fill="#CBCDDA"/>
<path d="M187.962 516.953L186.7 539.302H673.392L672.553 516.953H187.962Z" fill="#CBCDDA"/>
<path opacity="0.1" d="M187.962 516.953L186.7 539.302H673.392L672.553 516.953H187.962Z" fill="black"/>
<path d="M315.009 485.346L417.438 474.786L418.7 495.027L371.881 499.685C368.651 499.948 365.4 499.695 362.25 498.934L314.923 486.667C314.772 486.627 314.639 486.536 314.548 486.409C314.457 486.282 314.412 486.127 314.423 485.971C314.433 485.814 314.497 485.667 314.604 485.553C314.711 485.439 314.854 485.366 315.009 485.346Z" fill="#535461"/>
<path opacity="0.2" d="M315.009 485.346L417.438 474.786L418.7 495.027L371.881 499.685C368.651 499.948 365.4 499.695 362.25 498.934L314.923 486.667C314.772 486.627 314.639 486.536 314.548 486.409C314.457 486.282 314.412 486.127 314.423 485.971C314.433 485.814 314.497 485.667 314.604 485.553C314.711 485.439 314.854 485.366 315.009 485.346Z" fill="black"/>
<path d="M315.009 484.923L418.283 474.363L419.545 494.603L372.721 498.41C369.493 498.677 366.244 498.428 363.095 497.673L314.923 486.248C314.769 486.21 314.633 486.12 314.54 485.992C314.446 485.864 314.4 485.707 314.41 485.549C314.421 485.39 314.486 485.241 314.596 485.126C314.705 485.012 314.852 484.94 315.009 484.923Z" fill="#535461"/>
<path opacity="0.3" d="M339.494 485.66L394.101 480.077L394.768 490.778L370.011 492.796C368.303 492.935 366.584 492.801 364.919 492.399L339.449 486.357C339.369 486.336 339.298 486.288 339.25 486.221C339.201 486.154 339.178 486.072 339.183 485.99C339.189 485.907 339.223 485.829 339.279 485.769C339.336 485.708 339.412 485.67 339.494 485.66Z" fill="white"/>
<path opacity="0.1" d="M380.563 414.793C380.231 415.248 379.655 415.453 378.775 415.326C370.369 414.06 360.702 426.291 360.702 426.291C360.702 426.291 360.53 426.455 360.217 426.746C359.236 424.553 358.415 422.292 357.761 419.979L375.412 406.883L380.563 414.793Z" fill="black"/>
<path opacity="0.1" d="M355.428 430.107C351.475 432.315 346.034 433.9 341.79 429.651C334.46 422.297 321.612 423.276 320.813 423.322C322.125 423.14 323.287 420.435 324.276 416.81L326.237 413.623C326.237 413.623 355.238 406.883 355.66 424.187C355.709 426.163 355.632 428.14 355.428 430.107Z" fill="black"/>
<path opacity="0.1" d="M340.215 392.817L337.583 411.942L331.651 423.545C327.975 422.6 324.173 422.242 320.386 422.484C324.566 421.906 327.267 395.7 327.267 395.7L327.507 395.645L340.215 392.817Z" fill="black"/>
<path d="M378.774 414.483C370.369 413.217 360.702 425.448 360.702 425.448C360.702 425.448 349.356 436.413 341.79 428.822C334.46 421.468 321.612 422.447 320.813 422.493C324.993 421.91 327.693 395.704 327.693 395.704L327.934 395.649L368.268 386.651C368.268 386.651 370.673 390.349 373.387 395.057C378.284 403.541 384.184 415.298 378.774 414.483Z" fill="#46B3E6"/>
<path opacity="0.1" d="M368.685 397.617C369.107 398.459 361.959 402.676 358.6 401.41C355.242 400.144 346.832 406.874 345.992 407.735C345.153 408.595 326.241 406.469 326.241 406.469C327.026 402.9 327.591 399.287 327.934 395.649L368.267 386.651C368.267 386.651 370.673 390.349 373.387 395.057C370.877 396.091 368.481 397.202 368.685 397.617Z" fill="black"/>
<path opacity="0.1" d="M344.31 363.037L340.225 392.817L338.301 406.815C332.664 406.392 325.829 405.631 325.829 405.631C325.829 405.631 332.973 375.691 321.204 360.095C321.204 360.095 321.454 360.095 321.903 360.05C328.507 371.06 344.31 363.037 344.31 363.037Z" fill="black"/>
<path d="M321.617 360.086C321.617 360.086 343.053 358.401 351.458 364.302C359.863 370.204 372.054 387.917 372.054 387.917L378.78 392.134C378.78 392.134 368.273 395.927 368.695 396.774C369.117 397.621 361.969 401.833 358.611 400.567C355.252 399.301 346.842 406.032 346.003 406.892C345.163 407.753 326.251 405.626 326.251 405.626C326.251 405.626 333.386 375.686 321.617 360.086Z" fill="#46B3E6"/>
<path d="M476.48 476.257C471.615 476.139 357.231 473.161 346.311 460.939C334.683 447.925 345.971 410.426 355.474 383.35C365.818 353.875 353.486 311.549 353.364 311.066L354.176 310.852C354.303 311.34 366.698 353.911 356.269 383.628C341.487 425.753 338.432 450.857 346.937 460.374C357.621 472.327 475.314 475.401 476.503 475.401L476.48 476.257Z" fill="#DFE6F5"/>
<path d="M397.401 371.188L503.212 369.576C504.576 369.715 505.898 370.126 507.102 370.784C508.306 371.442 509.368 372.335 510.224 373.409C511.081 374.483 511.715 375.718 512.091 377.041C512.466 378.364 512.575 379.749 512.411 381.114L500.407 481.385C500.12 483.794 498.999 486.025 497.24 487.689C495.48 489.354 493.195 490.346 490.781 490.492L382.633 497.208C381.101 497.3 379.569 497.049 378.147 496.472C376.724 495.895 375.448 495.007 374.411 493.873C373.374 492.739 372.602 491.388 372.151 489.916C371.7 488.445 371.581 486.892 371.804 485.369L386.164 379.99C386.549 377.354 387.931 374.968 390.024 373.329C392.117 371.69 394.759 370.923 397.401 371.188Z" fill="#535461"/>
<path opacity="0.2" d="M397.401 371.188L503.212 369.576C504.576 369.715 505.898 370.126 507.102 370.784C508.306 371.442 509.368 372.335 510.224 373.409C511.081 374.483 511.715 375.718 512.091 377.041C512.466 378.364 512.575 379.749 512.411 381.114L500.407 481.385C500.12 483.794 498.999 486.025 497.24 487.689C495.48 489.354 493.195 490.346 490.781 490.492L382.633 497.208C381.101 497.3 379.569 497.049 378.147 496.472C376.724 495.895 375.448 495.007 374.411 493.873C373.374 492.739 372.602 491.388 372.151 489.916C371.7 488.445 371.581 486.892 371.804 485.369L386.164 379.99C386.549 377.354 387.931 374.968 390.024 373.329C392.117 371.69 394.759 370.923 397.401 371.188Z" fill="black"/>
<path d="M398.24 371.188L504.051 369.576C505.416 369.713 506.741 370.122 507.947 370.779C509.153 371.437 510.216 372.328 511.075 373.403C511.933 374.477 512.569 375.713 512.946 377.037C513.323 378.361 513.432 379.747 513.268 381.114L501.264 481.385C500.977 483.794 499.856 486.025 498.097 487.689C496.338 489.354 494.052 490.346 491.638 490.492L383.476 497.208C381.945 497.3 380.412 497.049 378.99 496.472C377.568 495.895 376.292 495.007 375.254 493.873C374.217 492.739 373.445 491.388 372.994 489.916C372.543 488.445 372.424 486.892 372.647 485.369L387.007 379.99C387.392 377.355 388.774 374.97 390.866 373.331C392.958 371.692 395.599 370.924 398.24 371.188Z" fill="#535461"/>
<path opacity="0.3" d="M450.011 433.244C452.796 433.244 455.053 430.979 455.053 428.185C455.053 425.391 452.796 423.126 450.011 423.126C447.226 423.126 444.969 425.391 444.969 428.185C444.969 430.979 447.226 433.244 450.011 433.244Z" fill="white"/>
<path opacity="0.1" d="M343.936 479.836C327.484 481.612 309.444 480.688 309.444 480.688L290.931 485.747L238.82 500.928C236.551 497.982 234.735 494.28 233.233 490.109L238.398 484.062C254.65 474.099 259.96 461.645 260.736 450.68C262.125 461.585 262.357 471.408 262.357 471.408L283.37 469.299L313.9 462.014C316.003 461.512 318.157 461.259 320.318 461.262C324.294 461.262 331.369 461.349 338.926 461.759C337.918 465.861 340.505 472.91 343.936 479.836Z" fill="black"/>
<path opacity="0.1" d="M367.006 474.363C357.339 485.747 307.747 483.22 307.747 483.22L289.252 488.279L237.137 503.456C236.91 503.16 236.683 502.859 236.474 502.545L357.757 466.535C365.499 468.102 370.251 470.542 367.006 474.363Z" fill="black"/>
<path d="M367.006 473.521C357.339 484.905 307.747 482.377 307.747 482.377L289.253 487.432L237.137 502.614C224.883 486.676 225.155 448.695 225.822 433.331C226.004 429.205 226.208 426.71 226.208 426.71C226.208 426.71 243.858 415.745 251.846 426.71C253.271 428.663 254.465 431.395 255.477 434.565C260.111 449.177 260.678 473.093 260.678 473.093L281.691 470.984L312.222 463.699C314.326 463.196 316.481 462.944 318.644 462.947C331.297 462.984 375.303 463.749 367.006 473.521Z" fill="#FDC2CC"/>
<path opacity="0.1" d="M255.473 434.569C252.79 433.986 249.536 434.114 245.125 435.99C236.297 439.783 229.576 438.941 229.576 438.941C229.576 438.941 230.116 434.638 225.827 433.331C226.009 429.205 226.213 426.71 226.213 426.71C226.213 426.71 243.863 415.745 251.851 426.71C253.262 428.663 254.465 431.395 255.473 434.569Z" fill="black"/>
<path opacity="0.1" d="M307.724 433.882C307.443 433.941 303.662 434.656 296.378 433.035C288.812 431.35 285.871 434.719 281.669 436.409C277.466 438.098 266.56 438.941 262.339 437.256C261.345 436.855 260.347 436.345 259.289 435.89C258.291 431.813 256.779 427.881 254.792 424.187L303.168 424.415L307.552 433.481L307.724 433.882Z" fill="black"/>
<path d="M307.724 433.039C307.724 433.039 303.944 433.882 296.378 432.197C288.812 430.512 285.871 433.882 281.669 435.571C277.466 437.26 266.537 438.103 262.335 436.413C258.132 434.724 253.929 431.354 245.088 435.147C236.247 438.941 229.539 438.098 229.539 438.098C229.539 438.098 230.379 431.35 221.556 432.179C212.733 433.007 206.847 428.804 206.847 428.804L216.223 407.075L219.037 400.549L289.357 395.727H289.693L307.724 433.039Z" fill="#46B3E6"/>
<path opacity="0.1" d="M296.378 412.803C291.753 405.212 267.377 411.961 267.377 411.961C267.377 411.961 255.608 415.335 253.085 409.01C250.561 402.685 232.516 406.883 232.516 406.883C232.516 406.883 219.423 411.81 216.255 407.084L219.069 400.558L289.357 395.727L296.378 412.803Z" fill="black"/>
<path d="M276.223 363.037C276.223 363.037 253.108 358.397 242.184 364.303C231.26 370.209 222.854 383.278 222.854 383.278L206.879 398.036C206.879 398.036 213.183 400.986 216.124 406.045C219.065 411.105 232.517 406.045 232.517 406.045C232.517 406.045 250.589 401.829 253.113 408.154C255.636 414.479 267.404 411.105 267.404 411.105C267.404 411.105 291.781 404.356 296.405 411.947L276.223 363.037Z" fill="#46B3E6"/>
<path opacity="0.1" d="M302.868 254.989C299.736 254.461 296.514 253.946 293.41 254.625C288.29 255.74 284.387 259.907 281.514 264.297C278.641 268.686 276.408 273.559 272.864 277.425C270.49 280.016 267.572 282.097 265.457 284.902C262.344 289.032 261.259 294.3 260.256 299.382C258.785 306.841 257.31 314.409 257.959 322C258.286 325.807 259.148 329.554 259.353 333.384C259.766 341.075 257.501 348.625 255.268 355.992C253.72 361.083 252.123 366.27 249.064 370.618C247.035 373.501 244.435 375.914 241.957 378.414C241.358 378.924 240.908 379.586 240.654 380.331C240.118 382.508 242.737 383.974 244.739 384.958C250.861 388.022 254.878 394.001 259.639 398.928C264.399 403.855 271.212 408.085 277.761 406.109C279.703 405.522 281.546 404.406 283.57 404.443C284.932 404.465 286.239 405.021 287.532 405.476C290.75 406.61 294.138 407.18 297.549 407.161C298.302 407.225 299.058 407.067 299.723 406.706C300.735 406.018 300.93 404.634 301.03 403.413C301.67 395.754 302.305 388.068 301.874 380.395C300.898 363.018 284.895 342.919 290.982 326.613C293.627 319.5 298.466 313.38 301.143 306.281C303.966 298.799 313.919 292.725 315.893 284.97C316.116 284.096 316.42 283.149 317.182 282.693C318.231 282.047 319.597 282.611 320.609 283.312C326.337 287.274 328.202 294.724 330.285 301.381C331.964 306.743 334.044 311.97 336.507 317.018C337.869 319.75 340.792 322.915 343.351 321.258C342.063 332.769 334.619 342.823 332.936 354.28C331.293 365.446 335.273 376.857 333.73 388.031C332.714 395.226 329.467 401.917 324.449 407.156C330.112 408.285 335.935 408.338 341.618 407.311C347.377 406.268 353.54 403.532 355.619 398.04C357.888 391.998 354.38 385.513 352.596 379.302C348.317 364.371 348.648 346.712 350.005 331.234C351.403 315.32 353.5 301.386 349.946 285.812C349.075 281.992 348.19 278.14 346.519 274.597C343.007 267.152 335.781 261.824 327.861 259.948C323.777 258.983 319.61 260.481 315.807 259.77C313.892 259.411 312.176 257.571 310.316 256.824C307.928 255.845 305.369 255.408 302.868 254.989Z" fill="black"/>
<path d="M355.597 397.166C353.518 402.658 347.355 405.394 341.591 406.437C335.908 407.461 330.085 407.409 324.422 406.282C329.438 401.042 332.685 394.351 333.703 387.157C335.25 375.978 331.27 364.567 332.909 353.406C334.592 341.944 342.036 331.89 343.324 320.379C340.765 322.036 337.819 318.885 336.476 316.139C334.013 311.091 331.933 305.864 330.254 300.502C328.17 293.845 326.305 286.386 320.577 282.434C319.565 281.732 318.199 281.168 317.151 281.819C316.384 282.274 316.084 283.235 315.862 284.096C313.892 291.837 303.935 297.92 301.116 305.402C298.434 312.501 293.596 318.607 290.95 325.734C284.887 342.036 300.889 362.135 301.842 379.512C302.269 387.184 301.634 394.875 300.998 402.53C300.894 403.755 300.699 405.139 299.687 405.827C299.023 406.188 298.269 406.346 297.517 406.282C294.116 406.303 290.737 405.736 287.528 404.606C286.235 404.151 284.937 403.596 283.566 403.573C281.542 403.541 279.699 404.657 277.757 405.239C271.208 407.216 264.391 402.985 259.634 398.058C254.878 393.131 250.848 387.162 244.73 384.115C242.728 383.114 240.11 381.665 240.645 379.484C240.902 378.742 241.351 378.081 241.948 377.572C244.426 375.072 247.031 372.654 249.06 369.776C252.119 365.427 253.712 360.241 255.264 355.15C257.506 347.782 259.77 340.232 259.348 332.541C259.149 328.73 258.286 324.982 257.955 321.157C257.302 313.58 258.781 306.003 260.252 298.544C261.25 293.462 262.335 288.194 265.453 284.064C267.572 281.259 270.486 279.178 272.864 276.587C276.413 272.721 278.637 267.848 281.514 263.454C284.392 259.06 288.295 254.898 293.414 253.782C296.514 253.104 299.741 253.623 302.873 254.147C305.373 254.57 307.933 255.007 310.298 255.968C312.163 256.715 313.879 258.559 315.789 258.91C319.593 259.625 323.773 258.127 327.844 259.092C335.763 260.963 342.989 266.291 346.501 273.736C347.189 275.21 347.768 276.732 348.235 278.29C348.907 280.476 349.42 282.711 349.928 284.943C350.037 285.398 350.141 285.89 350.241 286.359C353.35 301.185 351.344 311.982 349.987 327.405C348.63 342.828 348.299 363.492 352.574 378.405C354.358 384.634 357.884 391.123 355.597 397.166Z" fill="#865A61"/>
<path opacity="0.05" d="M307.116 423.972C307.116 423.972 310.48 429.437 310.48 433.248C310.48 433.248 313.003 423.972 315.104 423.972" fill="black"/>
<path opacity="0.1" d="M270.967 412.584C271.664 412.584 272.229 412.018 272.229 411.318C272.229 410.619 271.664 410.052 270.967 410.052C270.27 410.052 269.706 410.619 269.706 411.318C269.706 412.018 270.27 412.584 270.967 412.584Z" fill="black"/>
<path opacity="0.1" d="M270.967 416.801C271.664 416.801 272.229 416.234 272.229 415.535C272.229 414.836 271.664 414.269 270.967 414.269C270.27 414.269 269.706 414.836 269.706 415.535C269.706 416.234 270.27 416.801 270.967 416.801Z" fill="black"/>
<path opacity="0.1" d="M270.967 421.017C271.664 421.017 272.229 420.451 272.229 419.751C272.229 419.052 271.664 418.486 270.967 418.486C270.27 418.486 269.706 419.052 269.706 419.751C269.706 420.451 270.27 421.017 270.967 421.017Z" fill="black"/>
<path opacity="0.1" d="M270.967 425.234C271.664 425.234 272.229 424.668 272.229 423.969C272.229 423.269 271.664 422.703 270.967 422.703C270.27 422.703 269.706 423.269 269.706 423.969C269.706 424.668 270.27 425.234 270.967 425.234Z" fill="black"/>
<path opacity="0.1" d="M270.967 429.451C271.664 429.451 272.229 428.884 272.229 428.185C272.229 427.486 271.664 426.919 270.967 426.919C270.27 426.919 269.706 427.486 269.706 428.185C269.706 428.884 270.27 429.451 270.967 429.451Z" fill="black"/>
<path opacity="0.1" d="M270.967 433.668C271.664 433.668 272.229 433.101 272.229 432.402C272.229 431.703 271.664 431.136 270.967 431.136C270.27 431.136 269.706 431.703 269.706 432.402C269.706 433.101 270.27 433.668 270.967 433.668Z" fill="black"/>
<path opacity="0.1" d="M270.967 437.884C271.664 437.884 272.229 437.317 272.229 436.618C272.229 435.919 271.664 435.352 270.967 435.352C270.27 435.352 269.706 435.919 269.706 436.618C269.706 437.317 270.27 437.884 270.967 437.884Z" fill="black"/>
<path opacity="0.1" d="M270.967 442.105C271.664 442.105 272.229 441.538 272.229 440.839C272.229 440.14 271.664 439.573 270.967 439.573C270.27 439.573 269.706 440.14 269.706 440.839C269.706 441.538 270.27 442.105 270.967 442.105Z" fill="black"/>
<path opacity="0.1" d="M270.967 446.322C271.664 446.322 272.229 445.755 272.229 445.056C272.229 444.357 271.664 443.79 270.967 443.79C270.27 443.79 269.706 444.357 269.706 445.056C269.706 445.755 270.27 446.322 270.967 446.322Z" fill="black"/>
<path opacity="0.1" d="M270.967 450.538C271.664 450.538 272.229 449.972 272.229 449.272C272.229 448.573 271.664 448.007 270.967 448.007C270.27 448.007 269.706 448.573 269.706 449.272C269.706 449.972 270.27 450.538 270.967 450.538Z" fill="black"/>
<path opacity="0.1" d="M270.967 454.755C271.664 454.755 272.229 454.188 272.229 453.489C272.229 452.79 271.664 452.223 270.967 452.223C270.27 452.223 269.706 452.79 269.706 453.489C269.706 454.188 270.27 454.755 270.967 454.755Z" fill="black"/>
<path opacity="0.1" d="M270.967 458.972C271.664 458.972 272.229 458.405 272.229 457.706C272.229 457.007 271.664 456.44 270.967 456.44C270.27 456.44 269.706 457.007 269.706 457.706C269.706 458.405 270.27 458.972 270.967 458.972Z" fill="black"/>
<path opacity="0.1" d="M270.967 463.188C271.664 463.188 272.229 462.621 272.229 461.922C272.229 461.223 271.664 460.656 270.967 460.656C270.27 460.656 269.706 461.223 269.706 461.922C269.706 462.621 270.27 463.188 270.967 463.188Z" fill="black"/>
<path opacity="0.1" d="M270.967 467.405C271.664 467.405 272.229 466.838 272.229 466.139C272.229 465.44 271.664 464.873 270.967 464.873C270.27 464.873 269.706 465.44 269.706 466.139C269.706 466.838 270.27 467.405 270.967 467.405Z" fill="black"/>
<path opacity="0.1" d="M266.347 411.318C266.346 411.558 266.278 411.793 266.15 411.996C266.021 412.198 265.838 412.36 265.622 412.462C265.405 412.564 265.165 412.603 264.927 412.573C264.69 412.543 264.466 412.446 264.282 412.293C264.818 411.649 265.395 411.04 266.011 410.472C266.226 410.701 266.346 411.004 266.347 411.318Z" fill="black"/>
<path opacity="0.1" d="M265.085 416.801C265.782 416.801 266.347 416.234 266.347 415.535C266.347 414.836 265.782 414.269 265.085 414.269C264.388 414.269 263.823 414.836 263.823 415.535C263.823 416.234 264.388 416.801 265.085 416.801Z" fill="black"/>
<path opacity="0.1" d="M265.085 421.017C265.782 421.017 266.347 420.451 266.347 419.751C266.347 419.052 265.782 418.486 265.085 418.486C264.388 418.486 263.823 419.052 263.823 419.751C263.823 420.451 264.388 421.017 265.085 421.017Z" fill="black"/>
<path opacity="0.1" d="M265.085 425.234C265.782 425.234 266.347 424.668 266.347 423.969C266.347 423.269 265.782 422.703 265.085 422.703C264.388 422.703 263.823 423.269 263.823 423.969C263.823 424.668 264.388 425.234 265.085 425.234Z" fill="black"/>
<path opacity="0.1" d="M265.085 429.451C265.782 429.451 266.347 428.884 266.347 428.185C266.347 427.486 265.782 426.919 265.085 426.919C264.388 426.919 263.823 427.486 263.823 428.185C263.823 428.884 264.388 429.451 265.085 429.451Z" fill="black"/>
<path opacity="0.1" d="M265.085 433.668C265.782 433.668 266.347 433.101 266.347 432.402C266.347 431.703 265.782 431.136 265.085 431.136C264.388 431.136 263.823 431.703 263.823 432.402C263.823 433.101 264.388 433.668 265.085 433.668Z" fill="black"/>
<path opacity="0.1" d="M265.085 437.884C265.782 437.884 266.347 437.317 266.347 436.618C266.347 435.919 265.782 435.352 265.085 435.352C264.388 435.352 263.823 435.919 263.823 436.618C263.823 437.317 264.388 437.884 265.085 437.884Z" fill="black"/>
<path opacity="0.1" d="M265.085 442.105C265.782 442.105 266.347 441.538 266.347 440.839C266.347 440.14 265.782 439.573 265.085 439.573C264.388 439.573 263.823 440.14 263.823 440.839C263.823 441.538 264.388 442.105 265.085 442.105Z" fill="black"/>
<path opacity="0.1" d="M265.085 446.322C265.782 446.322 266.347 445.755 266.347 445.056C266.347 444.357 265.782 443.79 265.085 443.79C264.388 443.79 263.823 444.357 263.823 445.056C263.823 445.755 264.388 446.322 265.085 446.322Z" fill="black"/>
<path opacity="0.1" d="M265.085 450.538C265.782 450.538 266.347 449.972 266.347 449.272C266.347 448.573 265.782 448.007 265.085 448.007C264.388 448.007 263.823 448.573 263.823 449.272C263.823 449.972 264.388 450.538 265.085 450.538Z" fill="black"/>
<path opacity="0.1" d="M265.085 454.755C265.782 454.755 266.347 454.188 266.347 453.489C266.347 452.79 265.782 452.223 265.085 452.223C264.388 452.223 263.823 452.79 263.823 453.489C263.823 454.188 264.388 454.755 265.085 454.755Z" fill="black"/>
<path opacity="0.1" d="M265.085 458.972C265.782 458.972 266.347 458.405 266.347 457.706C266.347 457.007 265.782 456.44 265.085 456.44C264.388 456.44 263.823 457.007 263.823 457.706C263.823 458.405 264.388 458.972 265.085 458.972Z" fill="black"/>
<path opacity="0.1" d="M265.085 463.188C265.782 463.188 266.347 462.621 266.347 461.922C266.347 461.223 265.782 460.656 265.085 460.656C264.388 460.656 263.823 461.223 263.823 461.922C263.823 462.621 264.388 463.188 265.085 463.188Z" fill="black"/>
<path opacity="0.1" d="M266.346 466.139C266.347 466.404 266.264 466.662 266.11 466.877C265.956 467.092 265.739 467.253 265.489 467.337C264.944 466.786 264.43 466.205 263.95 465.597C264.071 465.336 264.278 465.125 264.535 464.998C264.793 464.872 265.086 464.837 265.366 464.9C265.645 464.964 265.895 465.121 266.074 465.346C266.252 465.572 266.348 465.851 266.346 466.139Z" fill="black"/>
<path opacity="0.1" d="M276.853 412.584C277.55 412.584 278.115 412.018 278.115 411.318C278.115 410.619 277.55 410.052 276.853 410.052C276.156 410.052 275.592 410.619 275.592 411.318C275.592 412.018 276.156 412.584 276.853 412.584Z" fill="black"/>
<path opacity="0.1" d="M276.853 416.801C277.55 416.801 278.115 416.234 278.115 415.535C278.115 414.836 277.55 414.269 276.853 414.269C276.156 414.269 275.592 414.836 275.592 415.535C275.592 416.234 276.156 416.801 276.853 416.801Z" fill="black"/>
<path opacity="0.1" d="M276.853 421.017C277.55 421.017 278.115 420.451 278.115 419.751C278.115 419.052 277.55 418.486 276.853 418.486C276.156 418.486 275.592 419.052 275.592 419.751C275.592 420.451 276.156 421.017 276.853 421.017Z" fill="black"/>
<path opacity="0.1" d="M276.853 425.234C277.55 425.234 278.115 424.668 278.115 423.969C278.115 423.269 277.55 422.703 276.853 422.703C276.156 422.703 275.592 423.269 275.592 423.969C275.592 424.668 276.156 425.234 276.853 425.234Z" fill="black"/>
<path opacity="0.1" d="M276.853 429.451C277.55 429.451 278.115 428.884 278.115 428.185C278.115 427.486 277.55 426.919 276.853 426.919C276.156 426.919 275.592 427.486 275.592 428.185C275.592 428.884 276.156 429.451 276.853 429.451Z" fill="black"/>
<path opacity="0.1" d="M276.853 433.668C277.55 433.668 278.115 433.101 278.115 432.402C278.115 431.703 277.55 431.136 276.853 431.136C276.156 431.136 275.592 431.703 275.592 432.402C275.592 433.101 276.156 433.668 276.853 433.668Z" fill="black"/>
<path opacity="0.1" d="M276.853 437.884C277.55 437.884 278.115 437.317 278.115 436.618C278.115 435.919 277.55 435.352 276.853 435.352C276.156 435.352 275.592 435.919 275.592 436.618C275.592 437.317 276.156 437.884 276.853 437.884Z" fill="black"/>
<path opacity="0.1" d="M276.853 442.105C277.55 442.105 278.115 441.538 278.115 440.839C278.115 440.14 277.55 439.573 276.853 439.573C276.156 439.573 275.592 440.14 275.592 440.839C275.592 441.538 276.156 442.105 276.853 442.105Z" fill="black"/>
<path opacity="0.1" d="M276.853 446.322C277.55 446.322 278.115 445.755 278.115 445.056C278.115 444.357 277.55 443.79 276.853 443.79C276.156 443.79 275.592 444.357 275.592 445.056C275.592 445.755 276.156 446.322 276.853 446.322Z" fill="black"/>
<path opacity="0.1" d="M276.853 450.538C277.55 450.538 278.115 449.972 278.115 449.272C278.115 448.573 277.55 448.007 276.853 448.007C276.156 448.007 275.592 448.573 275.592 449.272C275.592 449.972 276.156 450.538 276.853 450.538Z" fill="black"/>
<path opacity="0.1" d="M276.853 454.755C277.55 454.755 278.115 454.188 278.115 453.489C278.115 452.79 277.55 452.223 276.853 452.223C276.156 452.223 275.592 452.79 275.592 453.489C275.592 454.188 276.156 454.755 276.853 454.755Z" fill="black"/>
<path opacity="0.1" d="M276.853 458.972C277.55 458.972 278.115 458.405 278.115 457.706C278.115 457.007 277.55 456.44 276.853 456.44C276.156 456.44 275.592 457.007 275.592 457.706C275.592 458.405 276.156 458.972 276.853 458.972Z" fill="black"/>
<path opacity="0.1" d="M276.853 463.188C277.55 463.188 278.115 462.621 278.115 461.922C278.115 461.223 277.55 460.656 276.853 460.656C276.156 460.656 275.592 461.223 275.592 461.922C275.592 462.621 276.156 463.188 276.853 463.188Z" fill="black"/>
<path opacity="0.1" d="M276.853 467.405C277.55 467.405 278.115 466.838 278.115 466.139C278.115 465.44 277.55 464.873 276.853 464.873C276.156 464.873 275.592 465.44 275.592 466.139C275.592 466.838 276.156 467.405 276.853 467.405Z" fill="black"/>
<path opacity="0.1" d="M282.735 412.584C283.432 412.584 283.997 412.018 283.997 411.318C283.997 410.619 283.432 410.052 282.735 410.052C282.039 410.052 281.474 410.619 281.474 411.318C281.474 412.018 282.039 412.584 282.735 412.584Z" fill="black"/>
<path opacity="0.1" d="M282.735 416.801C283.432 416.801 283.997 416.234 283.997 415.535C283.997 414.836 283.432 414.269 282.735 414.269C282.039 414.269 281.474 414.836 281.474 415.535C281.474 416.234 282.039 416.801 282.735 416.801Z" fill="black"/>
<path opacity="0.1" d="M282.735 421.017C283.432 421.017 283.997 420.451 283.997 419.751C283.997 419.052 283.432 418.486 282.735 418.486C282.039 418.486 281.474 419.052 281.474 419.751C281.474 420.451 282.039 421.017 282.735 421.017Z" fill="black"/>
<path opacity="0.1" d="M282.735 425.234C283.432 425.234 283.997 424.668 283.997 423.969C283.997 423.269 283.432 422.703 282.735 422.703C282.039 422.703 281.474 423.269 281.474 423.969C281.474 424.668 282.039 425.234 282.735 425.234Z" fill="black"/>
<path opacity="0.1" d="M282.735 429.451C283.432 429.451 283.997 428.884 283.997 428.185C283.997 427.486 283.432 426.919 282.735 426.919C282.039 426.919 281.474 427.486 281.474 428.185C281.474 428.884 282.039 429.451 282.735 429.451Z" fill="black"/>
<path opacity="0.1" d="M282.735 433.668C283.432 433.668 283.997 433.101 283.997 432.402C283.997 431.703 283.432 431.136 282.735 431.136C282.039 431.136 281.474 431.703 281.474 432.402C281.474 433.101 282.039 433.668 282.735 433.668Z" fill="black"/>
<path opacity="0.1" d="M282.735 437.884C283.432 437.884 283.997 437.317 283.997 436.618C283.997 435.919 283.432 435.352 282.735 435.352C282.039 435.352 281.474 435.919 281.474 436.618C281.474 437.317 282.039 437.884 282.735 437.884Z" fill="black"/>
<path opacity="0.1" d="M282.735 442.105C283.432 442.105 283.997 441.538 283.997 440.839C283.997 440.14 283.432 439.573 282.735 439.573C282.039 439.573 281.474 440.14 281.474 440.839C281.474 441.538 282.039 442.105 282.735 442.105Z" fill="black"/>
<path opacity="0.1" d="M282.735 446.322C283.432 446.322 283.997 445.755 283.997 445.056C283.997 444.357 283.432 443.79 282.735 443.79C282.039 443.79 281.474 444.357 281.474 445.056C281.474 445.755 282.039 446.322 282.735 446.322Z" fill="black"/>
<path opacity="0.1" d="M282.735 450.538C283.432 450.538 283.997 449.972 283.997 449.272C283.997 448.573 283.432 448.007 282.735 448.007C282.039 448.007 281.474 448.573 281.474 449.272C281.474 449.972 282.039 450.538 282.735 450.538Z" fill="black"/>
<path opacity="0.1" d="M282.735 454.755C283.432 454.755 283.997 454.188 283.997 453.489C283.997 452.79 283.432 452.223 282.735 452.223C282.039 452.223 281.474 452.79 281.474 453.489C281.474 454.188 282.039 454.755 282.735 454.755Z" fill="black"/>
<path opacity="0.1" d="M282.735 458.972C283.432 458.972 283.997 458.405 283.997 457.706C283.997 457.007 283.432 456.44 282.735 456.44C282.039 456.44 281.474 457.007 281.474 457.706C281.474 458.405 282.039 458.972 282.735 458.972Z" fill="black"/>
<path opacity="0.1" d="M282.735 463.188C283.432 463.188 283.997 462.621 283.997 461.922C283.997 461.223 283.432 460.656 282.735 460.656C282.039 460.656 281.474 461.223 281.474 461.922C281.474 462.621 282.039 463.188 282.735 463.188Z" fill="black"/>
<path opacity="0.1" d="M282.735 467.405C283.432 467.405 283.997 466.838 283.997 466.139C283.997 465.44 283.432 464.873 282.735 464.873C282.039 464.873 281.474 465.44 281.474 466.139C281.474 466.838 282.039 467.405 282.735 467.405Z" fill="black"/>
<path opacity="0.1" d="M288.621 412.584C289.318 412.584 289.883 412.018 289.883 411.318C289.883 410.619 289.318 410.052 288.621 410.052C287.924 410.052 287.359 410.619 287.359 411.318C287.359 412.018 287.924 412.584 288.621 412.584Z" fill="black"/>
<path opacity="0.1" d="M288.621 416.801C289.318 416.801 289.883 416.234 289.883 415.535C289.883 414.836 289.318 414.269 288.621 414.269C287.924 414.269 287.359 414.836 287.359 415.535C287.359 416.234 287.924 416.801 288.621 416.801Z" fill="black"/>
<path opacity="0.1" d="M288.621 421.017C289.318 421.017 289.883 420.451 289.883 419.751C289.883 419.052 289.318 418.486 288.621 418.486C287.924 418.486 287.359 419.052 287.359 419.751C287.359 420.451 287.924 421.017 288.621 421.017Z" fill="black"/>
<path opacity="0.1" d="M288.621 425.234C289.318 425.234 289.883 424.668 289.883 423.969C289.883 423.269 289.318 422.703 288.621 422.703C287.924 422.703 287.359 423.269 287.359 423.969C287.359 424.668 287.924 425.234 288.621 425.234Z" fill="black"/>
<path opacity="0.1" d="M288.621 429.451C289.318 429.451 289.883 428.884 289.883 428.185C289.883 427.486 289.318 426.919 288.621 426.919C287.924 426.919 287.359 427.486 287.359 428.185C287.359 428.884 287.924 429.451 288.621 429.451Z" fill="black"/>
<path opacity="0.1" d="M288.621 433.668C289.318 433.668 289.883 433.101 289.883 432.402C289.883 431.703 289.318 431.136 288.621 431.136C287.924 431.136 287.359 431.703 287.359 432.402C287.359 433.101 287.924 433.668 288.621 433.668Z" fill="black"/>
<path opacity="0.1" d="M288.621 437.884C289.318 437.884 289.883 437.317 289.883 436.618C289.883 435.919 289.318 435.352 288.621 435.352C287.924 435.352 287.359 435.919 287.359 436.618C287.359 437.317 287.924 437.884 288.621 437.884Z" fill="black"/>
<path opacity="0.1" d="M288.621 442.105C289.318 442.105 289.883 441.538 289.883 440.839C289.883 440.14 289.318 439.573 288.621 439.573C287.924 439.573 287.359 440.14 287.359 440.839C287.359 441.538 287.924 442.105 288.621 442.105Z" fill="black"/>
<path opacity="0.1" d="M288.621 446.322C289.318 446.322 289.883 445.755 289.883 445.056C289.883 444.357 289.318 443.79 288.621 443.79C287.924 443.79 287.359 444.357 287.359 445.056C287.359 445.755 287.924 446.322 288.621 446.322Z" fill="black"/>
<path opacity="0.1" d="M288.621 450.538C289.318 450.538 289.883 449.972 289.883 449.272C289.883 448.573 289.318 448.007 288.621 448.007C287.924 448.007 287.359 448.573 287.359 449.272C287.359 449.972 287.924 450.538 288.621 450.538Z" fill="black"/>
<path opacity="0.1" d="M288.621 454.755C289.318 454.755 289.883 454.188 289.883 453.489C289.883 452.79 289.318 452.223 288.621 452.223C287.924 452.223 287.359 452.79 287.359 453.489C287.359 454.188 287.924 454.755 288.621 454.755Z" fill="black"/>
<path opacity="0.1" d="M288.621 458.972C289.318 458.972 289.883 458.405 289.883 457.706C289.883 457.007 289.318 456.44 288.621 456.44C287.924 456.44 287.359 457.007 287.359 457.706C287.359 458.405 287.924 458.972 288.621 458.972Z" fill="black"/>
<path opacity="0.1" d="M288.621 463.188C289.318 463.188 289.883 462.621 289.883 461.922C289.883 461.223 289.318 460.656 288.621 460.656C287.924 460.656 287.359 461.223 287.359 461.922C287.359 462.621 287.924 463.188 288.621 463.188Z" fill="black"/>
<path opacity="0.1" d="M288.621 467.405C289.318 467.405 289.883 466.838 289.883 466.139C289.883 465.44 289.318 464.873 288.621 464.873C287.924 464.873 287.359 465.44 287.359 466.139C287.359 466.838 287.924 467.405 288.621 467.405Z" fill="black"/>
<path opacity="0.1" d="M295.311 412.293C295.127 412.446 294.903 412.543 294.666 412.573C294.428 412.603 294.187 412.564 293.971 412.462C293.755 412.36 293.571 412.198 293.443 411.996C293.315 411.793 293.247 411.558 293.246 411.318C293.244 411 293.365 410.694 293.582 410.462C293.745 410.608 293.904 410.767 294.063 410.918C294.499 411.364 294.912 411.819 295.311 412.293Z" fill="black"/>
<path opacity="0.1" d="M294.503 416.801C295.2 416.801 295.765 416.234 295.765 415.535C295.765 414.836 295.2 414.269 294.503 414.269C293.807 414.269 293.242 414.836 293.242 415.535C293.242 416.234 293.807 416.801 294.503 416.801Z" fill="black"/>
<path opacity="0.1" d="M294.503 421.017C295.2 421.017 295.765 420.451 295.765 419.751C295.765 419.052 295.2 418.486 294.503 418.486C293.807 418.486 293.242 419.052 293.242 419.751C293.242 420.451 293.807 421.017 294.503 421.017Z" fill="black"/>
<path opacity="0.1" d="M294.503 425.234C295.2 425.234 295.765 424.668 295.765 423.969C295.765 423.269 295.2 422.703 294.503 422.703C293.807 422.703 293.242 423.269 293.242 423.969C293.242 424.668 293.807 425.234 294.503 425.234Z" fill="black"/>
<path opacity="0.1" d="M294.503 429.451C295.2 429.451 295.765 428.884 295.765 428.185C295.765 427.486 295.2 426.919 294.503 426.919C293.807 426.919 293.242 427.486 293.242 428.185C293.242 428.884 293.807 429.451 294.503 429.451Z" fill="black"/>
<path opacity="0.1" d="M294.503 433.668C295.2 433.668 295.765 433.101 295.765 432.402C295.765 431.703 295.2 431.136 294.503 431.136C293.807 431.136 293.242 431.703 293.242 432.402C293.242 433.101 293.807 433.668 294.503 433.668Z" fill="black"/>
<path opacity="0.1" d="M294.503 437.884C295.2 437.884 295.765 437.317 295.765 436.618C295.765 435.919 295.2 435.352 294.503 435.352C293.807 435.352 293.242 435.919 293.242 436.618C293.242 437.317 293.807 437.884 294.503 437.884Z" fill="black"/>
<path opacity="0.1" d="M294.503 442.105C295.2 442.105 295.765 441.538 295.765 440.839C295.765 440.14 295.2 439.573 294.503 439.573C293.807 439.573 293.242 440.14 293.242 440.839C293.242 441.538 293.807 442.105 294.503 442.105Z" fill="black"/>
<path opacity="0.1" d="M294.503 446.322C295.2 446.322 295.765 445.755 295.765 445.056C295.765 444.357 295.2 443.79 294.503 443.79C293.807 443.79 293.242 444.357 293.242 445.056C293.242 445.755 293.807 446.322 294.503 446.322Z" fill="black"/>
<path opacity="0.1" d="M294.503 450.538C295.2 450.538 295.765 449.972 295.765 449.272C295.765 448.573 295.2 448.007 294.503 448.007C293.807 448.007 293.242 448.573 293.242 449.272C293.242 449.972 293.807 450.538 294.503 450.538Z" fill="black"/>
<path opacity="0.1" d="M294.503 454.755C295.2 454.755 295.765 454.188 295.765 453.489C295.765 452.79 295.2 452.223 294.503 452.223C293.807 452.223 293.242 452.79 293.242 453.489C293.242 454.188 293.807 454.755 294.503 454.755Z" fill="black"/>
<path opacity="0.1" d="M294.503 458.972C295.2 458.972 295.765 458.405 295.765 457.706C295.765 457.007 295.2 456.44 294.503 456.44C293.807 456.44 293.242 457.007 293.242 457.706C293.242 458.405 293.807 458.972 294.503 458.972Z" fill="black"/>
<path opacity="0.1" d="M294.503 463.188C295.2 463.188 295.765 462.621 295.765 461.922C295.765 461.223 295.2 460.656 294.503 460.656C293.807 460.656 293.242 461.223 293.242 461.922C293.242 462.621 293.807 463.188 294.503 463.188Z" fill="black"/>
<path opacity="0.1" d="M295.643 465.593C295.163 466.201 294.649 466.782 294.104 467.332C293.906 467.266 293.727 467.152 293.584 467C293.44 466.847 293.337 466.662 293.282 466.459C293.228 466.257 293.225 466.044 293.273 465.84C293.321 465.636 293.418 465.447 293.557 465.29C293.696 465.133 293.871 465.014 294.067 464.942C294.264 464.87 294.474 464.848 294.681 464.878C294.888 464.908 295.084 464.989 295.252 465.113C295.42 465.238 295.554 465.403 295.643 465.593Z" fill="black"/>
<path opacity="0.2" d="M358.596 498.187C358.944 498.187 359.227 497.904 359.227 497.554C359.227 497.205 358.944 496.921 358.596 496.921C358.248 496.921 357.965 497.205 357.965 497.554C357.965 497.904 358.248 498.187 358.596 498.187Z" fill="black"/>
<path d="M524.538 484.708C524.538 484.708 517.331 482.259 513.863 488.629C512.949 490.356 512.483 492.287 512.51 494.243C512.537 496.199 513.056 498.116 514.018 499.817C516.287 503.947 520.989 509.311 529.903 508.833C537.446 508.428 539.955 502.654 540.636 497.281C540.897 495.266 540.638 493.218 539.884 491.333C539.13 489.447 537.907 487.788 536.33 486.513C534.754 485.238 532.878 484.39 530.881 484.051C528.885 483.712 526.835 483.893 524.928 484.576L524.538 484.708Z" fill="#46B3E6"/>
<path opacity="0.1" d="M515.543 500.391C514.581 498.69 514.062 496.773 514.035 494.817C514.008 492.861 514.474 490.93 515.389 489.203C518.856 482.828 526.063 485.282 526.063 485.282L526.431 485.15C529.179 484.153 532.199 484.221 534.9 485.341C533.41 484.451 531.741 483.904 530.014 483.738C528.288 483.573 526.546 483.794 524.915 484.385L524.547 484.517C524.547 484.517 517.34 482.067 513.873 488.438C512.958 490.165 512.493 492.096 512.52 494.052C512.547 496.008 513.065 497.925 514.027 499.626C515.529 502.358 518.076 505.596 522.196 507.367C519.384 505.696 517.083 503.283 515.543 500.391Z" fill="white"/>
<path opacity="0.2" d="M520.816 487.773C520.816 487.773 523.489 489.881 529.975 487.773H520.816Z" fill="black"/>
<path d="M520.244 472.455C520.244 472.455 524.824 484.9 524.443 488.156L528.073 487.773C528.073 487.773 521.942 476.858 523.489 472.455H520.244Z" fill="#46B3E6"/>
<path opacity="0.2" d="M520.244 472.455C520.244 472.455 524.824 484.9 524.443 488.156L528.073 487.773C528.073 487.773 521.942 476.858 523.489 472.455H520.244Z" fill="black"/>
<path d="M538.938 473.493C538.938 473.493 531.731 469.796 528.5 472.851C525.268 475.906 524.778 483.716 524.778 483.716C524.778 483.716 536.538 485.341 538.938 473.493Z" fill="#46B3E6"/>
<path opacity="0.1" d="M538.938 473.493C538.938 473.493 531.731 469.796 528.5 472.851C525.268 475.906 524.778 483.716 524.778 483.716C524.778 483.716 536.538 485.341 538.938 473.493Z" fill="white"/>
<path d="M524.783 483.716C524.783 483.716 526.675 474.65 538.938 473.493" stroke="#46B3E6" stroke-miterlimit="10"/>
</g>
<path d="M156.662 395.359L171.424 381.462C142.119 375.706 112.709 402.923 105.035 442.546C104.779 442.598 104.527 442.665 104.278 442.744L87.6323 385.108C86.4067 391.964 85.8624 398.935 86.0083 405.909L73.0271 379.296C67.781 409.066 80.272 436.728 101.242 443.358C99.4905 443.36 97.7416 443.228 96.0089 442.961C95.9291 442.949 95.874 442.94 95.874 442.94C95.7398 444.409 95.7797 445.89 95.9927 447.349C96.0842 448.165 96.4147 448.932 96.9383 449.541C97.5789 450.148 99.3841 450.985 101.75 451.849C101.932 451.916 102.117 451.982 102.306 452.049C103.812 452.583 105.514 453.121 107.27 453.616C109.465 454.235 111.744 454.787 113.833 455.179C114.06 455.221 114.268 455.248 114.465 455.265C114.528 455.271 114.584 455.27 114.644 455.273C114.771 455.279 114.895 455.282 115.009 455.278C115.072 455.275 115.129 455.268 115.187 455.262C115.283 455.253 115.378 455.239 115.473 455.219C115.525 455.208 115.576 455.195 115.625 455.18C115.705 455.157 115.784 455.128 115.86 455.093C115.9 455.074 115.941 455.056 115.979 455.035C116.049 454.995 116.117 454.948 116.18 454.895C116.205 454.874 116.234 454.855 116.257 454.832C116.33 454.763 116.395 454.684 116.45 454.599C116.456 454.591 116.463 454.584 116.468 454.576C116.53 454.475 116.581 454.366 116.619 454.252C116.622 454.245 116.623 454.236 116.625 454.229C116.66 454.119 116.687 454.006 116.703 453.891C116.705 453.883 116.707 453.876 116.709 453.868L116.705 453.873C117.087 451.216 113.561 445.593 113.516 444.002C113.473 442.479 109.936 442.07 107.046 442.276L161.362 395.986C159.808 395.682 158.239 395.473 156.662 395.359Z" fill="#F2F2F2"/>
<path d="M199.324 450.845C199.324 457.763 153.122 481.463 98.08 481.463C43.0382 481.463 0 457.763 0 450.845C0 443.927 43.0382 456.412 98.08 456.412C153.122 456.412 199.324 443.927 199.324 450.845Z" fill="#3F3D56"/>
<path opacity="0.1" d="M199.324 450.845C199.324 457.763 153.122 481.463 98.08 481.463C43.0382 481.463 0 457.763 0 450.845C0 443.927 43.0382 456.412 98.08 456.412C153.122 456.412 199.324 443.927 199.324 450.845Z" fill="black"/>
<path d="M99.6619 463.37C154.704 463.37 199.324 457.762 199.324 450.844C199.324 443.926 154.704 438.318 99.6619 438.318C44.6202 438.318 0 443.926 0 450.844C0 457.762 44.6202 463.37 99.6619 463.37Z" fill="#3F3D56"/>
<path opacity="0.1" d="M99.6247 458.32C111.424 458.32 120.989 454.954 120.989 450.801C120.989 446.649 111.424 443.283 99.6247 443.283C87.8256 443.283 78.2606 446.649 78.2606 450.801C78.2606 454.954 87.8256 458.32 99.6247 458.32Z" fill="black"/>
<path d="M55.2039 388.487C55.2039 420.408 74.1722 446.238 97.6134 446.238L55.2039 388.487Z" fill="#3F3D56"/>
<path d="M97.613 446.238C97.613 413.958 118.781 387.838 144.94 387.838L97.613 446.238Z" fill="#46B3E6"/>
<path d="M70.5696 391.379C70.5696 421.701 82.6654 446.236 97.6134 446.236L70.5696 391.379Z" fill="#46B3E6"/>
<path d="M97.613 446.239C97.613 404.992 122.079 371.617 152.315 371.617L97.613 446.239Z" fill="#3F3D56"/>
<path d="M88.6907 446.646C88.6907 446.646 94.7051 446.45 96.5176 445.088C98.3302 443.725 105.769 442.098 106.219 444.283C106.669 446.469 115.257 455.152 108.467 455.21C101.677 455.268 92.6898 454.094 90.8807 452.93C89.0716 451.767 88.6907 446.646 88.6907 446.646Z" fill="#A8A8A8"/>
<path opacity="0.2" d="M108.588 454.449C101.798 454.507 92.811 453.332 91.0019 452.169C89.6241 451.283 89.0751 448.104 88.8914 446.637C88.7642 446.643 88.6907 446.645 88.6907 446.645C88.6907 446.645 89.0716 451.766 90.8807 452.93C92.6898 454.093 101.677 455.268 108.467 455.21C110.427 455.193 111.104 454.457 111.067 453.367C110.795 454.025 110.047 454.437 108.588 454.449Z" fill="black"/>
<g clip-path="url(#clip1)">
<path d="M704.945 98.1243H704.361V80.5382C704.361 79.2016 704.122 77.878 703.657 76.6431C703.191 75.4082 702.509 74.2862 701.649 73.341C700.79 72.3959 699.769 71.6461 698.646 71.1346C697.522 70.6231 696.318 70.3599 695.102 70.3599H661.209C659.993 70.3599 658.789 70.6231 657.665 71.1346C656.542 71.6461 655.521 72.3959 654.661 73.341C653.802 74.2862 653.12 75.4082 652.654 76.6431C652.189 77.878 651.949 79.2016 651.949 80.5382V177.017C651.949 178.353 652.189 179.677 652.654 180.912C653.12 182.147 653.802 183.269 654.661 184.214C655.521 185.159 656.542 185.909 657.665 186.42C658.789 186.932 659.993 187.195 661.209 187.195H695.102C696.318 187.195 697.522 186.932 698.646 186.42C699.769 185.909 700.79 185.159 701.649 184.214C702.509 183.269 703.191 182.147 703.657 180.912C704.122 179.677 704.361 178.353 704.361 177.017V110.642H704.945V98.1243Z" fill="#3F3D56"/>
<path d="M702.392 81.1361V177.474C702.392 179.491 701.663 181.424 700.366 182.85C699.069 184.276 697.31 185.077 695.476 185.077H661.419C660.511 185.077 659.612 184.88 658.774 184.498C657.935 184.116 657.173 183.555 656.531 182.85C655.889 182.144 655.38 181.306 655.032 180.383C654.685 179.461 654.507 178.473 654.507 177.474V81.1361C654.507 79.1208 655.235 77.1881 656.532 75.763C657.828 74.338 659.586 73.5374 661.419 73.5374H665.551C665.348 74.0857 665.271 74.6803 665.327 75.269C665.382 75.8578 665.568 76.4225 665.868 76.9137C666.169 77.4049 666.574 77.8074 667.049 78.086C667.524 78.3645 668.054 78.5105 668.593 78.5111H688.011C688.55 78.5122 689.08 78.3674 689.556 78.0893C690.032 77.8112 690.439 77.4085 690.739 76.9168C691.04 76.4251 691.226 75.8596 691.28 75.2701C691.335 74.6807 691.256 74.0856 691.052 73.5374H695.476C697.31 73.5373 699.068 74.3377 700.365 75.7627C701.662 77.1877 702.391 79.1205 702.392 81.1361Z" fill="white"/>
<path d="M695.944 122.86H656.354V134.604H695.944V122.86Z" fill="#46B3E6"/>
<path d="M697.515 132.531H659.182C658.932 132.531 658.692 132.421 658.516 132.227C658.339 132.033 658.24 131.77 658.239 131.495V121.133C658.24 120.858 658.339 120.595 658.516 120.401C658.692 120.206 658.932 120.097 659.182 120.097H697.515C697.765 120.097 698.004 120.206 698.181 120.401C698.358 120.595 698.457 120.858 698.457 121.133V131.495C698.457 131.77 698.358 132.033 698.181 132.227C698.004 132.421 697.765 132.531 697.515 132.531ZM659.182 120.788C659.099 120.788 659.019 120.824 658.96 120.889C658.901 120.954 658.868 121.041 658.868 121.133V131.495C658.868 131.586 658.901 131.674 658.96 131.739C659.019 131.804 659.099 131.84 659.182 131.84H697.515C697.598 131.84 697.678 131.804 697.737 131.739C697.796 131.674 697.829 131.586 697.829 131.495V121.133C697.829 121.041 697.796 120.954 697.737 120.889C697.678 120.824 697.598 120.788 697.515 120.788H659.182Z" fill="#3F3D56"/>
<path d="M665.781 129.423H660.754V130.114H665.781V129.423Z" fill="#3F3D56"/>
<path d="M672.693 129.423H667.666V130.114H672.693V129.423Z" fill="#3F3D56"/>
<path d="M679.605 129.423H674.578V130.114H679.605V129.423Z" fill="#3F3D56"/>
<path d="M686.518 129.423H681.491V130.114H686.518V129.423Z" fill="#3F3D56"/>
<path d="M693.43 129.423H688.403V130.114H693.43V129.423Z" fill="#3F3D56"/>
<path opacity="0.1" d="M702.392 167.679V177.474C702.392 179.491 701.663 181.424 700.366 182.85C699.069 184.275 697.31 185.076 695.476 185.077H661.419C660.511 185.076 659.612 184.88 658.774 184.498C657.935 184.115 657.173 183.555 656.531 182.849C655.889 182.144 655.38 181.305 655.032 180.383C654.685 179.461 654.507 178.473 654.507 177.474V132.414L702.392 167.679Z" fill="black"/>
<path d="M539.156 158.781H390.538V238.914H539.156V158.781Z" fill="white"/>
<path opacity="0.1" d="M501.373 238.914H391.166C391 238.913 390.84 238.84 390.722 238.711C390.605 238.581 390.538 238.406 390.538 238.223V159.472C390.538 159.289 390.605 159.114 390.722 158.984C390.84 158.855 391 158.782 391.166 158.781H392.561L501.373 238.914Z" fill="black"/>
<path d="M689.66 169.489H459.348V170.18H689.66V169.489Z" fill="#3F3D56"/>
<path d="M532.163 1.49134H466.341V0H436.494V1.49134H370.401C369.816 1.49134 369.237 1.61794 368.697 1.86391C368.156 2.10988 367.666 2.4704 367.252 2.92489C366.839 3.37937 366.511 3.91893 366.287 4.51275C366.063 5.10657 365.948 5.74302 365.948 6.38577V105.465C365.948 106.763 366.417 108.008 367.252 108.926C368.087 109.844 369.22 110.36 370.401 110.36H532.163C533.344 110.36 534.477 109.844 535.312 108.926C536.147 108.008 536.616 106.763 536.616 105.465V6.38577C536.616 5.74302 536.501 5.10657 536.277 4.51275C536.053 3.91893 535.725 3.37937 535.312 2.92489C534.898 2.4704 534.407 2.10988 533.867 1.86391C533.327 1.61794 532.748 1.49134 532.163 1.49134Z" fill="#3F3D56"/>
<path d="M530.644 10.1398H371.917V108.571H530.644V10.1398Z" fill="white"/>
<path d="M451.145 7.45664C452.044 7.45664 452.773 6.6554 452.773 5.66703C452.773 4.67865 452.044 3.87741 451.145 3.87741C450.246 3.87741 449.517 4.67865 449.517 5.66703C449.517 6.6554 450.246 7.45664 451.145 7.45664Z" fill="#46B3E6"/>
<path d="M419.13 46.8727H415.359C415.11 46.8724 414.87 46.7632 414.693 46.5689C414.517 46.3747 414.417 46.1113 414.417 45.8365V41.6918C414.417 41.417 414.517 41.1537 414.693 40.9594C414.87 40.7651 415.11 40.6559 415.359 40.6556H419.13C419.38 40.6559 419.619 40.7651 419.796 40.9594C419.973 41.1537 420.072 41.417 420.073 41.6918V45.8365C420.072 46.1113 419.973 46.3747 419.796 46.5689C419.619 46.7632 419.38 46.8724 419.13 46.8727ZM415.359 41.3464C415.276 41.3465 415.196 41.3829 415.137 41.4477C415.079 41.5124 415.045 41.6002 415.045 41.6918V45.8365C415.045 45.9281 415.079 46.0159 415.137 46.0806C415.196 46.1454 415.276 46.1818 415.359 46.1819H419.13C419.213 46.1818 419.293 46.1454 419.352 46.0806C419.411 46.0159 419.444 45.9281 419.444 45.8365V41.6918C419.444 41.6002 419.411 41.5124 419.352 41.4477C419.293 41.3829 419.213 41.3465 419.13 41.3464H415.359Z" fill="#3F3D56"/>
<path d="M486.37 46.1821H414.731V46.8729H486.37V46.1821Z" fill="#3F3D56"/>
<path d="M484.485 65.179H467.832V70.7053H484.485V65.179Z" fill="#46B3E6"/>
<path d="M485.742 69.3235H470.346C470.096 69.3232 469.856 69.2139 469.679 69.0197C469.503 68.8254 469.403 68.562 469.403 68.2873V64.1425C469.403 63.8678 469.503 63.6044 469.679 63.4102C469.856 63.2159 470.096 63.1066 470.346 63.1063H485.742C485.992 63.1066 486.231 63.2159 486.408 63.4102C486.585 63.6044 486.684 63.8678 486.684 64.1425V68.2873C486.684 68.562 486.585 68.8254 486.408 69.0197C486.231 69.2139 485.992 69.3232 485.742 69.3235ZM470.346 63.7971C470.262 63.7973 470.183 63.8337 470.124 63.8984C470.065 63.9632 470.032 64.051 470.031 64.1425V68.2873C470.032 68.3789 470.065 68.4667 470.124 68.5314C470.183 68.5962 470.262 68.6326 470.346 68.6327H485.742C485.825 68.6326 485.905 68.5962 485.964 68.5314C486.023 68.4667 486.056 68.3789 486.056 68.2873V64.1425C486.056 64.051 486.023 63.9632 485.964 63.8984C485.905 63.8337 485.825 63.7973 485.742 63.7971H470.346Z" fill="#3F3D56"/>
<path d="M611.737 71.396H580.317V95.5738H611.737V71.396Z" fill="#46B3E6"/>
<path d="M614.879 93.6742H584.716C584.383 93.6738 584.063 93.5281 583.827 93.2691C583.592 93.0101 583.459 92.6589 583.459 92.2926V69.4963C583.459 69.13 583.592 68.7788 583.827 68.5198C584.063 68.2608 584.383 68.1151 584.716 68.1147H614.879C615.213 68.1151 615.532 68.2608 615.768 68.5198C616.003 68.7788 616.136 69.13 616.136 69.4963V92.2926C616.136 92.6589 616.003 93.0101 615.768 93.2691C615.532 93.5281 615.213 93.6738 614.879 93.6742ZM584.716 69.4963V92.2926H614.88L614.879 69.4963H584.716Z" fill="#3F3D56"/>
<path d="M611.423 68.6329H610.167C610.167 65.61 609.074 62.7108 607.13 60.5732C605.185 58.4357 602.548 57.2348 599.798 57.2348C597.048 57.2348 594.411 58.4357 592.466 60.5732C590.521 62.7108 589.429 65.61 589.429 68.6329H588.172C588.172 65.2435 589.397 61.993 591.577 59.5963C593.758 57.1997 596.715 55.8532 599.798 55.8532C602.881 55.8532 605.838 57.1997 608.018 59.5963C610.199 61.993 611.423 65.2435 611.423 68.6329Z" fill="#3F3D56"/>
<path d="M602.939 78.1314C602.94 77.5299 602.798 76.9387 602.527 76.4162C602.255 75.8937 601.865 75.4581 601.394 75.1525C600.923 74.8469 600.387 74.6818 599.84 74.6737C599.293 74.6655 598.753 74.8145 598.275 75.106C597.796 75.3974 597.395 75.8212 597.111 76.3354C596.827 76.8496 596.67 77.4364 596.656 78.0376C596.642 78.6389 596.771 79.2338 597.03 79.7635C597.289 80.2932 597.67 80.7394 598.134 81.0578V84.765C598.134 85.0052 598.177 85.2429 598.26 85.4648C598.344 85.6866 598.467 85.8882 598.621 86.058C598.775 86.2278 598.959 86.3625 599.161 86.4544C599.362 86.5463 599.579 86.5936 599.797 86.5936C600.238 86.5936 600.661 86.4009 600.973 86.058C601.285 85.7151 601.461 85.25 601.461 84.765V81.0578C601.913 80.7482 602.286 80.317 602.545 79.805C602.803 79.293 602.939 78.717 602.939 78.1314Z" fill="#3F3D56"/>
<path d="M453.535 194.358H448.508V195.048H453.535V194.358Z" fill="#3F3D56"/>
<path d="M460.448 194.358H455.421V195.048H460.448V194.358Z" fill="#3F3D56"/>
<path d="M467.361 194.358H462.333V195.048H467.361V194.358Z" fill="#3F3D56"/>
<path d="M474.273 194.358H469.246V195.048H474.273V194.358Z" fill="#3F3D56"/>
<path d="M481.185 194.358H476.158V195.048H481.185V194.358Z" fill="#3F3D56"/>
<path d="M545.755 233.042H398.393C398.06 233.041 397.74 232.896 397.505 232.637C397.269 232.378 397.137 232.026 397.136 231.66V152.91C397.137 152.543 397.269 152.192 397.505 151.933C397.74 151.674 398.06 151.528 398.393 151.528H545.755C546.088 151.528 546.407 151.674 546.643 151.933C546.879 152.192 547.011 152.543 547.011 152.91V231.66C547.011 232.026 546.879 232.378 546.643 232.637C546.407 232.896 546.088 233.041 545.755 233.042ZM398.393 152.91V231.66H545.755L545.755 152.91H398.393Z" fill="#3F3D56"/>
<path d="M404.991 164.653C406.032 164.653 406.877 163.725 406.877 162.581C406.877 161.436 406.032 160.508 404.991 160.508C403.95 160.508 403.106 161.436 403.106 162.581C403.106 163.725 403.95 164.653 404.991 164.653Z" fill="#3F3D56"/>
<path d="M411.589 164.653C412.63 164.653 413.474 163.725 413.474 162.581C413.474 161.436 412.63 160.508 411.589 160.508C410.548 160.508 409.704 161.436 409.704 162.581C409.704 163.725 410.548 164.653 411.589 164.653Z" fill="#3F3D56"/>
<path d="M418.188 164.653C419.229 164.653 420.073 163.725 420.073 162.581C420.073 161.436 419.229 160.508 418.188 160.508C417.147 160.508 416.303 161.436 416.303 162.581C416.303 163.725 417.147 164.653 418.188 164.653Z" fill="#3F3D56"/>
<path d="M486.055 199.193H443.638C443.388 199.193 443.148 199.084 442.971 198.889C442.795 198.695 442.695 198.432 442.695 198.157V186.413C442.695 186.139 442.795 185.875 442.971 185.681C443.148 185.487 443.388 185.378 443.638 185.377H486.055C486.305 185.378 486.545 185.487 486.721 185.681C486.898 185.875 486.998 186.139 486.998 186.413V198.157C486.998 198.432 486.898 198.695 486.721 198.889C486.545 199.084 486.305 199.193 486.055 199.193ZM443.638 186.068C443.554 186.068 443.475 186.105 443.416 186.169C443.357 186.234 443.324 186.322 443.323 186.413V198.157C443.324 198.249 443.357 198.336 443.416 198.401C443.475 198.466 443.554 198.502 443.638 198.502H486.055C486.139 198.502 486.218 198.466 486.277 198.401C486.336 198.336 486.369 198.249 486.369 198.157V186.413C486.369 186.322 486.336 186.234 486.277 186.169C486.218 186.105 486.139 186.068 486.055 186.068H443.638Z" fill="#3F3D56"/>
<path d="M496.739 199.538C499.863 199.538 502.395 196.755 502.395 193.321C502.395 189.888 499.863 187.104 496.739 187.104C493.615 187.104 491.083 189.888 491.083 193.321C491.083 196.755 493.615 199.538 496.739 199.538Z" fill="#46B3E6"/>
<path d="M498.624 198.848C497.443 198.848 496.289 198.463 495.307 197.742C494.325 197.021 493.56 195.996 493.108 194.797C492.656 193.598 492.538 192.278 492.769 191.005C492.999 189.732 493.567 188.563 494.402 187.645C495.237 186.727 496.301 186.102 497.459 185.849C498.617 185.596 499.817 185.726 500.908 186.222C501.999 186.719 502.931 187.56 503.587 188.639C504.243 189.719 504.594 190.987 504.594 192.285C504.592 194.025 503.962 195.693 502.843 196.924C501.724 198.154 500.206 198.846 498.624 198.848ZM498.624 186.414C497.567 186.414 496.535 186.758 495.656 187.403C494.778 188.048 494.093 188.965 493.689 190.038C493.285 191.111 493.179 192.292 493.385 193.431C493.591 194.57 494.1 195.616 494.847 196.437C495.594 197.259 496.545 197.818 497.582 198.044C498.618 198.271 499.692 198.155 500.668 197.71C501.644 197.266 502.478 196.513 503.065 195.548C503.652 194.582 503.965 193.447 503.965 192.285C503.964 190.729 503.4 189.236 502.399 188.135C501.398 187.035 500.04 186.415 498.624 186.414Z" fill="#3F3D56"/>
<path d="M498.707 194.736L495.666 191.392L496.554 190.416L498.54 192.598L504.08 183.943L505.108 184.739L498.707 194.736Z" fill="#3F3D56"/>
<path opacity="0.1" d="M495.454 108.571H371.918V17.597L495.454 108.571Z" fill="black"/>
<path d="M541.072 106.78H525.581V105.553C525.581 105.521 525.575 105.49 525.564 105.46C525.553 105.431 525.537 105.404 525.516 105.381C525.495 105.359 525.471 105.341 525.444 105.328C525.417 105.316 525.389 105.31 525.36 105.31H520.048C520.019 105.31 519.991 105.316 519.964 105.328C519.937 105.341 519.912 105.359 519.892 105.381C519.871 105.404 519.855 105.431 519.844 105.46C519.833 105.49 519.827 105.521 519.827 105.553V106.78H516.508V105.553C516.508 105.521 516.502 105.49 516.491 105.46C516.48 105.431 516.463 105.404 516.443 105.381C516.422 105.359 516.398 105.341 516.371 105.328C516.344 105.316 516.315 105.31 516.286 105.31H510.975C510.946 105.31 510.917 105.316 510.89 105.328C510.864 105.341 510.839 105.359 510.819 105.381C510.798 105.404 510.782 105.431 510.771 105.46C510.76 105.49 510.754 105.521 510.754 105.553V106.78H507.434V105.553C507.434 105.521 507.429 105.49 507.418 105.46C507.406 105.431 507.39 105.404 507.37 105.381C507.349 105.359 507.325 105.341 507.298 105.328C507.271 105.316 507.242 105.31 507.213 105.31H501.902C501.873 105.31 501.844 105.316 501.817 105.328C501.79 105.341 501.766 105.359 501.745 105.381C501.725 105.404 501.709 105.431 501.697 105.46C501.686 105.49 501.681 105.521 501.681 105.553V106.78H498.361V105.553C498.361 105.521 498.355 105.49 498.344 105.46C498.333 105.431 498.317 105.404 498.296 105.381C498.276 105.359 498.251 105.341 498.224 105.328C498.198 105.316 498.169 105.31 498.14 105.31H492.829C492.8 105.31 492.771 105.316 492.744 105.328C492.717 105.341 492.693 105.359 492.672 105.381C492.652 105.404 492.635 105.431 492.624 105.46C492.613 105.49 492.607 105.521 492.607 105.553V106.78H489.288V105.553C489.288 105.521 489.282 105.49 489.271 105.46C489.26 105.431 489.244 105.404 489.223 105.381C489.202 105.359 489.178 105.341 489.151 105.328C489.124 105.316 489.096 105.31 489.067 105.31H483.755C483.726 105.31 483.698 105.316 483.671 105.328C483.644 105.341 483.619 105.359 483.599 105.381C483.578 105.404 483.562 105.431 483.551 105.46C483.54 105.49 483.534 105.521 483.534 105.553V106.78H480.215V105.553C480.215 105.521 480.209 105.49 480.198 105.46C480.187 105.431 480.17 105.404 480.15 105.381C480.129 105.359 480.105 105.341 480.078 105.328C480.051 105.316 480.022 105.31 479.993 105.31H474.682C474.653 105.31 474.624 105.316 474.597 105.328C474.571 105.341 474.546 105.359 474.526 105.381C474.505 105.404 474.489 105.431 474.478 105.46C474.467 105.49 474.461 105.521 474.461 105.553V106.78H471.141V105.553C471.141 105.521 471.136 105.49 471.124 105.46C471.113 105.431 471.097 105.404 471.077 105.381C471.056 105.359 471.032 105.341 471.005 105.328C470.978 105.316 470.949 105.31 470.92 105.31H429.316C429.287 105.31 429.258 105.316 429.231 105.328C429.204 105.341 429.18 105.359 429.159 105.381C429.139 105.404 429.122 105.431 429.111 105.46C429.1 105.49 429.095 105.521 429.095 105.553V106.78H425.775V105.553C425.775 105.521 425.769 105.49 425.758 105.46C425.747 105.431 425.731 105.404 425.71 105.381C425.69 105.359 425.665 105.341 425.638 105.328C425.612 105.316 425.583 105.31 425.554 105.31H420.243C420.214 105.31 420.185 105.316 420.158 105.328C420.131 105.341 420.107 105.359 420.086 105.381C420.066 105.404 420.049 105.431 420.038 105.46C420.027 105.49 420.021 105.521 420.021 105.553V106.78H416.702V105.553C416.702 105.521 416.696 105.49 416.685 105.46C416.674 105.431 416.658 105.404 416.637 105.381C416.616 105.359 416.592 105.341 416.565 105.328C416.538 105.316 416.51 105.31 416.48 105.31H411.169C411.14 105.31 411.111 105.316 411.085 105.328C411.058 105.341 411.033 105.359 411.013 105.381C410.992 105.404 410.976 105.431 410.965 105.46C410.954 105.49 410.948 105.521 410.948 105.553V106.78H407.629V105.553C407.629 105.521 407.623 105.49 407.612 105.46C407.601 105.431 407.584 105.404 407.564 105.381C407.543 105.359 407.519 105.341 407.492 105.328C407.465 105.316 407.436 105.31 407.407 105.31H402.096C402.067 105.31 402.038 105.316 402.011 105.328C401.985 105.341 401.96 105.359 401.94 105.381C401.919 105.404 401.903 105.431 401.892 105.46C401.88 105.49 401.875 105.521 401.875 105.553V106.78H398.555V105.553C398.555 105.521 398.55 105.49 398.538 105.46C398.527 105.431 398.511 105.404 398.49 105.381C398.47 105.359 398.446 105.341 398.419 105.328C398.392 105.316 398.363 105.31 398.334 105.31H393.023C392.994 105.31 392.965 105.316 392.938 105.328C392.911 105.341 392.887 105.359 392.866 105.381C392.846 105.404 392.829 105.431 392.818 105.46C392.807 105.49 392.801 105.521 392.801 105.553V106.78H389.482V105.553C389.482 105.521 389.476 105.49 389.465 105.46C389.454 105.431 389.438 105.404 389.417 105.381C389.397 105.359 389.372 105.341 389.345 105.328C389.319 105.316 389.29 105.31 389.261 105.31H383.95C383.92 105.31 383.892 105.316 383.865 105.328C383.838 105.341 383.814 105.359 383.793 105.381C383.773 105.404 383.756 105.431 383.745 105.46C383.734 105.49 383.728 105.521 383.728 105.553V106.78H380.409V105.553C380.409 105.521 380.403 105.49 380.392 105.46C380.381 105.431 380.364 105.404 380.344 105.381C380.323 105.359 380.299 105.341 380.272 105.328C380.245 105.316 380.217 105.31 380.187 105.31H374.876C374.847 105.31 374.818 105.316 374.792 105.328C374.765 105.341 374.74 105.359 374.72 105.381C374.699 105.404 374.683 105.431 374.672 105.46C374.661 105.49 374.655 105.521 374.655 105.553V106.78H364.475C363.778 106.78 363.087 106.931 362.443 107.225C361.798 107.518 361.213 107.948 360.72 108.49C360.226 109.032 359.835 109.676 359.568 110.384C359.301 111.093 359.164 111.852 359.164 112.619V115.259C359.164 116.807 359.724 118.292 360.72 119.387C361.716 120.482 363.067 121.097 364.475 121.097H541.072C541.769 121.097 542.46 120.946 543.104 120.653C543.749 120.359 544.334 119.929 544.827 119.387C545.321 118.845 545.712 118.201 545.979 117.493C546.246 116.784 546.383 116.025 546.383 115.259V112.619C546.383 111.852 546.246 111.093 545.979 110.384C545.712 109.676 545.321 109.032 544.827 108.49C544.334 107.948 543.749 107.518 543.104 107.225C542.46 106.931 541.769 106.78 541.072 106.78Z" fill="#3F3D56"/>
<path d="M492.654 75.1954H409.704C409.454 75.1951 409.214 75.0858 409.038 74.8915C408.861 74.6973 408.762 74.4339 408.761 74.1592V36.1654C408.762 35.8907 408.861 35.6273 409.038 35.4331C409.214 35.2388 409.454 35.1295 409.704 35.1292H492.654C492.904 35.1295 493.143 35.2388 493.32 35.4331C493.497 35.6273 493.596 35.8907 493.597 36.1654V74.1592C493.596 74.4339 493.497 74.6973 493.32 74.8915C493.143 75.0858 492.904 75.1951 492.654 75.1954ZM409.704 35.82C409.621 35.8202 409.541 35.8566 409.482 35.9213C409.423 35.9861 409.39 36.0739 409.39 36.1654V74.1592C409.39 74.2507 409.423 74.3385 409.482 74.4033C409.541 74.468 409.621 74.5045 409.704 74.5046H492.654C492.737 74.5045 492.817 74.468 492.876 74.4033C492.935 74.3385 492.968 74.2507 492.968 74.1592V36.1654C492.968 36.0739 492.935 35.9861 492.876 35.9213C492.817 35.8566 492.737 35.8202 492.654 35.82H409.704Z" fill="#3F3D56"/>
<path d="M419.13 57.2347H415.359C415.11 57.2344 414.87 57.1251 414.693 56.9308C414.517 56.7366 414.417 56.4732 414.417 56.1985V52.0537C414.417 51.779 414.517 51.5156 414.693 51.3213C414.87 51.1271 415.11 51.0178 415.359 51.0175H419.13C419.38 51.0178 419.619 51.1271 419.796 51.3213C419.973 51.5156 420.072 51.779 420.073 52.0537V56.1985C420.072 56.4732 419.973 56.7366 419.796 56.9308C419.619 57.1251 419.38 57.2344 419.13 57.2347ZM415.359 51.7083C415.276 51.7084 415.196 51.7449 415.137 51.8096C415.079 51.8744 415.045 51.9621 415.045 52.0537V56.1985C415.045 56.29 415.079 56.3778 415.137 56.4426C415.196 56.5073 415.276 56.5438 415.359 56.5439H419.13C419.213 56.5438 419.293 56.5073 419.352 56.4426C419.411 56.3778 419.444 56.29 419.444 56.1985V52.0537C419.444 51.9621 419.411 51.8744 419.352 51.8096C419.293 51.7449 419.213 51.7084 419.13 51.7083H415.359Z" fill="#3F3D56"/>
<path d="M486.37 56.544H414.731V57.2348H486.37V56.544Z" fill="#3F3D56"/>
<path d="M672.693 93.156H442.381V93.8468H672.693V93.156Z" fill="#3F3D56"/>
<path d="M442.381 97.9915C444.811 97.9915 446.78 95.8265 446.78 93.1559C446.78 90.4853 444.811 88.3204 442.381 88.3204C439.952 88.3204 437.982 90.4853 437.982 93.1559C437.982 95.8265 439.952 97.9915 442.381 97.9915Z" fill="#3F3D56"/>
<path d="M672.693 97.6465C674.602 97.6465 676.149 95.9454 676.149 93.8471C676.149 91.7487 674.602 90.0477 672.693 90.0477C670.784 90.0477 669.237 91.7487 669.237 93.8471C669.237 95.9454 670.784 97.6465 672.693 97.6465Z" fill="#3F3D56"/>
<path d="M689.659 173.979C691.568 173.979 693.116 172.278 693.116 170.18C693.116 168.081 691.568 166.38 689.659 166.38C687.751 166.38 686.203 168.081 686.203 170.18C686.203 172.278 687.751 173.979 689.659 173.979Z" fill="#3F3D56"/>
<path d="M460.291 173.979C462.2 173.979 463.747 172.278 463.747 170.18C463.747 168.081 462.2 166.38 460.291 166.38C458.382 166.38 456.834 168.081 456.834 170.18C456.834 172.278 458.382 173.979 460.291 173.979Z" fill="#3F3D56"/>
</g>
<defs>
<linearGradient id="paint0_linear" x1="430.051" y1="542.075" x2="430.051" y2="250.681" gradientUnits="userSpaceOnUse">
<stop stop-color="#808080" stop-opacity="0.25"/>
<stop offset="0.54" stop-color="#808080" stop-opacity="0.12"/>
<stop offset="1" stop-color="#808080" stop-opacity="0.1"/>
</linearGradient>
<clipPath id="clip0">
<rect width="517.486" height="353.359" fill="white" transform="translate(160.626 220.641)"/>
</clipPath>
<clipPath id="clip1">
<rect width="345.782" height="238.914" fill="white" transform="translate(359.164)"/>
</clipPath>
</defs>
</svg>
