<svg width="166" height="135" viewBox="0 0 166 135" fill="none" xmlns="http://www.w3.org/2000/svg">
<g clip-path="url(#clip0)">
<path d="M111.84 123.978C104.114 123.999 96.3947 123.492 88.7371 122.46C88.4871 122.428 88.2337 122.392 87.9819 122.355C86.1023 122.087 84.2216 121.781 82.3934 121.444C74.1661 119.936 66.4075 117.732 59.3334 114.895C35.7926 105.454 20.9914 107.463 12.7202 110.811C3.76903 114.435 0.328154 120.363 0.294428 120.422L0 120.255C0.0341369 120.195 3.51941 114.178 12.5684 110.507C17.8739 108.354 24.0289 107.413 30.8636 107.71C39.3951 108.08 49.016 110.392 59.4593 114.58C66.5124 117.409 74.2491 119.606 82.4543 121.11C84.2782 121.446 86.1543 121.751 88.0307 122.019C88.2813 122.056 88.5324 122.092 88.7817 122.124C109.539 124.987 129.564 123.26 142.708 121.308C153.542 119.699 160.514 117.817 160.583 117.799L160.672 118.126C160.603 118.145 153.613 120.031 142.758 121.644C132.522 123.172 122.189 123.952 111.84 123.978Z" fill="#3F3D56"/>
<path d="M111.863 26.5583C105.895 26.5584 100.085 26.2783 94.4795 25.7186C81.5985 24.4324 69.7737 21.6572 59.3334 17.4701C35.7926 8.0287 20.9914 10.0379 12.7202 13.3862C3.76903 17.0096 0.328154 22.9379 0.294428 22.9974L0 22.8298C0.0341369 22.7695 3.51941 16.753 12.5684 13.0817C17.874 10.929 24.0289 9.9879 30.8636 10.2848C39.3951 10.6551 49.016 12.9665 59.4593 17.1548C83.0372 26.611 109.274 26.9826 127.132 25.6303C146.488 24.1639 160.445 20.4113 160.583 20.3736L160.672 20.7011C160.533 20.739 146.551 24.4989 127.165 25.9682C121.974 26.3616 116.863 26.5583 111.863 26.5583Z" fill="#3F3D56"/>
<path d="M110.986 1.64121C110.986 1.64121 104.331 -0.742065 100.052 8.79105C95.7735 18.3242 89.1179 28.8106 89.1179 28.8106L92.9211 29.7639C92.9211 29.7639 93.8719 23.0907 96.2489 22.1374L95.2981 30.7172C95.2981 30.7172 123.822 40.727 136.658 29.7639L136.183 26.4273C136.183 26.4273 138.084 26.904 138.084 29.7639L139.51 28.3339C139.51 28.3339 138.084 25.474 133.806 21.6607C130.997 19.1579 130.032 14.3963 129.701 11.4192C129.452 8.93333 128.46 6.58078 126.855 4.67008C124.011 1.36611 118.83 -2.14555 110.986 1.64121Z" fill="#2F2E41"/>
<path d="M151.381 55.5854C151.381 55.5854 163.906 66.2963 165.748 72.575C167.589 78.8538 158.749 79.5925 158.749 79.5925L139.594 81.4391C139.594 81.4391 139.225 90.3033 135.91 91.4113C132.595 92.5193 135.237 76.7532 135.237 76.7532L153.96 71.467L145.487 62.6029L151.381 55.5854Z" fill="#FBBEBE"/>
<path d="M92.8111 66.6655L91.3376 86.2405L83.2336 119.481C83.2336 119.481 75.8663 134.624 82.1285 134.993C88.3907 135.362 88.0223 120.589 88.0223 120.589L99.8101 89.1952L100.915 67.7735L92.8111 66.6655Z" fill="#FBBEBE"/>
<path d="M113.44 32.3171C120.153 32.3171 125.596 26.8603 125.596 20.129C125.596 13.3976 120.153 7.9408 113.44 7.9408C106.726 7.9408 101.284 13.3976 101.284 20.129C101.284 26.8603 106.726 32.3171 113.44 32.3171Z" fill="#FBBEBE"/>
<path d="M107.914 26.0385C107.914 26.0385 112.335 41.92 105.336 45.9827C98.3366 50.0455 123.017 53.0002 129.648 40.812C129.648 40.812 117.86 36.7493 121.175 26.0385H107.914Z" fill="#FBBEBE"/>
<path d="M99.4417 47.8293L97.2315 47.0906C97.2315 47.0906 92.8111 48.9373 92.8111 52.2613C92.8111 55.5854 92.0743 68.8816 92.0743 68.8816L102.02 69.9896L99.4417 47.8293Z" fill="#4D80E4"/>
<path d="M142.733 121.476C129.134 123.496 109.315 125.127 88.7603 122.292C88.7586 122.089 88.7586 121.89 88.7586 121.696C88.7586 120.544 88.8026 119.405 88.8906 118.278C89.9436 104.408 97.0704 92.844 99.828 88.8367C99.9668 88.633 100.095 88.4497 100.211 88.2868C100.656 87.6605 100.915 87.3295 100.915 87.3295C100.915 87.3295 122.28 86.9798 133.331 91.4115C133.864 91.6358 134.351 91.9556 134.77 92.3552C138.89 96.1673 141.311 108.544 142.733 121.476Z" fill="#2F2E41"/>
<path d="M134.805 42.6586C134.805 42.6586 139.594 40.0732 144.382 45.6133L153.96 56.6934L146.593 64.8189L132.595 56.3241L134.805 42.6586Z" fill="#4D80E4"/>
<path d="M100.304 20.2062C104.607 17.0836 108.091 13.487 110.395 9.20868C110.395 9.20868 118.293 18.0067 123.119 18.4466C127.945 18.8865 123.557 7.88897 123.557 7.88897L114.783 5.68945L106.446 6.56926L99.8653 10.9683L100.304 20.2062Z" fill="#2F2E41"/>
<path d="M127.806 40.0732C127.806 40.0732 122.651 48.2454 107.178 44.344L98.3983 46.7684L97.2314 47.0907C97.2314 47.0907 98.3365 69.251 101.283 73.3137C104.23 77.3764 103.494 79.5924 102.757 79.9618C102.02 80.3311 100.178 79.5924 101.283 81.4391C102.389 83.2858 103.862 82.1778 102.389 83.2858C100.915 84.3938 100.178 88.4566 100.178 88.4566L134.805 92.8886C134.805 92.8886 133.7 78.4844 136.647 71.0977C139.593 63.7109 140.33 60.7562 140.33 60.7562L138.12 42.2893L127.806 40.0732Z" fill="#4D80E4"/>
<path d="M55.8414 32.8428H8.44205V92.2483H55.8414V32.8428Z" fill="#39374D"/>
<path d="M21.9001 37.8499H11.7431V44.639H21.9001V37.8499Z" fill="white"/>
<path d="M51.1015 51.0887H11.8278V53.465H51.1015V51.0887Z" fill="white"/>
<path d="M51.1015 57.3688H11.8278V59.745H51.1015V57.3688Z" fill="white"/>
<path d="M51.1015 63.6488H11.8278V66.025H51.1015V63.6488Z" fill="white"/>
<path d="M51.1015 69.9288H11.8278V72.3051H51.1015V69.9288Z" fill="white"/>
<path d="M51.1015 76.2087H11.8278V78.585H51.1015V76.2087Z" fill="white"/>
<path d="M65.1521 92.1634C65.15 94.4052 64.3411 96.5709 62.874 98.2626C61.4069 99.9543 59.3802 101.058 57.1663 101.372C54.9524 101.686 52.7 101.188 50.823 99.9695C48.946 98.7514 47.5704 96.8951 46.949 94.7416C46.3276 92.5882 46.5022 90.2822 47.4406 88.2474C48.379 86.2127 50.0183 84.5858 52.0572 83.6657C54.0961 82.7457 56.3976 82.5942 58.539 83.2392C60.6803 83.8842 62.5176 85.2824 63.7132 87.1767C64.6535 88.6691 65.1524 90.3982 65.1521 92.1634Z" fill="#4D80E4"/>
<path d="M63.7131 87.1767L54.5481 96.3642C53.9721 95.4701 50.763 91.3147 50.763 91.3147C51.1742 90.898 51.6131 90.5095 52.0766 90.1521L54.7377 93.7096L62.6399 85.7866C63.0406 86.215 63.4 86.6804 63.7131 87.1767Z" fill="white"/>
</g>
<defs>
<clipPath id="clip0">
<rect width="166" height="135" fill="white"/>
</clipPath>
</defs>
</svg>
