<svg width="213" height="137" viewBox="0 0 213 137" fill="none" xmlns="http://www.w3.org/2000/svg">
<path d="M207.312 137H5.27487C3.8957 136.998 2.57347 136.45 1.59825 135.475C0.623027 134.499 0.0744652 133.177 0.0729065 131.798V7.21772C0.0740304 6.20733 0.475898 5.23864 1.19034 4.52416C1.90479 3.80969 2.87346 3.40778 3.88386 3.40662H208.637C209.665 3.40778 210.651 3.81663 211.377 4.54346C212.104 5.27028 212.513 6.25573 212.514 7.28361V131.798C212.513 133.177 211.964 134.499 210.989 135.475C210.014 136.45 208.691 136.998 207.312 137Z" fill="white"/>
<path d="M200.78 130.432H12.4865C9.72629 130.432 7.48074 128.329 7.48074 125.745V17.2585C7.48074 15.3417 9.14475 13.7821 11.1901 13.7821H202.015C204.094 13.7821 205.786 15.3674 205.786 17.3158V125.745C205.786 128.329 203.54 130.432 200.78 130.432Z" fill="#39374D"/>
<path d="M212.442 7.86605H0V5.21766C0.00199996 3.8339 0.552801 2.50745 1.53156 1.52929C2.51033 0.551129 3.83712 0.00114739 5.22088 0H207.221C208.605 0.00113572 209.932 0.551112 210.91 1.52927C211.889 2.50744 212.44 3.8339 212.442 5.21766V7.86605Z" fill="#3F3D56"/>
<path d="M9.48813 5.29132C10.234 5.29132 10.8386 4.68671 10.8386 3.94089C10.8386 3.19506 10.234 2.59045 9.48813 2.59045C8.7423 2.59045 8.1377 3.19506 8.1377 3.94089C8.1377 4.68671 8.7423 5.29132 9.48813 5.29132Z" fill="white"/>
<path d="M14.6141 5.29132C15.36 5.29132 15.9646 4.68671 15.9646 3.94089C15.9646 3.19506 15.36 2.59045 14.6141 2.59045C13.8683 2.59045 13.2637 3.19506 13.2637 3.94089C13.2637 4.68671 13.8683 5.29132 14.6141 5.29132Z" fill="white"/>
<path d="M19.7401 5.29132C20.486 5.29132 21.0906 4.68671 21.0906 3.94089C21.0906 3.19506 20.486 2.59045 19.7401 2.59045C18.9943 2.59045 18.3897 3.19506 18.3897 3.94089C18.3897 4.68671 18.9943 5.29132 19.7401 5.29132Z" fill="white"/>
<path d="M102.166 37.5029H65.3401C64.791 37.5029 64.2645 37.2848 63.8763 36.8966C63.4881 36.5083 63.27 35.9818 63.27 35.4328C63.27 34.8838 63.4881 34.3572 63.8763 33.969C64.2645 33.5808 64.791 33.3627 65.3401 33.3627H102.166C102.715 33.3627 103.242 33.5808 103.63 33.969C104.018 34.3572 104.236 34.8838 104.236 35.4328C104.236 35.9818 104.018 36.5083 103.63 36.8966C103.242 37.2848 102.715 37.5029 102.166 37.5029Z" fill="#CCCCCC"/>
<path d="M147.926 37.5029H111.1C110.551 37.5029 110.025 37.2848 109.636 36.8966C109.248 36.5083 109.03 35.9818 109.03 35.4328C109.03 34.8838 109.248 34.3572 109.636 33.969C110.025 33.5808 110.551 33.3627 111.1 33.3627H147.926C148.475 33.3627 149.002 33.5808 149.39 33.969C149.778 34.3572 149.996 34.8838 149.996 35.4328C149.996 35.9818 149.778 36.5083 149.39 36.8966C149.002 37.2848 148.475 37.5029 147.926 37.5029Z" fill="#CCCCCC"/>
<path d="M147.926 45.3472H83.8619C83.3128 45.3472 82.7863 45.1291 82.3981 44.7409C82.0098 44.3527 81.7917 43.8262 81.7917 43.2771C81.7917 42.7281 82.0098 42.2016 82.3981 41.8133C82.7863 41.4251 83.3128 41.207 83.8619 41.207H147.926C148.475 41.207 149.002 41.4251 149.39 41.8133C149.778 42.2016 149.996 42.7281 149.996 43.2771C149.996 43.8262 149.778 44.3527 149.39 44.7409C149.002 45.1291 148.475 45.3472 147.926 45.3472Z" fill="#CCCCCC"/>
<path d="M102.166 29.5491H65.3401C64.7915 29.5485 64.2656 29.3301 63.878 28.9419C63.4903 28.5538 63.2725 28.0276 63.2725 27.479C63.2725 26.9305 63.4903 26.4043 63.878 26.0162C64.2656 25.628 64.7915 25.4096 65.3401 25.4089H102.166C102.438 25.4086 102.708 25.4619 102.959 25.5658C103.211 25.6697 103.439 25.8221 103.632 26.0144C103.824 26.2066 103.977 26.4349 104.081 26.6863C104.185 26.9376 104.239 27.207 104.239 27.479C104.239 27.7511 104.185 28.0205 104.081 28.2718C103.977 28.5232 103.824 28.7515 103.632 28.9437C103.439 29.136 103.211 29.2884 102.959 29.3923C102.708 29.4962 102.438 29.5495 102.166 29.5491Z" fill="#CCCCCC"/>
<path d="M122.431 29.6582H111.972C111.423 29.6582 110.896 29.4401 110.508 29.0518C110.12 28.6636 109.902 28.1371 109.902 27.5881C109.902 27.039 110.12 26.5125 110.508 26.1243C110.896 25.736 111.423 25.5179 111.972 25.5179H122.431C122.98 25.5179 123.507 25.736 123.895 26.1243C124.283 26.5125 124.501 27.039 124.501 27.5881C124.501 28.1371 124.283 28.6636 123.895 29.0518C123.507 29.4401 122.98 29.6582 122.431 29.6582Z" fill="#CCCCCC"/>
<path d="M75.7996 45.3472H65.3401C64.7915 45.3466 64.2656 45.1282 63.878 44.74C63.4903 44.3519 63.2725 43.8257 63.2725 43.2771C63.2725 42.7286 63.4903 42.2024 63.878 41.8143C64.2656 41.4261 64.7915 41.2077 65.3401 41.207H75.7996C76.0716 41.2067 76.3411 41.26 76.5926 41.3639C76.844 41.4678 77.0725 41.6202 77.265 41.8124C77.4575 42.0047 77.6102 42.233 77.7144 42.4844C77.8186 42.7357 77.8722 43.0051 77.8722 43.2771C77.8722 43.5492 77.8186 43.8186 77.7144 44.0699C77.6102 44.3212 77.4575 44.5496 77.265 44.7418C77.0725 44.9341 76.844 45.0865 76.5926 45.1904C76.3411 45.2943 76.0716 45.3476 75.7996 45.3472Z" fill="#CCCCCC"/>
<path d="M102.166 110.961H65.3401C64.791 110.961 64.2645 110.743 63.8763 110.354C63.4881 109.966 63.27 109.44 63.27 108.891C63.27 108.342 63.4881 107.815 63.8763 107.427C64.2645 107.039 64.791 106.821 65.3401 106.821H102.166C102.438 106.821 102.707 106.874 102.958 106.978C103.21 107.082 103.438 107.235 103.63 107.427C103.822 107.619 103.975 107.847 104.079 108.098C104.183 108.35 104.236 108.619 104.236 108.891C104.236 109.163 104.183 109.432 104.079 109.683C103.975 109.934 103.822 110.162 103.63 110.354C103.438 110.547 103.21 110.699 102.958 110.803C102.707 110.907 102.438 110.961 102.166 110.961Z" fill="#CCCCCC"/>
<path d="M147.926 110.961H111.1C110.551 110.961 110.025 110.743 109.636 110.354C109.248 109.966 109.03 109.44 109.03 108.891C109.03 108.342 109.248 107.815 109.636 107.427C110.025 107.039 110.551 106.821 111.1 106.821H147.926C148.198 106.821 148.467 106.874 148.719 106.978C148.97 107.082 149.198 107.235 149.39 107.427C149.582 107.619 149.735 107.847 149.839 108.098C149.943 108.35 149.996 108.619 149.996 108.891C149.996 109.163 149.943 109.432 149.839 109.683C149.735 109.934 149.582 110.162 149.39 110.354C149.198 110.547 148.97 110.699 148.719 110.803C148.467 110.907 148.198 110.961 147.926 110.961Z" fill="#CCCCCC"/>
<path d="M147.926 118.805H83.8619C83.3128 118.805 82.7863 118.587 82.3981 118.199C82.0098 117.811 81.7917 117.284 81.7917 116.735C81.7917 116.186 82.0098 115.66 82.3981 115.272C82.7863 114.883 83.3128 114.665 83.8619 114.665H147.926C148.198 114.665 148.468 114.718 148.719 114.822C148.971 114.926 149.199 115.078 149.392 115.271C149.584 115.463 149.737 115.691 149.841 115.943C149.945 116.194 149.999 116.463 149.999 116.735C149.999 117.007 149.945 117.277 149.841 117.528C149.737 117.779 149.584 118.008 149.392 118.2C149.199 118.392 148.971 118.545 148.719 118.649C148.468 118.753 148.198 118.806 147.926 118.805Z" fill="#CCCCCC"/>
<path d="M102.166 103.007H65.3401C64.791 103.007 64.2645 102.789 63.8763 102.401C63.4881 102.013 63.27 101.486 63.27 100.937C63.27 100.388 63.4881 99.8615 63.8763 99.4733C64.2645 99.085 64.791 98.8669 65.3401 98.8669H102.166C102.715 98.8669 103.242 99.085 103.63 99.4733C104.018 99.8615 104.236 100.388 104.236 100.937C104.236 101.486 104.018 102.013 103.63 102.401C103.242 102.789 102.715 103.007 102.166 103.007Z" fill="#CCCCCC"/>
<path d="M122.431 103.116H111.972C111.423 103.116 110.896 102.898 110.508 102.51C110.12 102.122 109.902 101.595 109.902 101.046C109.902 100.497 110.12 99.9704 110.508 99.5822C110.896 99.1939 111.423 98.9758 111.972 98.9758H122.431C122.98 98.9758 123.507 99.1939 123.895 99.5822C124.283 99.9704 124.501 100.497 124.501 101.046C124.501 101.595 124.283 102.122 123.895 102.51C123.507 102.898 122.98 103.116 122.431 103.116Z" fill="#CCCCCC"/>
<path d="M75.7995 118.805H65.3401C64.791 118.805 64.2645 118.587 63.8763 118.199C63.4881 117.811 63.27 117.284 63.27 116.735C63.27 116.186 63.4881 115.66 63.8763 115.272C64.2645 114.883 64.791 114.665 65.3401 114.665H75.7995C76.0716 114.665 76.3411 114.718 76.5925 114.822C76.844 114.926 77.0725 115.078 77.265 115.271C77.4575 115.463 77.6102 115.691 77.7144 115.943C77.8186 116.194 77.8722 116.463 77.8722 116.735C77.8722 117.007 77.8186 117.277 77.7144 117.528C77.6102 117.779 77.4575 118.008 77.265 118.2C77.0725 118.392 76.844 118.545 76.5925 118.649C76.3411 118.753 76.0716 118.806 75.7995 118.805Z" fill="#CCCCCC"/>
<path d="M92.5481 88.7365C91.7666 88.7383 91.0161 88.4312 90.4599 87.8821L76.6168 74.2122C76.3451 73.9438 76.1293 73.6242 75.982 73.2718C75.8347 72.9193 75.7589 72.5412 75.7589 72.1593C75.7589 71.7773 75.8347 71.3992 75.982 71.0468C76.1293 70.6944 76.3451 70.3747 76.6168 70.1063L90.404 56.4916C90.9784 55.9271 91.7522 55.612 92.5575 55.6145C93.3628 55.6171 94.1346 55.9371 94.7054 56.5051C95.2767 57.0778 95.5976 57.8537 95.5976 58.6626C95.5976 59.4716 95.2768 60.2475 94.7054 60.8201L84.4604 71.0654C84.1412 71.3853 83.962 71.8188 83.962 72.2707C83.962 72.7227 84.1412 73.1561 84.4604 73.4761L94.6499 83.6657C95.066 84.0809 95.3494 84.6104 95.4643 85.1869C95.5793 85.7634 95.5204 86.3611 95.2953 86.9042C95.0702 87.4473 94.689 87.9113 94.2 88.2375C93.7109 88.5637 93.136 88.7374 92.5481 88.7365V88.7365Z" fill="#4D80E4"/>
<path d="M114.606 88.7365C114.018 88.7374 113.443 88.5637 112.954 88.2375C112.465 87.9113 112.084 87.4473 111.859 86.9042C111.634 86.3611 111.575 85.7635 111.69 85.1869C111.805 84.6104 112.088 84.081 112.504 83.6657L122.694 73.4761C123.013 73.1562 123.192 72.7227 123.192 72.2707C123.192 71.8188 123.013 71.3853 122.694 71.0654L112.449 60.8201C112.166 60.5368 111.941 60.2005 111.787 59.8303C111.634 59.4601 111.555 59.0633 111.555 58.6626C111.555 58.2619 111.634 57.8652 111.788 57.495C111.941 57.1248 112.166 56.7885 112.449 56.5051C113.02 55.9371 113.792 55.6171 114.597 55.6145C115.402 55.612 116.176 55.9271 116.75 56.4916L130.538 70.1063C130.809 70.3747 131.025 70.6944 131.172 71.0468C131.32 71.3992 131.395 71.7773 131.395 72.1593C131.395 72.5412 131.32 72.9194 131.172 73.2718C131.025 73.6242 130.809 73.9438 130.538 74.2122L116.694 87.8821C116.138 88.4311 115.388 88.7382 114.606 88.7365Z" fill="#4D80E4"/>
</svg>
